<svg width="1184" height="192" fill="none" xmlns="http://www.w3.org/2000/svg"><g opacity=".15"><path d="M54.508 149.437 0 4.695h38.992l40.83 116.978h-16.74L104.524 4.695H142.7L87.58 149.437H54.508Z" fill="url(#a)"/><path d="M196.122 149.437V49.608h35.726v99.829h-35.726Zm17.761-111.465c-5.308 0-9.731-1.77-13.27-5.308-3.538-3.675-5.308-8.234-5.308-13.678 0-5.308 1.77-9.8 5.308-13.474C204.152 1.837 208.575 0 213.883 0c5.58 0 10.071 1.837 13.474 5.512 3.538 3.675 5.308 8.166 5.308 13.474 0 5.444-1.77 10.003-5.308 13.678-3.403 3.538-7.894 5.308-13.474 5.308Z" fill="url(#b)"/><path d="M352.784 151.479c-6.397 0-12.317-1.225-17.761-3.675-5.444-2.586-9.935-6.056-13.474-10.412-3.538-4.355-5.716-9.118-6.533-14.29V74.31c.817-5.172 2.995-9.799 6.533-13.882 3.675-4.083 8.234-7.213 13.678-9.39 5.444-2.314 11.296-3.471 17.557-3.471 9.663 0 18.169 2.245 25.519 6.737 7.349 4.355 13.065 10.48 17.148 18.373 4.219 7.894 6.329 16.876 6.329 26.948 0 9.935-2.11 18.85-6.329 26.743-4.083 7.758-9.799 13.882-17.148 18.374-7.35 4.491-15.856 6.737-25.519 6.737Zm-6.329-31.643c3.811 0 7.146-.885 10.004-2.654 2.994-1.77 5.308-4.151 6.941-7.146 1.633-3.13 2.45-6.668 2.45-10.615 0-3.811-.817-7.214-2.45-10.208-1.633-3.13-3.947-5.58-6.941-7.35-2.994-1.769-6.397-2.653-10.208-2.653-3.81 0-7.213.885-10.207 2.654-2.858 1.77-5.104 4.15-6.737 7.145-1.633 2.994-2.45 6.465-2.45 10.412 0 4.083.817 7.689 2.45 10.82 1.633 2.994 3.947 5.375 6.941 7.145 2.994 1.633 6.397 2.45 10.207 2.45Zm-53.078 29.601V.612h35.522v73.494l-5.921 24.09 5.104 24.498v26.743h-34.705Z" fill="url(#c)"/><path d="M507.639 151.683c-11.16 0-21.027-2.178-29.601-6.533-8.575-4.491-15.312-10.684-20.211-18.578-4.9-7.893-7.35-16.944-7.35-27.151 0-10.072 2.382-18.986 7.146-26.744 4.763-7.894 11.228-14.086 19.394-18.578 8.302-4.627 17.625-6.94 27.968-6.94 10.072 0 18.986 2.177 26.744 6.532 7.894 4.22 14.018 10.14 18.373 17.761 4.491 7.486 6.737 16.06 6.737 25.723 0 2.041-.136 4.151-.408 6.329-.136 2.041-.545 4.423-1.225 7.145l-87.988.408V88.192l73.902-.612-15.924 10.003c-.136-5.58-.953-10.14-2.45-13.678-1.497-3.674-3.675-6.464-6.533-8.37-2.858-1.905-6.464-2.858-10.819-2.858-4.492 0-8.371 1.089-11.637 3.266-3.266 2.178-5.784 5.24-7.554 9.187-1.769 3.947-2.653 8.71-2.653 14.29 0 5.717.952 10.616 2.858 14.699 1.905 3.947 4.627 6.941 8.166 8.983 3.538 2.041 7.893 3.062 13.065 3.062 4.9 0 9.187-.816 12.862-2.45 3.81-1.633 7.213-4.151 10.207-7.553l18.578 18.577c-4.9 5.581-10.888 9.8-17.966 12.658-6.941 2.858-14.834 4.287-23.681 4.287Z" fill="url(#d)"/><path d="m605.163 128.206 47.363-57.366h43.892l-47.362 57.366h-43.893Zm0 21.231v-21.231l23.069-7.758h66.961v28.989h-90.03Zm3.471-70.84V49.608h87.784V70.84l-23.069 7.757h-64.715Z" fill="url(#e)"/><path d="M790.963 152.295a68.726 68.726 0 0 1-18.169-2.45c-5.852-1.633-11.364-3.81-16.536-6.532-5.036-2.858-9.323-6.125-12.862-9.799l19.395-19.803c3.266 3.403 7.145 6.057 11.636 7.962 4.627 1.905 9.527 2.858 14.699 2.858 2.994 0 5.24-.408 6.737-1.225 1.633-.817 2.449-1.973 2.449-3.47 0-2.178-1.156-3.811-3.47-4.9-2.178-1.225-5.104-2.246-8.779-3.062a310.026 310.026 0 0 1-11.228-3.267 62.053 62.053 0 0 1-11.432-5.308c-3.675-2.177-6.669-5.24-8.983-9.186-2.177-3.947-3.266-8.983-3.266-15.107 0-6.397 1.701-11.977 5.104-16.74 3.538-4.9 8.438-8.71 14.698-11.433 6.261-2.858 13.61-4.287 22.049-4.287 8.574 0 16.74 1.497 24.497 4.491 7.758 2.858 14.019 7.214 18.782 13.066l-19.598 19.802c-3.266-3.674-6.873-6.192-10.82-7.553-3.947-1.497-7.554-2.246-10.82-2.246-3.13 0-5.376.477-6.737 1.43-1.361.816-2.041 1.973-2.041 3.47 0 1.769 1.088 3.198 3.266 4.287 2.314 1.089 5.24 2.11 8.778 3.062 3.675.817 7.418 1.905 11.229 3.266 3.947 1.362 7.689 3.267 11.228 5.717 3.675 2.313 6.601 5.444 8.778 9.391 2.314 3.946 3.471 9.05 3.471 15.311 0 9.935-3.811 17.829-11.433 23.681-7.621 5.716-17.829 8.574-30.622 8.574Z" fill="url(#f)"/><path d="M951.976 151.683c-12.249 0-23.069-2.518-32.46-7.554-9.254-5.171-16.468-12.317-21.639-21.435-5.172-9.119-7.758-19.463-7.758-31.031V4.695h36.338v89.622c0 5.172 1.089 9.663 3.267 13.474 2.314 3.674 5.376 6.533 9.187 8.574 3.946 1.905 8.302 2.858 13.065 2.858 4.9 0 9.187-.953 12.862-2.858 3.674-2.041 6.6-4.9 8.778-8.574 2.177-3.675 3.266-8.098 3.266-13.27V4.695h36.748v87.172c0 11.569-2.59 21.912-7.76 31.031-5.17 8.982-12.384 16.06-21.638 21.231-9.119 5.036-19.871 7.554-32.256 7.554Z" fill="url(#g)"/><path d="M1134.69 151.479c-6.4 0-12.32-1.157-17.76-3.471-5.44-2.314-9.93-5.444-13.47-9.391-3.54-4.083-5.72-8.778-6.54-14.086V75.943c.82-5.307 3-10.07 6.54-14.29 3.67-4.355 8.16-7.758 13.47-10.207 5.44-2.586 11.36-3.88 17.76-3.88 9.66 0 18.17 2.246 25.52 6.738 7.35 4.355 13.07 10.48 17.15 18.373 4.22 7.894 6.33 16.876 6.33 26.948 0 9.935-2.11 18.85-6.33 26.743-4.08 7.758-9.8 13.882-17.15 18.374-7.35 4.491-15.86 6.737-25.52 6.737Zm-6.74-31.643c3.95 0 7.42-.885 10.42-2.654 2.99-1.77 5.3-4.151 6.94-7.146 1.63-3.13 2.45-6.668 2.45-10.615s-.82-7.418-2.45-10.412c-1.64-2.994-3.95-5.376-6.94-7.145-3-1.77-6.4-2.654-10.21-2.654-3.68 0-7.01.885-10 2.654-3 1.633-5.31 4.015-6.95 7.145-1.63 2.994-2.45 6.465-2.45 10.412 0 3.947.82 7.485 2.45 10.615 1.64 2.995 3.88 5.376 6.74 7.146 3 1.769 6.33 2.654 10 2.654Zm-52.67 71.86V49.608h35.53v25.11l-5.92 24.09 5.1 24.294v68.594h-34.71Z" fill="url(#h)"/></g><defs><linearGradient id="a" x1="591.844" y1="0" x2="591.844" y2="191.696" gradientUnits="userSpaceOnUse"><stop stop-color="#75007E"/><stop offset="1" stop-color="#DCFFC0" stop-opacity="0"/></linearGradient><linearGradient id="b" x1="591.844" y1="0" x2="591.844" y2="191.696" gradientUnits="userSpaceOnUse"><stop stop-color="#75007E"/><stop offset="1" stop-color="#DCFFC0" stop-opacity="0"/></linearGradient><linearGradient id="c" x1="591.844" y1="0" x2="591.844" y2="191.696" gradientUnits="userSpaceOnUse"><stop stop-color="#75007E"/><stop offset="1" stop-color="#DCFFC0" stop-opacity="0"/></linearGradient><linearGradient id="d" x1="591.844" y1="0" x2="591.844" y2="191.696" gradientUnits="userSpaceOnUse"><stop stop-color="#75007E"/><stop offset="1" stop-color="#DCFFC0" stop-opacity="0"/></linearGradient><linearGradient id="e" x1="591.844" y1="0" x2="591.844" y2="191.696" gradientUnits="userSpaceOnUse"><stop stop-color="#75007E"/><stop offset="1" stop-color="#DCFFC0" stop-opacity="0"/></linearGradient><linearGradient id="f" x1="591.844" y1="0" x2="591.844" y2="191.696" gradientUnits="userSpaceOnUse"><stop stop-color="#75007E"/><stop offset="1" stop-color="#DCFFC0" stop-opacity="0"/></linearGradient><linearGradient id="g" x1="591.844" y1="0" x2="591.844" y2="191.696" gradientUnits="userSpaceOnUse"><stop stop-color="#75007E"/><stop offset="1" stop-color="#DCFFC0" stop-opacity="0"/></linearGradient><linearGradient id="h" x1="591.844" y1="0" x2="591.844" y2="191.696" gradientUnits="userSpaceOnUse"><stop stop-color="#75007E"/><stop offset="1" stop-color="#DCFFC0" stop-opacity="0"/></linearGradient></defs></svg>