<svg width="143" height="43" viewBox="0 0 143 43" fill="none" xmlns="http://www.w3.org/2000/svg">
<rect x="1" y="0.662964" width="141.151" height="41.7195" rx="5.56259" fill="white" stroke="#CFCFCF" stroke-width="0.695324"/>
<path fill-rule="evenodd" clip-rule="evenodd" d="M36.7578 20.5715C36.7328 17.5844 39.2025 16.1326 39.311 16.0658C37.9092 14.0299 35.7398 13.7462 34.9805 13.7212C33.1616 13.5293 31.3927 14.8142 30.4665 14.8142C29.5236 14.8142 28.0885 13.7462 26.5532 13.7713C24.5757 13.8046 22.715 14.9478 21.7054 16.7333C19.6111 20.3629 21.1714 25.703 23.1823 28.6401C24.1919 30.0752 25.36 31.6856 26.9036 31.6272C28.4056 31.5688 28.9729 30.6676 30.7836 30.6676C32.5858 30.6676 33.1115 31.6272 34.6802 31.5938C36.2989 31.5688 37.3085 30.1503 38.2847 28.6985C39.4445 27.0547 39.9118 25.4277 39.9285 25.3442C39.8867 25.3276 36.7912 24.1427 36.7578 20.5715Z" fill="black"/>
<path fill-rule="evenodd" clip-rule="evenodd" d="M33.7952 11.7937C34.6046 10.7841 35.1553 9.40739 35.0051 8.00562C33.8369 8.05568 32.3684 8.81497 31.5257 9.8079C30.7831 10.684 30.1156 12.1108 30.2824 13.4542C31.6008 13.5543 32.9525 12.7867 33.7952 11.7937Z" fill="black"/>
<path fill-rule="evenodd" clip-rule="evenodd" d="M54.956 26.2786L53.913 23.0662C53.8046 22.7325 53.596 21.9649 53.2956 20.7466H53.2539C53.1287 21.2723 52.9368 22.0483 52.6698 23.0662L51.6435 26.2786H54.956ZM58.5519 31.4187H56.4493L55.2978 27.7974H51.2928L50.1997 31.4187H48.1555L52.1188 19.0947H54.5719L58.5519 31.4187Z" fill="black"/>
<path fill-rule="evenodd" clip-rule="evenodd" d="M66.7287 26.9377C66.7287 26.07 66.5368 25.3607 66.1446 24.8017C65.7191 24.2176 65.1434 23.9256 64.4258 23.9256C63.9418 23.9256 63.4996 24.0925 63.0991 24.4095C62.7069 24.7349 62.4399 25.1521 62.3231 25.6778C62.2647 25.9198 62.2313 26.12 62.2313 26.2785V27.7638C62.2313 28.4062 62.4316 28.9569 62.8237 29.3992C63.2159 29.8414 63.7332 30.0667 64.3674 30.0667C65.11 30.0667 65.6857 29.7746 66.1029 29.2073C66.5201 28.6315 66.7287 27.8806 66.7287 26.9377ZM68.7395 26.871C68.7395 28.3813 68.3307 29.5744 67.5046 30.4506C66.7704 31.2349 65.8526 31.6187 64.7679 31.6187C63.5914 31.6187 62.7486 31.2015 62.2313 30.3588V35.023H60.2538V25.4526C60.2538 24.5014 60.2288 23.5335 60.1787 22.5322H61.9142L62.0227 23.9423H62.0561C62.7153 22.8826 63.7165 22.3486 65.0515 22.3486C66.1029 22.3486 66.9706 22.7658 67.6715 23.5919C68.3891 24.4263 68.7395 25.511 68.7395 26.871Z" fill="black"/>
<path fill-rule="evenodd" clip-rule="evenodd" d="M76.9423 26.9377C76.9423 26.07 76.7504 25.3607 76.3582 24.8017C75.9327 24.2176 75.3569 23.9256 74.6393 23.9256C74.1554 23.9256 73.7132 24.0925 73.3127 24.4095C72.9205 24.7349 72.6618 25.1521 72.5367 25.6778C72.4783 25.9198 72.4449 26.12 72.4449 26.2785V27.7638C72.4449 28.4062 72.6452 28.9569 73.0373 29.3992C73.4295 29.8414 73.9468 30.0667 74.5809 30.0667C75.3235 30.0667 75.9076 29.7746 76.3165 29.2073C76.742 28.6315 76.9423 27.8806 76.9423 26.9377ZM78.9532 26.871C78.9532 28.3813 78.5443 29.5744 77.7183 30.4506C76.984 31.2349 76.0662 31.6187 74.9815 31.6187C73.805 31.6187 72.9623 31.2015 72.4449 30.3588V35.023H70.4674V25.4526C70.4674 24.5014 70.4424 23.5335 70.3923 22.5322H72.1279L72.2363 23.9423H72.2697C72.9289 22.8826 73.9301 22.3486 75.2652 22.3486C76.3165 22.3486 77.1843 22.7658 77.8851 23.5919C78.6027 24.4263 78.9532 25.511 78.9532 26.871Z" fill="black"/>
<path fill-rule="evenodd" clip-rule="evenodd" d="M90.3844 27.9643C90.3844 29.0157 90.0173 29.8667 89.2914 30.5259C88.4904 31.2435 87.3723 31.6023 85.9371 31.6023C84.6104 31.6023 83.5508 31.3436 82.7498 30.8346L83.2087 29.1909C84.0764 29.6999 85.0276 29.9585 86.0623 29.9585C86.8049 29.9585 87.389 29.7916 87.7978 29.4579C88.215 29.1241 88.4236 28.6736 88.4236 28.1145C88.4236 27.6139 88.2484 27.1967 87.9146 26.8546C87.5725 26.5125 87.0051 26.1954 86.2125 25.9034C84.0347 25.094 82.9584 23.9175 82.9584 22.3739C82.9584 21.3643 83.3422 20.5383 84.1015 19.8874C84.8608 19.245 85.8704 18.9196 87.1303 18.9196C88.2484 18.9196 89.1829 19.1115 89.9255 19.5036L89.4249 21.1057C88.724 20.7302 87.9397 20.5383 87.0552 20.5383C86.3627 20.5383 85.812 20.7135 85.4198 21.0472C85.0944 21.356 84.9275 21.7231 84.9275 22.1653C84.9275 22.6493 85.1194 23.0581 85.4949 23.3669C85.8203 23.6589 86.4211 23.976 87.2888 24.3181C88.3485 24.7436 89.1245 25.2442 89.6251 25.82C90.1341 26.3957 90.3844 27.1133 90.3844 27.9643Z" fill="black"/>
<path fill-rule="evenodd" clip-rule="evenodd" d="M96.9255 24.0175H94.7477V28.3313C94.7477 29.4244 95.1315 29.9751 95.8992 29.9751C96.2496 29.9751 96.5416 29.9417 96.7753 29.8833L96.8337 31.3852C96.4415 31.527 95.9325 31.6021 95.2984 31.6021C94.5141 31.6021 93.9133 31.3601 93.4711 30.8845C93.0289 30.4089 92.8119 29.6079 92.8119 28.4898V24.0092H91.5186V22.5323H92.8119V20.9052L94.7477 20.3212V22.5323H96.9255V24.0175Z" fill="black"/>
<path fill-rule="evenodd" clip-rule="evenodd" d="M104.678 26.9466C104.678 26.1289 104.502 25.4363 104.152 24.8523C103.735 24.143 103.142 23.7926 102.375 23.7926C101.582 23.7926 100.973 24.143 100.564 24.8523C100.205 25.4363 100.038 26.1456 100.038 26.9883C100.038 27.806 100.214 28.5069 100.564 29.0826C100.99 29.7919 101.59 30.1423 102.358 30.1423C103.109 30.1423 103.701 29.7835 104.135 29.0659C104.494 28.4652 104.678 27.7643 104.678 26.9466ZM106.722 26.9046C106.722 28.273 106.33 29.3911 105.554 30.2672C104.736 31.1683 103.651 31.6189 102.3 31.6189C100.998 31.6189 99.955 31.185 99.179 30.3256C98.403 29.4662 98.0192 28.3731 98.0192 27.0548C98.0192 25.678 98.4197 24.5516 99.2124 23.6755C100.013 22.7994 101.09 22.3572 102.441 22.3572C103.743 22.3572 104.794 22.7911 105.587 23.6588C106.346 24.4932 106.722 25.5779 106.722 26.9046Z" fill="black"/>
<path fill-rule="evenodd" clip-rule="evenodd" d="M113.146 24.2676C112.954 24.2342 112.746 24.2175 112.52 24.2175C111.828 24.2175 111.285 24.4762 110.91 25.0019C110.585 25.4608 110.418 26.0532 110.418 26.7541V31.4183H108.44V25.3273C108.44 24.301 108.423 23.3665 108.382 22.5321H110.101L110.176 24.2342H110.234C110.443 23.6502 110.768 23.1746 111.219 22.8241C111.661 22.507 112.136 22.3485 112.645 22.3485C112.829 22.3485 112.996 22.3652 113.138 22.3819L113.146 24.2676Z" fill="black"/>
<path fill-rule="evenodd" clip-rule="evenodd" d="M120.089 26.045C120.105 25.4609 119.972 24.9519 119.705 24.5264C119.363 23.9757 118.837 23.7003 118.136 23.7003C117.494 23.7003 116.968 23.9673 116.568 24.5013C116.242 24.9269 116.042 25.4442 115.983 26.0366L120.089 26.045ZM121.974 26.5538C121.974 26.9043 121.949 27.2047 121.899 27.4466H115.975C116 28.3227 116.283 28.9986 116.834 29.4575C117.335 29.8664 117.977 30.075 118.77 30.075C119.646 30.075 120.447 29.9331 121.164 29.6578L121.473 31.0262C120.631 31.3933 119.637 31.5769 118.494 31.5769C117.118 31.5769 116.033 31.168 115.249 30.3587C114.464 29.5493 114.072 28.4562 114.072 27.0962C114.072 25.7612 114.439 24.6431 115.174 23.7503C115.941 22.7991 116.976 22.3235 118.277 22.3235C119.554 22.3235 120.53 22.7991 121.181 23.7503C121.707 24.5179 121.974 25.4441 121.974 26.5538Z" fill="black"/>
<path fill-rule="evenodd" clip-rule="evenodd" d="M52.2277 12.1611L51.7187 10.5757C51.6687 10.4172 51.5685 10.0334 51.41 9.43261H51.3933C51.3266 9.69127 51.2431 10.0667 51.1013 10.5757L50.6006 12.1611H52.2277ZM54.0051 14.6891H52.9704L52.403 12.9119H50.4339L49.8915 14.6891H48.8903L50.8344 8.63147H52.0359L54.0051 14.6891Z" fill="black"/>
<path fill-rule="evenodd" clip-rule="evenodd" d="M58.8781 10.3171L57.226 14.6893H56.2831L54.6811 10.3171H55.7241L56.4667 12.6284C56.5918 13.0122 56.7003 13.3793 56.7838 13.7298H56.8088C56.8839 13.4127 56.9923 13.0456 57.1259 12.6284L57.8601 10.3171H58.8781Z" fill="black"/>
<path fill-rule="evenodd" clip-rule="evenodd" d="M62.2651 12.5111C61.1887 12.5111 60.6464 12.7697 60.6464 13.3955C60.6464 13.8544 60.9217 14.0797 61.3139 14.0797C61.8062 14.0797 62.2651 13.7042 62.2651 13.1869V12.5111ZM62.3985 14.689L62.3234 14.1884H62.2984C61.998 14.5889 61.5725 14.7891 61.0218 14.7891C60.2375 14.7891 59.6868 14.2384 59.6868 13.5042C59.6868 12.4278 60.6213 11.8688 62.24 11.8688V11.7853C62.24 11.2096 61.9313 10.9259 61.3305 10.9259C60.8966 10.9259 60.5212 11.0344 60.1874 11.2513L59.9871 10.6172C60.3877 10.3669 60.8966 10.2417 61.489 10.2417C62.6322 10.2417 63.2079 10.8425 63.2079 12.0523V13.6627C63.2079 14.1049 63.2246 14.447 63.2746 14.7057L62.3985 14.689Z" fill="black"/>
<mask id="mask0_2064_71593" style="mask-type:luminance" maskUnits="userSpaceOnUse" x="1" y="0" width="141" height="43">
<path fill-rule="evenodd" clip-rule="evenodd" d="M1 42.3824H141.803V0.662964H1V42.3824Z" fill="white"/>
</mask>
<g mask="url(#mask0_2064_71593)">
<path fill-rule="evenodd" clip-rule="evenodd" d="M64.9017 14.6809H65.8696V10.3171H64.9017V14.6809ZM65.3693 9.59925C65.0439 9.59925 64.7936 9.34894 64.7936 9.01518C64.7936 8.68143 65.0522 8.43945 65.386 8.43945C65.7198 8.43945 65.9868 8.68143 65.9784 9.01518C65.9784 9.36563 65.7281 9.59925 65.3693 9.59925Z" fill="black"/>
<path fill-rule="evenodd" clip-rule="evenodd" d="M67.5969 14.6806H68.5648V8.31421H67.5969V14.6806Z" fill="black"/>
<path fill-rule="evenodd" clip-rule="evenodd" d="M72.554 12.5113C71.4776 12.5113 70.9353 12.7699 70.9353 13.3957C70.9353 13.8546 71.2106 14.0799 71.6028 14.0799C72.0951 14.0799 72.554 13.7044 72.554 13.1871V12.5113ZM72.6874 14.689L72.6123 14.1884H72.5873C72.2869 14.5889 71.8614 14.7892 71.3107 14.7892C70.5263 14.7892 69.9756 14.2385 69.9756 13.5042C69.9756 12.4278 70.9102 11.8688 72.5289 11.8688V11.7854C72.5289 11.2096 72.2202 10.9259 71.6194 10.9259C71.1855 10.9259 70.81 11.0344 70.4763 11.2514L70.276 10.6089C70.6765 10.3586 71.1855 10.2334 71.7779 10.2334C72.921 10.2334 73.4968 10.8342 73.4968 12.044V13.6544C73.4968 14.0966 73.5135 14.4387 73.5552 14.6974H72.6874V14.689Z" fill="black"/>
<path fill-rule="evenodd" clip-rule="evenodd" d="M77.2331 10.9926C76.6741 10.9926 76.1651 11.4766 76.1651 12.1524V12.9201C76.1651 13.5208 76.624 14.0131 77.2164 14.0131C77.9424 14.0131 78.3762 13.4207 78.3762 12.4779C78.3762 11.5934 77.9257 10.9926 77.2331 10.9926ZM77.4338 14.7891C76.8164 14.7891 76.3575 14.5304 76.0571 14.0131H76.0404L75.982 14.6889H75.1559C75.181 14.3385 75.1893 13.9463 75.1893 13.5125V8.31421H76.1656V10.9592H76.1822C76.4743 10.4753 76.9332 10.2333 77.5757 10.2333C78.627 10.2333 79.3613 11.1344 79.3613 12.4444C79.3613 13.7961 78.5436 14.7891 77.4338 14.7891Z" fill="black"/>
<path fill-rule="evenodd" clip-rule="evenodd" d="M80.7965 14.681H81.7644V8.31458H80.7965V14.681Z" fill="black"/>
<path fill-rule="evenodd" clip-rule="evenodd" d="M86.1612 12.0437C86.1612 11.3679 85.8191 10.8923 85.2017 10.8923C84.6426 10.8923 84.2087 11.3762 84.142 12.0437H86.1612ZM87.046 12.7368H84.134C84.1507 13.5628 84.7014 14.0301 85.5107 14.0301C85.9446 14.0301 86.3368 13.955 86.6872 13.8215L86.8374 14.4973C86.4285 14.6809 85.9446 14.7643 85.3772 14.7643C84.0088 14.7643 83.1995 13.9049 83.1995 12.5616C83.1995 11.2265 84.0255 10.2169 85.2687 10.2169C86.3785 10.2169 87.0877 11.043 87.0877 12.2945C87.0877 12.4698 87.0794 12.62 87.046 12.7368Z" fill="black"/>
<path fill-rule="evenodd" clip-rule="evenodd" d="M92.9693 10.9425C92.2685 10.9425 91.8179 11.6017 91.8179 12.5112C91.8179 13.4123 92.2768 14.0631 92.961 14.0631C93.6452 14.0631 94.1041 13.3622 94.1041 12.4861C94.0958 11.6017 93.6535 10.9425 92.9693 10.9425ZM92.9279 14.7892C91.6512 14.7892 90.8252 13.838 90.8252 12.5447C90.8252 11.1929 91.6679 10.2334 93.003 10.2334C94.2629 10.2334 95.1056 11.1429 95.1056 12.4696C95.1056 13.8296 94.2378 14.7892 92.9279 14.7892Z" fill="black"/>
<path fill-rule="evenodd" clip-rule="evenodd" d="M100.322 14.6888H99.3536V12.1773C99.3536 11.4013 99.0532 11.0175 98.4692 11.0175C97.8934 11.0175 97.5013 11.5098 97.5013 12.0855V14.6805H96.5334V11.5682C96.5334 11.1844 96.525 10.7672 96.5 10.3166H97.3511L97.3928 10.9925H97.4178C97.6765 10.5252 98.2105 10.2249 98.8029 10.2249C99.7207 10.2249 100.322 10.9257 100.322 12.0689V14.6888Z" fill="black"/>
<path fill-rule="evenodd" clip-rule="evenodd" d="M106.672 11.051H105.604V13.1704C105.604 13.7127 105.796 13.9797 106.171 13.9797C106.338 13.9797 106.488 13.963 106.605 13.938L106.63 14.6723C106.438 14.7474 106.188 14.7807 105.879 14.7807C105.112 14.7807 104.661 14.3552 104.661 13.2538V11.051H104.027V10.3251H104.661V9.52409L105.612 9.23206V10.3168H106.68V11.051" fill="black"/>
<path fill-rule="evenodd" clip-rule="evenodd" d="M111.811 14.6893H110.843V12.1945C110.843 11.4102 110.543 11.018 109.959 11.018C109.458 11.018 108.991 11.3601 108.991 12.0526V14.681H108.023V8.31458H108.991V10.9346H109.007C109.316 10.459 109.75 10.2253 110.317 10.2253C111.244 10.2253 111.811 10.9429 111.811 12.086V14.6893Z" fill="black"/>
<path fill-rule="evenodd" clip-rule="evenodd" d="M115.883 12.0436C115.883 11.3678 115.541 10.8922 114.923 10.8922C114.364 10.8922 113.922 11.3761 113.864 12.0436H115.883ZM116.768 12.7367H113.856C113.872 13.5627 114.423 14.03 115.232 14.03C115.666 14.03 116.058 13.9549 116.409 13.8214L116.559 14.4972C116.15 14.6808 115.666 14.7642 115.099 14.7642C113.731 14.7642 112.921 13.9048 112.921 12.5614C112.921 11.2264 113.747 10.2168 114.99 10.2168C116.1 10.2168 116.809 11.0428 116.809 12.2944C116.809 12.4696 116.801 12.6198 116.768 12.7367Z" fill="black"/>
</g>
<rect width="75.416" height="12.0345" transform="translate(48.2016 4.67444)" fill="white"/>
<path d="M54.8917 9.87787H54.0439C53.9937 9.63399 53.906 9.41974 53.7806 9.23512C53.6575 9.0505 53.5071 8.89551 53.3293 8.77015C53.1538 8.64251 52.9589 8.54678 52.7447 8.48296C52.5304 8.41914 52.3071 8.38723 52.0746 8.38723C51.6506 8.38723 51.2666 8.49436 50.9224 8.70861C50.5805 8.92286 50.3082 9.23854 50.1053 9.65564C49.9047 10.0727 49.8044 10.5844 49.8044 11.1907C49.8044 11.797 49.9047 12.3087 50.1053 12.7258C50.3082 13.1429 50.5805 13.4586 50.9224 13.6728C51.2666 13.8871 51.6506 13.9942 52.0746 13.9942C52.3071 13.9942 52.5304 13.9623 52.7447 13.8985C52.9589 13.8347 53.1538 13.7401 53.3293 13.6147C53.5071 13.4871 53.6575 13.3309 53.7806 13.1463C53.906 12.9594 53.9937 12.7452 54.0439 12.5036H54.8917C54.8279 12.8614 54.7117 13.1816 54.543 13.4643C54.3744 13.7469 54.1647 13.9874 53.9139 14.1857C53.6632 14.3817 53.3817 14.531 53.0695 14.6335C52.7595 14.7361 52.4279 14.7874 52.0746 14.7874C51.4774 14.7874 50.9464 14.6415 50.4814 14.3498C50.0164 14.058 49.6506 13.6432 49.3839 13.1053C49.1173 12.5674 48.9839 11.9292 48.9839 11.1907C48.9839 10.4522 49.1173 9.81405 49.3839 9.27614C49.6506 8.73824 50.0164 8.32342 50.4814 8.03167C50.9464 7.73993 51.4774 7.59405 52.0746 7.59405C52.4279 7.59405 52.7595 7.64534 53.0695 7.7479C53.3817 7.85047 53.6632 8.0009 53.9139 8.1992C54.1647 8.39521 54.3744 8.63453 54.543 8.91716C54.7117 9.19751 54.8279 9.51774 54.8917 9.87787ZM58.2858 14.8011C57.8118 14.8011 57.3958 14.6882 57.0379 14.4626C56.6824 14.2369 56.4043 13.9213 56.2037 13.5156C56.0054 13.1098 55.9063 12.6358 55.9063 12.0933C55.9063 11.5463 56.0054 11.0688 56.2037 10.6608C56.4043 10.2528 56.6824 9.93599 57.0379 9.71034C57.3958 9.4847 57.8118 9.37187 58.2858 9.37187C58.7599 9.37187 59.1747 9.4847 59.5303 9.71034C59.8882 9.93599 60.1662 10.2528 60.3645 10.6608C60.5651 11.0688 60.6654 11.5463 60.6654 12.0933C60.6654 12.6358 60.5651 13.1098 60.3645 13.5156C60.1662 13.9213 59.8882 14.2369 59.5303 14.4626C59.1747 14.6882 58.7599 14.8011 58.2858 14.8011ZM58.2858 14.0763C58.646 14.0763 58.9423 13.9839 59.1747 13.7993C59.4072 13.6147 59.5793 13.372 59.691 13.0711C59.8027 12.7702 59.8585 12.4443 59.8585 12.0933C59.8585 11.7423 59.8027 11.4152 59.691 11.1121C59.5793 10.8089 59.4072 10.5639 59.1747 10.377C58.9423 10.1901 58.646 10.0967 58.2858 10.0967C57.9257 10.0967 57.6294 10.1901 57.3969 10.377C57.1644 10.5639 56.9924 10.8089 56.8807 11.1121C56.769 11.4152 56.7132 11.7423 56.7132 12.0933C56.7132 12.4443 56.769 12.7702 56.8807 13.0711C56.9924 13.372 57.1644 13.6147 57.3969 13.7993C57.6294 13.9839 57.9257 14.0763 58.2858 14.0763ZM61.897 14.6917V9.44025H62.6765V10.2608H62.7449C62.8543 9.98043 63.031 9.76276 63.2748 9.60777C63.5187 9.45051 63.8116 9.37187 64.1535 9.37187C64.4999 9.37187 64.7883 9.45051 65.0185 9.60777C65.251 9.76276 65.4322 9.98043 65.5621 10.2608H65.6168C65.7512 9.98955 65.953 9.77416 66.2219 9.61461C66.4909 9.45279 66.8134 9.37187 67.1895 9.37187C67.659 9.37187 68.043 9.51888 68.3416 9.81291C68.6402 10.1047 68.7895 10.5594 68.7895 11.177V14.6917H67.9826V11.177C67.9826 10.7896 67.8767 10.5126 67.6647 10.3463C67.4527 10.1799 67.2031 10.0967 66.9159 10.0967C66.5467 10.0967 66.2607 10.2084 66.0578 10.4317C65.855 10.6528 65.7535 10.9332 65.7535 11.2728V14.6917H64.933V11.095C64.933 10.7964 64.8361 10.5559 64.6424 10.3736C64.4487 10.189 64.1991 10.0967 63.8937 10.0967C63.684 10.0967 63.4879 10.1525 63.3056 10.2642C63.1255 10.3759 62.9797 10.5309 62.868 10.7292C62.7586 10.9252 62.7039 11.152 62.7039 11.4095V14.6917H61.897ZM70.2647 14.6917V9.44025H71.0716V14.6917H70.2647ZM70.675 8.56502C70.5177 8.56502 70.3821 8.51145 70.2682 8.40433C70.1565 8.2972 70.1006 8.16843 70.1006 8.018C70.1006 7.86756 70.1565 7.73879 70.2682 7.63166C70.3821 7.52454 70.5177 7.47097 70.675 7.47097C70.8323 7.47097 70.9668 7.52454 71.0784 7.63166C71.1924 7.73879 71.2494 7.86756 71.2494 8.018C71.2494 8.16843 71.1924 8.2972 71.0784 8.40433C70.9668 8.51145 70.8323 8.56502 70.675 8.56502ZM73.3563 11.5326V14.6917H72.5494V9.44025H73.3289V10.2608H73.3973C73.5204 9.99411 73.7073 9.77986 73.958 9.61803C74.2087 9.45393 74.5324 9.37187 74.9289 9.37187C75.2845 9.37187 75.5956 9.44481 75.8623 9.59068C76.129 9.73427 76.3364 9.95308 76.4845 10.2471C76.6327 10.5388 76.7068 10.9081 76.7068 11.3548V14.6917H75.8999V11.4095C75.8999 10.997 75.7928 10.6756 75.5785 10.4454C75.3643 10.2129 75.0703 10.0967 74.6965 10.0967C74.4389 10.0967 74.2087 10.1525 74.0059 10.2642C73.8053 10.3759 73.6469 10.5388 73.5306 10.7531C73.4144 10.9673 73.3563 11.2272 73.3563 11.5326ZM80.3009 16.7703C79.9111 16.7703 79.5761 16.7202 79.2957 16.6199C79.0154 16.5219 78.7817 16.392 78.5948 16.2301C78.4102 16.0706 78.2632 15.8997 78.1538 15.7173L78.7966 15.266C78.8695 15.3618 78.9618 15.4712 79.0735 15.5942C79.1852 15.7196 79.3379 15.8279 79.5316 15.919C79.7276 16.0125 79.9841 16.0592 80.3009 16.0592C80.7248 16.0592 81.0747 15.9566 81.3505 15.7515C81.6263 15.5464 81.7641 15.225 81.7641 14.7874V13.7207H81.6958C81.6365 13.8164 81.5522 13.9349 81.4428 14.0763C81.3356 14.2153 81.1807 14.3395 80.9778 14.4489C80.7772 14.556 80.506 14.6096 80.1641 14.6096C79.7402 14.6096 79.3595 14.5093 79.0222 14.3087C78.6872 14.1082 78.4216 13.8164 78.2256 13.4335C78.0319 13.0506 77.935 12.5856 77.935 12.0386C77.935 11.5007 78.0296 11.0323 78.2188 10.6334C78.4079 10.2323 78.6712 9.92231 79.0085 9.7035C79.3459 9.48242 79.7356 9.37187 80.1778 9.37187C80.5197 9.37187 80.7909 9.42885 80.9915 9.54282C81.1943 9.6545 81.3493 9.78214 81.4564 9.92573C81.5659 10.067 81.6502 10.1833 81.7094 10.2745H81.7915V9.44025H82.571V14.8421C82.571 15.2934 82.4684 15.6603 82.2633 15.943C82.0605 16.2279 81.7869 16.4364 81.4428 16.5686C81.1009 16.7031 80.7202 16.7703 80.3009 16.7703ZM80.2735 13.8848C80.5972 13.8848 80.8707 13.8107 81.094 13.6626C81.3174 13.5144 81.4872 13.3013 81.6035 13.0232C81.7197 12.7452 81.7778 12.4124 81.7778 12.0249C81.7778 11.6466 81.7208 11.3127 81.6069 11.0232C81.4929 10.7337 81.3243 10.5069 81.1009 10.3428C80.8775 10.1787 80.6017 10.0967 80.2735 10.0967C79.9316 10.0967 79.6467 10.1833 79.4188 10.3565C79.1931 10.5297 79.0233 10.7622 78.9094 11.054C78.7977 11.3457 78.7419 11.6694 78.7419 12.0249C78.7419 12.3896 78.7988 12.7121 78.9128 12.9925C79.029 13.2705 79.2 13.4893 79.4256 13.6489C79.6536 13.8062 79.9362 13.8848 80.2735 13.8848ZM90.6943 9.44025C90.6532 9.0938 90.4869 8.82485 90.1951 8.63339C89.9034 8.44194 89.5455 8.34621 89.1216 8.34621C88.8116 8.34621 88.5404 8.39635 88.3079 8.49664C88.0777 8.59693 87.8976 8.73482 87.7677 8.91032C87.6401 9.08583 87.5762 9.28526 87.5762 9.50863C87.5762 9.69553 87.6207 9.85621 87.7096 9.99069C87.8008 10.1229 87.917 10.2334 88.0583 10.3223C88.1996 10.4089 88.3478 10.4807 88.5028 10.5377C88.6578 10.5924 88.8002 10.6369 88.9301 10.671L89.6412 10.8625C89.8236 10.9104 90.0264 10.9765 90.2498 11.0608C90.4755 11.1451 90.6908 11.2602 90.896 11.4061C91.1034 11.5497 91.2743 11.7343 91.4088 11.96C91.5433 12.1856 91.6105 12.4625 91.6105 12.7908C91.6105 13.1691 91.5114 13.511 91.3131 13.8164C91.1171 14.1218 90.8299 14.3646 90.4515 14.5446C90.0754 14.7247 89.6185 14.8147 89.0806 14.8147C88.5791 14.8147 88.1449 14.7338 87.778 14.572C87.4133 14.4102 87.1261 14.1845 86.9164 13.8951C86.709 13.6056 86.5916 13.2694 86.5643 12.8865H87.4395C87.4623 13.1509 87.5512 13.3697 87.7062 13.5429C87.8634 13.7139 88.0617 13.8415 88.301 13.9258C88.5426 14.0079 88.8025 14.0489 89.0806 14.0489C89.4042 14.0489 89.6948 13.9965 89.9524 13.8916C90.2099 13.7845 90.4139 13.6364 90.5643 13.4472C90.7148 13.2557 90.79 13.0324 90.79 12.7771C90.79 12.5446 90.725 12.3554 90.5951 12.2095C90.4652 12.0637 90.2943 11.9451 90.0823 11.854C89.8703 11.7628 89.6412 11.683 89.3951 11.6147L88.5335 11.3685C87.9865 11.2112 87.5535 10.9867 87.2344 10.695C86.9153 10.4032 86.7557 10.0215 86.7557 9.54965C86.7557 9.15762 86.8617 8.81573 87.0737 8.52399C87.2879 8.22997 87.5751 8.00204 87.9352 7.84021C88.2976 7.67611 88.7022 7.59405 89.1489 7.59405C89.6002 7.59405 90.0014 7.67497 90.3524 7.83679C90.7034 7.99634 90.9814 8.21515 91.1866 8.49322C91.394 8.77129 91.5034 9.08696 91.5148 9.44025H90.6943ZM95.0286 14.8011C94.5545 14.8011 94.1385 14.6882 93.7807 14.4626C93.4251 14.2369 93.147 13.9213 92.9465 13.5156C92.7482 13.1098 92.649 12.6358 92.649 12.0933C92.649 11.5463 92.7482 11.0688 92.9465 10.6608C93.147 10.2528 93.4251 9.93599 93.7807 9.71034C94.1385 9.4847 94.5545 9.37187 95.0286 9.37187C95.5026 9.37187 95.9175 9.4847 96.273 9.71034C96.6309 9.93599 96.9089 10.2528 97.1072 10.6608C97.3078 11.0688 97.4081 11.5463 97.4081 12.0933C97.4081 12.6358 97.3078 13.1098 97.1072 13.5156C96.9089 13.9213 96.6309 14.2369 96.273 14.4626C95.9175 14.6882 95.5026 14.8011 95.0286 14.8011ZM95.0286 14.0763C95.3887 14.0763 95.685 13.9839 95.9175 13.7993C96.1499 13.6147 96.322 13.372 96.4337 13.0711C96.5454 12.7702 96.6012 12.4443 96.6012 12.0933C96.6012 11.7423 96.5454 11.4152 96.4337 11.1121C96.322 10.8089 96.1499 10.5639 95.9175 10.377C95.685 10.1901 95.3887 10.0967 95.0286 10.0967C94.6684 10.0967 94.3721 10.1901 94.1396 10.377C93.9072 10.5639 93.7351 10.8089 93.6234 11.1121C93.5117 11.4152 93.4559 11.7423 93.4559 12.0933C93.4559 12.4443 93.5117 12.7702 93.6234 13.0711C93.7351 13.372 93.9072 13.6147 94.1396 13.7993C94.3721 13.9839 94.6684 14.0763 95.0286 14.0763ZM100.773 14.8011C100.299 14.8011 99.8831 14.6882 99.5252 14.4626C99.1697 14.2369 98.8916 13.9213 98.691 13.5156C98.4927 13.1098 98.3936 12.6358 98.3936 12.0933C98.3936 11.5463 98.4927 11.0688 98.691 10.6608C98.8916 10.2528 99.1697 9.93599 99.5252 9.71034C99.8831 9.4847 100.299 9.37187 100.773 9.37187C101.247 9.37187 101.662 9.4847 102.018 9.71034C102.375 9.93599 102.654 10.2528 102.852 10.6608C103.052 11.0688 103.153 11.5463 103.153 12.0933C103.153 12.6358 103.052 13.1098 102.852 13.5156C102.654 13.9213 102.375 14.2369 102.018 14.4626C101.662 14.6882 101.247 14.8011 100.773 14.8011ZM100.773 14.0763C101.133 14.0763 101.43 13.9839 101.662 13.7993C101.895 13.6147 102.067 13.372 102.178 13.0711C102.29 12.7702 102.346 12.4443 102.346 12.0933C102.346 11.7423 102.29 11.4152 102.178 11.1121C102.067 10.8089 101.895 10.5639 101.662 10.377C101.43 10.1901 101.133 10.0967 100.773 10.0967C100.413 10.0967 100.117 10.1901 99.8842 10.377C99.6517 10.5639 99.4796 10.8089 99.368 11.1121C99.2563 11.4152 99.2004 11.7423 99.2004 12.0933C99.2004 12.4443 99.2563 12.7702 99.368 13.0711C99.4796 13.372 99.6517 13.6147 99.8842 13.7993C100.117 13.9839 100.413 14.0763 100.773 14.0763ZM105.191 11.5326V14.6917H104.384V9.44025H105.164V10.2608H105.232C105.355 9.99411 105.542 9.77986 105.793 9.61803C106.044 9.45393 106.367 9.37187 106.764 9.37187C107.119 9.37187 107.431 9.44481 107.697 9.59068C107.964 9.73427 108.171 9.95308 108.319 10.2471C108.468 10.5388 108.542 10.9081 108.542 11.3548V14.6917H107.735V11.4095C107.735 10.997 107.628 10.6756 107.413 10.4454C107.199 10.2129 106.905 10.0967 106.531 10.0967C106.274 10.0967 106.044 10.1525 105.841 10.2642C105.64 10.3759 105.482 10.5388 105.366 10.7531C105.249 10.9673 105.191 11.2272 105.191 11.5326ZM114.857 14.8011C114.383 14.8011 113.967 14.6882 113.609 14.4626C113.254 14.2369 112.976 13.9213 112.775 13.5156C112.577 13.1098 112.478 12.6358 112.478 12.0933C112.478 11.5463 112.577 11.0688 112.775 10.6608C112.976 10.2528 113.254 9.93599 113.609 9.71034C113.967 9.4847 114.383 9.37187 114.857 9.37187C115.331 9.37187 115.746 9.4847 116.102 9.71034C116.46 9.93599 116.738 10.2528 116.936 10.6608C117.136 11.0688 117.237 11.5463 117.237 12.0933C117.237 12.6358 117.136 13.1098 116.936 13.5156C116.738 13.9213 116.46 14.2369 116.102 14.4626C115.746 14.6882 115.331 14.8011 114.857 14.8011ZM114.857 14.0763C115.217 14.0763 115.514 13.9839 115.746 13.7993C115.979 13.6147 116.151 13.372 116.262 13.0711C116.374 12.7702 116.43 12.4443 116.43 12.0933C116.43 11.7423 116.374 11.4152 116.262 11.1121C116.151 10.8089 115.979 10.5639 115.746 10.377C115.514 10.1901 115.217 10.0967 114.857 10.0967C114.497 10.0967 114.201 10.1901 113.968 10.377C113.736 10.5639 113.564 10.8089 113.452 11.1121C113.34 11.4152 113.285 11.7423 113.285 12.0933C113.285 12.4443 113.34 12.7702 113.452 13.0711C113.564 13.372 113.736 13.6147 113.968 13.7993C114.201 13.9839 114.497 14.0763 114.857 14.0763ZM119.275 11.5326V14.6917H118.468V9.44025H119.248V10.2608H119.316C119.439 9.99411 119.626 9.77986 119.877 9.61803C120.128 9.45393 120.451 9.37187 120.848 9.37187C121.204 9.37187 121.515 9.44481 121.781 9.59068C122.048 9.73427 122.255 9.95308 122.404 10.2471C122.552 10.5388 122.626 10.9081 122.626 11.3548V14.6917H121.819V11.4095C121.819 10.997 121.712 10.6756 121.498 10.4454C121.283 10.2129 120.989 10.0967 120.615 10.0967C120.358 10.0967 120.128 10.1525 119.925 10.2642C119.724 10.3759 119.566 10.5388 119.45 10.7531C119.333 10.9673 119.275 11.2272 119.275 11.5326Z" fill="black"/>
</svg>
