<svg width="436" height="655" fill="none" xmlns="http://www.w3.org/2000/svg"><g opacity=".5" fill="#75007E"><path d="M228.204 654.07s-.292-.135-.384-.228c-.092-.061-.215-.185-.369-.339-.308-.278-.739-.71-1.293-1.265a46.979 46.979 0 0 1-1.877-2.037 97.115 97.115 0 0 1-2.308-2.746c-.8-1.049-1.661-2.16-2.523-3.394a88.367 88.367 0 0 1-2.585-3.95c-.43-.71-.861-1.419-1.261-2.16-.431-.74-.8-1.481-1.2-2.252-.4-.772-.77-1.543-1.139-2.345a81.905 81.905 0 0 1-1.046-2.407c-.646-1.605-1.293-3.24-1.816-4.876a36.432 36.432 0 0 1-.738-2.437c-.123-.401-.216-.803-.339-1.204a17.111 17.111 0 0 0-.307-1.203c-.093-.401-.185-.802-.277-1.173-.093-.401-.154-.771-.247-1.172-.153-.772-.307-1.512-.4-2.284-.123-.74-.246-1.45-.307-2.16-.093-.709-.154-1.388-.216-2.036-.061-.648-.092-1.265-.154-1.882-.03-.587-.092-1.142-.092-1.697 0-1.05-.061-1.975-.031-2.747.031-1.512.062-2.407.062-2.407l.954.031v2.345c0 .741.061 1.667.092 2.685 0 .525.062 1.08.123 1.666.062.587.093 1.204.185 1.821.092.648.185 1.296.277 1.975.092.678.246 1.388.369 2.098s.308 1.45.462 2.222c.092.37.154.771.246 1.141.092.371.215.772.308 1.142.092.401.184.771.307 1.172.123.402.246.772.37 1.173.215.802.492 1.574.769 2.376a68.442 68.442 0 0 0 1.877 4.721c.338.771.708 1.543 1.077 2.314.4.741.738 1.512 1.169 2.253.4.74.8 1.481 1.231 2.16.4.71.831 1.388 1.262 2.067a66.964 66.964 0 0 0 2.585 3.796 86.5 86.5 0 0 0 2.523 3.24c.831.987 1.6 1.851 2.277 2.622a59.83 59.83 0 0 0 1.846 1.913c.523.525.954.895 1.231 1.173.277.247.431.37.431.37l-1.124 1.925Z"/><path d="M208.034 603.824c4.708 2.931 7.078 6.757 5.047 11.725 0 0-.031-1.635-.246-2.592 0 0-.277 1.296-1.139 1.481 0 0 .8-1.357.462-2.406 0 0 0 .987-.554 1.326 0 0 .585-1.789.031-2.807 0 0 0 .894-.493 1.542 0 0 .093-1.851-.123-2.468 0 0-.123 1.018-.584 1.543 0 0 .338-1.913.307-2.376 0 0-.246 1.296-.769 1.728 0 0 .523-2.129.062-2.777 0 0 .184 1.049-.247 1.604 0 0 0-2.191-.553-2.715 0 0 .123.987-.308 1.481 0 0 .554-3.055-.985-3.95l.092-.339Z"/><path d="M207.819 603.7c7.231-.925 12.801 1.049 14.832 7.807 0 0-1.385-1.635-2.4-2.438 0 0 .8 1.574.03 2.469 0 0-.307-2.067-1.538-2.839 0 0 .8 1.018.554 1.821 0 0-.893-2.315-2.277-2.901 0 0 .769.895.769 1.975 0 0-1.446-1.975-2.154-2.438 0 0 .738 1.142.646 2.037 0 0-1.231-2.222-1.631-2.685 0 0 .831 1.512.616 2.376 0 0-1.231-2.623-2.247-2.9 0 0 1.077.925 1.046 1.851 0 0-1.784-2.252-2.8-2.314 0 0 .923.895.923 1.759 0 0-1.969-3.58-4.246-3.209l-.123-.371Z"/><path d="M207.634 604.071c4.647-5.616 10.093-7.992 16.155-4.444 0 0-2.123-.247-3.415-.154 0 0 1.661.586 1.692 1.759 0 0-1.631-1.296-3.046-1.018 0 0 1.261.185 1.631.956 0 0-2.216-1.08-3.631-.555 0 0 1.169.154 1.907.925 0 0-2.4-.462-3.231-.308 0 0 1.293.339 1.877 1.049 0 0-2.4-.802-3.015-.833 0 0 1.631.555 2.092 1.327 0 0-2.677-1.08-3.6-.587 0 0 1.416-.03 2.031.618 0 0-2.831-.402-3.631.215 0 0 1.292.031 1.877.648 0 0-3.846-1.265-5.293.556l-.4-.154Z"/><path d="M207.727 604.533c-.123-7.343 2.677-12.867 10.093-14.533 0 0-1.877 1.296-2.862 2.283 0 0 1.754-.709 2.616.093 0 0-2.216.185-3.201 1.389 0 0 1.17-.772 2-.463 0 0-2.554.771-3.354 2.129 0 0 1.047-.71 2.185-.679 0 0-2.277 1.358-2.862 2.036 0 0 1.293-.678 2.247-.555 0 0-2.524 1.111-3.047 1.512 0 0 1.724-.771 2.616-.494 0 0-2.923 1.08-3.354 2.099 0 0 1.108-1.019 2.092-.957 0 0-2.585 1.697-2.8 2.685 0 0 1.077-.895 2-.834 0 0-4.031 1.79-3.939 4.135l-.43.154Z"/><path d="M208.188 603.916c-1.754-6.356-5.446-10.892-12.093-11.756 0 0 1.908.987 2.985 1.728 0 0-1.662-.463-2.154.278 0 0 1.908 0 3.015.956 0 0-1.169-.555-1.784-.216 0 0 2.338.463 3.354 1.574 0 0-1.077-.525-2-.401 0 0 2.246.987 2.892 1.543 0 0-1.262-.463-2.031-.309 0 0 2.4.771 2.923 1.049 0 0-1.63-.524-2.307-.216 0 0 2.738.71 3.323 1.543 0 0-1.2-.802-2-.679 0 0 2.585 1.234 3.015 2.098 0 0-1.138-.678-1.877-.555 0 0 3.816 1.203 4.339 3.24l.4.123Z"/><path d="M207.88 603.639c-7.2 1.172-11.97 4.659-12.001 11.725 0 0 .862-1.944 1.6-3.024 0 0-.307 1.728.647 2.376 0 0-.277-2.067.677-3.147 0 0-.493 1.203 0 1.882 0 0 .184-2.469 1.354-3.425 0 0-.462 1.08-.185 2.098 0 0 .831-2.314 1.354-2.962 0 0-.369 1.296-.062 2.16 0 0 .554-2.499.8-3.024 0 0-.369 1.697.093 2.468 0 0 .431-2.869 1.323-3.425 0 0-.739 1.204-.492 2.068 0 0 1.077-2.654 2.03-3.024 0 0-.646 1.142-.4 1.944 0 0 .862-3.981 3.17-4.289l.092-.401Z"/><path d="M208.311 604.965c-1.477-3.178-5.846-5.153-10-4.505-4.124.494-8.032 3.641-8.309 7.344-.061 0 1.262-2.221 2.677-3.24-.061 0-1.046 1.728-.092 2.284-.031.031.215-2.006 1.969-2.901-.03 0-1.169 1.049-.892 1.728-.092.031 1.292-2.345 3.293-2.715 0 0-1.262.771-1.477 1.728-.062-.031 2.184-1.728 3.292-1.882 0-.031-1.385.802-1.569 1.635-.093-.031 2.185-1.697 2.985-1.882-.031-.031-1.754.987-1.847 1.789-.123-.031 2.493-1.882 3.816-1.542 0-.031-1.723.246-2.154.987-.092-.093 3.139-1.049 4.123-.401 0-.031-1.538.062-2.061.709-.216-.154 4.554-1.419 5.723.834.216.03.369.03.523.03Z"/><path d="M207.726 603.824c-4 3.857-5.477 8.115-2.431 12.528 0 0-.307-1.605-.307-2.592 0 0 .554 1.234 1.446 1.203 0 0-1.077-1.173-.954-2.252 0 0 .215.956.831 1.172 0 0-.954-1.635-.646-2.746 0 0 .184.895.8 1.388 0 0-.493-1.789-.431-2.437 0 0 .338.956.892 1.357 0 0-.738-1.789-.8-2.252 0 0 .493 1.234 1.108 1.512 0 0-.985-1.975-.646-2.716 0 0 .031 1.08.584 1.512 0 0-.461-2.129-.03-2.777 0 0 .092.988.615 1.389 0 0-1.169-2.87.123-4.073l-.154-.216ZM228.155 654.052s0-.031-.031-.123c-.031-.093-.062-.216-.123-.371-.092-.308-.246-.802-.369-1.388a29.583 29.583 0 0 1-.493-2.16c-.184-.833-.338-1.79-.492-2.839a47.903 47.903 0 0 1-.4-3.363 48.272 48.272 0 0 1-.215-3.796c0-.648-.031-1.327 0-2.005a46.33 46.33 0 0 1 .215-4.104c.061-.71.154-1.389.215-2.099.185-1.388.4-2.777.708-4.104.154-.678.277-1.357.462-2.005.092-.34.153-.648.246-.988.092-.308.184-.648.277-.956l.277-.926c.092-.308.215-.617.307-.895.216-.586.4-1.172.616-1.728.215-.555.431-1.111.646-1.635.215-.525.431-1.018.646-1.512.216-.494.431-.926.646-1.358.216-.432.4-.833.616-1.203.4-.741.738-1.42 1.077-1.913.646-1.049.985-1.636.985-1.636l.646.401s-.339.587-.954 1.636c-.308.524-.616 1.172-1.016 1.913-.184.37-.369.771-.584 1.203-.185.432-.4.864-.616 1.358-.184.463-.4.957-.615 1.481-.216.525-.4 1.049-.585 1.605-.215.555-.369 1.141-.554 1.728-.092.308-.184.586-.277.895-.092.308-.153.617-.246.925-.092.309-.184.617-.246.926-.062.309-.154.648-.215.956a43.25 43.25 0 0 0-.4 1.944 57.673 57.673 0 0 0-.585 4.043l-.185 2.036c-.03.679-.092 1.358-.092 2.037-.031.679-.031 1.327-.031 2.005 0 .648.031 1.296.062 1.944a65.6 65.6 0 0 0 .277 3.672c.123 1.173.307 2.253.461 3.271.185 1.018.37 1.913.554 2.746.185.803.369 1.512.523 2.068.154.555.308 1.018.4 1.296a10 10 0 0 0 .154.432l-1.692.586Z"/><path d="M234.37 611.254c2.124 3.919 2.185 7.529-1.2 10.183 0 0 .616-1.142.862-1.883 0 0-.708.803-1.385.556 0 0 1.108-.617 1.293-1.512 0 0-.4.679-.923.709 0 0 1.107-1.018 1.138-1.944 0 0-.338.618-.954.864 0 0 .8-1.265.923-1.758 0 0-.492.648-1.015.833 0 0 1.015-1.173 1.169-1.512 0 0-.677.802-1.231.895 0 0 1.231-1.266 1.17-1.913 0 0-.308.802-.831 1.018 0 0 .892-1.512.708-2.098 0 0-.308.74-.801.925 0 0 1.601-1.913.893-3.147l.184-.216Z"/><path d="M234.278 611.069c5.385 2.252 8.462 5.893 7.17 11.386 0 0-.308-1.697-.677-2.654 0 0-.061 1.42-.954 1.728 0 0 .616-1.543.062-2.592 0 0 .154 1.018-.339 1.481 0 0 .308-1.975-.431-2.931 0 0 .154.926-.246 1.666 0 0-.215-1.944-.523-2.561 0 0 .062 1.08-.369 1.697 0 0 .031-2.036-.062-2.499 0 0-.03 1.388-.523 1.913 0 0 .216-2.314-.4-2.901 0 0 .369 1.08 0 1.697 0 0-.338-2.283-1.015-2.715 0 0 .277 1.018-.062 1.605 0 0 .062-3.271-1.661-3.95l.03-.37Z"/><path d="M234.001 611.254c5.478-2.037 10.186-1.481 12.986 3.425 0 0-1.385-1.018-2.308-1.481 0 0 .892 1.08.462 1.913 0 0-.616-1.543-1.724-1.944 0 0 .801.648.739 1.327 0 0-1.108-1.636-2.308-1.852 0 0 .769.587.954 1.389 0 0-1.477-1.265-2.123-1.512 0 0 .769.741.892 1.481 0 0-1.354-1.512-1.754-1.79 0 0 .923 1.05.923 1.759 0 0-1.415-1.82-2.277-1.851 0 0 .985.524 1.17 1.265 0 0-1.785-1.419-2.585-1.296 0 0 .892.555 1.046 1.203 0 0-2.185-2.437-3.908-1.758l-.185-.278Z"/><path d="M233.878 611.624c2.862-5.153 7.016-7.868 12.801-6.048 0 0-1.846.155-2.892.432 0 0 1.508.216 1.785 1.111 0 0-1.631-.74-2.77-.309 0 0 1.108-.061 1.569.494 0 0-2.092-.494-3.2.124 0 0 1.016-.062 1.785.401 0 0-2.123.031-2.8.277 0 0 1.169.062 1.785.525 0 0-2.185-.247-2.708-.185 0 0 1.507.154 2.031.71 0 0-2.462-.432-3.17.123 0 0 1.169-.247 1.846.154 0 0-2.461.124-3.015.741 0 0 1.108-.185 1.723.216 0 0-3.508-.37-4.37 1.265l-.4-.031Z"/><path d="M234.463 611.377c1.323-5.122.554-9.75-3.693-13.021 0 0 .923 1.45 1.385 2.407 0 0-.954-.988-1.631-.679 0 0 1.323.771 1.723 1.882 0 0-.584-.864-1.138-.864 0 0 1.446 1.265 1.692 2.438 0 0-.523-.803-1.231-1.08 0 0 1.17 1.573 1.385 2.221 0 0-.677-.833-1.292-1.018 0 0 1.354 1.481 1.6 1.913 0 0-.923-1.018-1.508-1.08 0 0 1.6 1.574 1.692 2.407 0 0-.523-1.018-1.107-1.265 0 0 1.292 1.913 1.261 2.684 0 0-.523-.925-1.077-1.141 0 0 2.154 2.376 1.693 3.98l.246.216Z"/><path d="M234.34 611.038c-5.478-2.067-10.186-1.574-13.017 3.332 0 0 1.385-1.018 2.308-1.45 0 0-.923 1.08-.492 1.913 0 0 .615-1.543 1.723-1.944 0 0-.8.617-.769 1.327 0 0 1.108-1.635 2.308-1.851 0 0-.77.555-.954 1.388 0 0 1.508-1.265 2.123-1.512 0 0-.769.741-.892 1.481 0 0 1.384-1.512 1.754-1.789 0 0-.923 1.018-.923 1.759 0 0 1.446-1.821 2.277-1.852 0 0-1.016.525-1.17 1.234 0 0 1.816-1.419 2.616-1.296 0 0-.893.525-1.046 1.204 0 0 2.184-2.407 3.908-1.728l.246-.216Z"/><path d="M234.124 612.149c.247-2.808-2-5.925-5.138-7.159-3.078-1.296-7.016-.71-8.709 1.759-.031-.031 1.785-1.049 3.17-1.173-.031-.031-1.416.772-.985 1.543-.031 0 .954-1.296 2.523-1.203 0-.031-1.231.247-1.323.833-.061-.031 1.816-1.111 3.385-.556 0 0-1.2 0-1.723.587-.031-.062 2.215-.309 3.046 0 0-.031-1.292 0-1.723.493-.031-.061 2.185-.308 2.8-.092 0-.031-1.631-.031-2 .494-.062-.062 2.492-.309 3.262.462 0-.031-1.293-.524-1.908-.185-.031-.092 2.585.525 3.016 1.358 0 0-1.077-.556-1.724-.34-.092-.185 3.724.864 3.631 2.87.185.185.277.247.4.309Z"/><path d="M234.155 611.13c-4.308 1.08-7.047 3.426-6.708 7.715 0 0 .431-1.235.831-1.914 0 0-.123 1.08.523 1.42 0 0-.277-1.234.246-1.944 0 0-.246.74.092 1.142 0 0 0-1.512.646-2.16 0 0-.215.678 0 1.296 0 0 .401-1.451.677-1.852 0 0-.153.803.062 1.327 0 0 .215-1.543.338-1.882 0 0-.153 1.049.154 1.512 0 0 .123-1.759.647-2.129 0 0-.4.771-.185 1.296 0 0 .523-1.667 1.077-1.944 0 0-.339.709-.154 1.203 0 0 .339-2.468 1.723-2.777l.031-.309Z"/></g><g opacity=".15"><path d="M20.077 55.044 0 1.73h14.363l15.039 43.087h-6.166L38.5 1.73h14.061L32.26 55.044H20.077Z" fill="url(#a)"/><path d="M72.24 55.044V18.273h13.159v36.77h-13.16Zm6.542-41.057c-1.955 0-3.585-.652-4.888-1.956-1.303-1.353-1.955-3.032-1.955-5.038 0-1.955.652-3.61 1.955-4.963C75.197.677 76.827 0 78.782 0c2.055 0 3.71.677 4.963 2.03C85.048 3.384 85.7 5.038 85.7 6.993c0 2.006-.652 3.685-1.955 5.038-1.254 1.304-2.908 1.955-4.963 1.955Z" fill="url(#b)"/><path d="M129.945 55.796c-2.356 0-4.537-.451-6.542-1.354-2.006-.952-3.66-2.23-4.963-3.835-1.304-1.604-2.106-3.359-2.407-5.264V27.371c.301-1.904 1.103-3.609 2.407-5.113 1.353-1.504 3.033-2.657 5.038-3.459 2.005-.852 4.161-1.278 6.467-1.278 3.559 0 6.692.827 9.399 2.481 2.707 1.604 4.813 3.86 6.317 6.768 1.554 2.907 2.331 6.216 2.331 9.926 0 3.66-.777 6.943-2.331 9.85-1.504 2.858-3.61 5.114-6.317 6.768-2.707 1.655-5.84 2.482-9.399 2.482Zm-2.331-11.656c1.403 0 2.631-.325 3.684-.977a6.788 6.788 0 0 0 2.557-2.632c.601-1.153.902-2.456.902-3.91 0-1.404-.301-2.657-.902-3.76a6.657 6.657 0 0 0-2.557-2.707c-1.103-.652-2.356-.978-3.76-.978-1.403 0-2.657.326-3.759.978a6.961 6.961 0 0 0-2.482 2.632c-.601 1.102-.902 2.38-.902 3.835 0 1.504.301 2.832.902 3.985a6.788 6.788 0 0 0 2.557 2.632c1.103.602 2.356.902 3.76.902Zm-19.551 10.904V.226h13.084v27.07l-2.181 8.873 1.88 9.024v9.85h-12.783Z" fill="url(#c)"/><path d="M186.984 55.87c-4.111 0-7.745-.801-10.903-2.405-3.159-1.655-5.64-3.936-7.445-6.843-1.805-2.908-2.707-6.242-2.707-10.001 0-3.71.877-6.994 2.632-9.851 1.755-2.908 4.136-5.189 7.144-6.843 3.058-1.704 6.492-2.557 10.302-2.557 3.709 0 6.993.802 9.85 2.407 2.908 1.554 5.164 3.734 6.768 6.542 1.654 2.757 2.481 5.915 2.481 9.475 0 .752-.05 1.529-.15 2.33-.05.753-.2 1.63-.451 2.633l-32.41.15v-8.422l27.221-.226-5.865 3.685c-.05-2.056-.351-3.735-.902-5.038-.552-1.354-1.354-2.381-2.407-3.083-1.052-.702-2.381-1.053-3.985-1.053-1.654 0-3.083.401-4.286 1.203-1.203.802-2.131 1.93-2.783 3.384-.651 1.454-.977 3.208-.977 5.264 0 2.105.351 3.91 1.053 5.414.702 1.454 1.704 2.557 3.008 3.308 1.303.752 2.907 1.128 4.812 1.128 1.805 0 3.384-.3 4.737-.902 1.404-.602 2.657-1.529 3.76-2.782l6.843 6.843c-1.805 2.055-4.01 3.61-6.617 4.662-2.557 1.053-5.464 1.579-8.723 1.579Z" fill="url(#d)"/><path d="m222.906 47.223 17.446-21.13h16.167l-17.445 21.13h-16.168Zm0 7.82v-7.82l8.497-2.857h24.665v10.678h-33.162Zm1.279-26.092V18.273h32.334v7.82l-8.497 2.858h-23.837Z" fill="url(#e)"/><path d="M291.344 56.096c-2.256 0-4.487-.3-6.693-.902a30.843 30.843 0 0 1-6.091-2.406c-1.854-1.053-3.434-2.256-4.737-3.61l7.144-7.294a12.799 12.799 0 0 0 4.286 2.933 14.078 14.078 0 0 0 5.414 1.053c1.103 0 1.93-.15 2.482-.451.601-.301.902-.727.902-1.279 0-.802-.426-1.403-1.278-1.804-.803-.452-1.88-.828-3.234-1.128-1.303-.351-2.682-.752-4.136-1.203a22.903 22.903 0 0 1-4.211-1.956c-1.353-.802-2.456-1.93-3.308-3.383-.802-1.454-1.203-3.31-1.203-5.565 0-2.356.626-4.412 1.879-6.166 1.304-1.805 3.109-3.208 5.415-4.211 2.306-1.053 5.013-1.58 8.121-1.58 3.158 0 6.166.552 9.023 1.655 2.858 1.053 5.164 2.657 6.918 4.813l-7.218 7.294c-1.204-1.354-2.532-2.281-3.986-2.782-1.454-.552-2.782-.828-3.985-.828-1.153 0-1.98.176-2.482.527-.501.3-.752.727-.752 1.278 0 .652.401 1.178 1.203 1.58.853.4 1.93.776 3.234 1.127 1.353.3 2.732.702 4.136 1.203a16.974 16.974 0 0 1 4.136 2.106c1.353.852 2.431 2.005 3.233 3.459.852 1.454 1.278 3.334 1.278 5.64 0 3.66-1.403 6.567-4.211 8.722-2.807 2.106-6.567 3.158-11.279 3.158Z" fill="url(#f)"/><path d="M350.651 55.87c-4.511 0-8.497-.926-11.956-2.781-3.409-1.905-6.066-4.537-7.971-7.896-1.905-3.359-2.857-7.169-2.857-11.43V1.73h13.385v33.01c0 1.906.401 3.56 1.203 4.964a8.902 8.902 0 0 0 3.384 3.158c1.454.702 3.058 1.053 4.812 1.053 1.805 0 3.384-.351 4.738-1.053a8.504 8.504 0 0 0 3.233-3.158c.802-1.354 1.203-2.983 1.203-4.888V1.73h13.536v32.108c0 4.261-.953 8.072-2.858 11.43-1.905 3.309-4.562 5.916-7.971 7.82-3.358 1.855-7.319 2.783-11.881 2.783Z" fill="url(#g)"/><path d="M417.953 55.796c-2.356 0-4.537-.426-6.542-1.279-2.005-.852-3.66-2.005-4.963-3.459a10.113 10.113 0 0 1-2.406-5.188V27.973c.3-1.955 1.102-3.71 2.406-5.264 1.353-1.604 3.008-2.857 4.963-3.76 2.005-.952 4.186-1.428 6.542-1.428 3.559 0 6.692.827 9.399 2.481 2.707 1.604 4.813 3.86 6.317 6.768 1.554 2.907 2.331 6.216 2.331 9.926 0 3.66-.777 6.943-2.331 9.85-1.504 2.858-3.61 5.114-6.317 6.768-2.707 1.655-5.84 2.482-9.399 2.482Zm-2.482-11.656c1.454 0 2.733-.325 3.835-.977a6.788 6.788 0 0 0 2.557-2.632c.602-1.153.902-2.456.902-3.91 0-1.454-.3-2.733-.902-3.835a6.788 6.788 0 0 0-2.557-2.632c-1.102-.652-2.356-.978-3.759-.978-1.354 0-2.582.326-3.685.978-1.103.601-1.955 1.479-2.557 2.632-.601 1.102-.902 2.38-.902 3.835 0 1.453.301 2.757.902 3.91a6.96 6.96 0 0 0 2.482 2.632c1.103.652 2.331.977 3.684.977Zm-19.4 26.47V18.272h13.084v9.249l-2.181 8.873 1.88 8.948V70.61h-12.783Z" fill="url(#h)"/></g><defs><linearGradient id="a" x1="218" y1="0" x2="218" y2="70.609" gradientUnits="userSpaceOnUse"><stop stop-color="#75007E"/><stop offset="1" stop-color="#DCFFC0" stop-opacity="0"/></linearGradient><linearGradient id="b" x1="218" y1="0" x2="218" y2="70.609" gradientUnits="userSpaceOnUse"><stop stop-color="#75007E"/><stop offset="1" stop-color="#DCFFC0" stop-opacity="0"/></linearGradient><linearGradient id="c" x1="218" y1="0" x2="218" y2="70.609" gradientUnits="userSpaceOnUse"><stop stop-color="#75007E"/><stop offset="1" stop-color="#DCFFC0" stop-opacity="0"/></linearGradient><linearGradient id="d" x1="218" y1="0" x2="218" y2="70.609" gradientUnits="userSpaceOnUse"><stop stop-color="#75007E"/><stop offset="1" stop-color="#DCFFC0" stop-opacity="0"/></linearGradient><linearGradient id="e" x1="218" y1="0" x2="218" y2="70.609" gradientUnits="userSpaceOnUse"><stop stop-color="#75007E"/><stop offset="1" stop-color="#DCFFC0" stop-opacity="0"/></linearGradient><linearGradient id="f" x1="218" y1="0" x2="218" y2="70.609" gradientUnits="userSpaceOnUse"><stop stop-color="#75007E"/><stop offset="1" stop-color="#DCFFC0" stop-opacity="0"/></linearGradient><linearGradient id="g" x1="218" y1="0" x2="218" y2="70.609" gradientUnits="userSpaceOnUse"><stop stop-color="#75007E"/><stop offset="1" stop-color="#DCFFC0" stop-opacity="0"/></linearGradient><linearGradient id="h" x1="218" y1="0" x2="218" y2="70.609" gradientUnits="userSpaceOnUse"><stop stop-color="#75007E"/><stop offset="1" stop-color="#DCFFC0" stop-opacity="0"/></linearGradient></defs></svg>