<svg width="1490" height="101" viewBox="0 0 1490 101" fill="none" xmlns="http://www.w3.org/2000/svg">
<path d="M0.213135 4.39645L1489.21 1.60352L1489.39 96.6033L0.391327 99.3963L0.213135 4.39645Z" fill="#FFF2E5"/>
<path d="M0.393203 100.396L12.026 100.374L12.0222 98.3745L0.389451 98.3963L0.393203 100.396ZM35.2916 100.331L58.5572 100.287L58.5534 98.2872L35.2878 98.3308L35.2916 100.331ZM81.8227 100.244L105.088 100.2L105.085 98.1999L81.819 98.2435L81.8227 100.244ZM128.354 100.156L151.619 100.113L151.616 98.1126L128.35 98.1563L128.354 100.156ZM174.885 100.069L198.151 100.025L198.147 98.0253L174.881 98.069L174.885 100.069ZM221.416 99.9817L244.682 99.9381L244.678 97.9381L221.412 97.9817L221.416 99.9817ZM267.947 99.8944L291.213 99.8508L291.209 97.8508L267.944 97.8944L267.947 99.8944ZM314.479 99.8071L337.744 99.7635L337.74 97.7635L314.475 97.8071L314.479 99.8071ZM361.01 99.7199L384.275 99.6762L384.272 97.6762L361.006 97.7199L361.01 99.7199ZM407.541 99.6326L430.806 99.5889L430.803 97.5889L407.537 97.6326L407.541 99.6326ZM454.072 99.5453L477.338 99.5017L477.334 97.5017L454.068 97.5453L454.072 99.5453ZM500.603 99.458L523.869 99.4144L523.865 97.4144L500.599 97.458L500.603 99.458ZM547.134 99.3707L570.4 99.3271L570.396 97.3271L547.131 97.3708L547.134 99.3707ZM593.666 99.2835L616.931 99.2398L616.927 97.2398L593.662 97.2835L593.666 99.2835ZM640.197 99.1962L663.462 99.1525L663.459 97.1526L640.193 97.1962L640.197 99.1962ZM686.728 99.1089L709.993 99.0653L709.99 97.0653L686.724 97.1089L686.728 99.1089ZM733.259 99.0216L756.525 98.978L756.521 96.978L733.255 97.0216L733.259 99.0216ZM779.79 98.9344L803.056 98.8907L803.052 96.8907L779.786 96.9344L779.79 98.9344ZM826.321 98.8471L849.587 98.8034L849.583 96.8034L826.318 96.8471L826.321 98.8471ZM872.853 98.7598L896.118 98.7162L896.114 96.7162L872.849 96.7598L872.853 98.7598ZM919.384 98.6725L942.649 98.6289L942.646 96.6289L919.38 96.6725L919.384 98.6725ZM965.915 98.5852L989.18 98.5416L989.177 96.5416L965.911 96.5852L965.915 98.5852ZM1012.45 98.498L1035.71 98.4543L1035.71 96.4543L1012.44 96.498L1012.45 98.498ZM1058.98 98.4107L1082.24 98.367L1082.24 96.367L1058.97 96.4107L1058.98 98.4107ZM1105.51 98.3234L1128.77 98.2798L1128.77 96.2798L1105.5 96.3234L1105.51 98.3234ZM1152.04 98.2361L1175.31 98.1925L1175.3 96.1925L1152.04 96.2361L1152.04 98.2361ZM1198.57 98.1488L1221.84 98.1052L1221.83 96.1052L1198.57 96.1488L1198.57 98.1488ZM1245.1 98.0616L1268.37 98.0179L1268.36 96.0179L1245.1 96.0616L1245.1 98.0616ZM1291.63 97.9743L1314.9 97.9306L1314.89 95.9306L1291.63 95.9743L1291.63 97.9743ZM1338.16 97.887L1361.43 97.8434L1361.43 95.8434L1338.16 95.887L1338.16 97.887ZM1384.7 97.7997L1407.96 97.7561L1407.96 95.7561L1384.69 95.7997L1384.7 97.7997ZM1431.23 97.7124L1454.49 97.6688L1454.49 95.6688L1431.22 95.7124L1431.23 97.7124ZM1477.76 97.6252L1489.39 97.6033L1489.39 95.6034L1477.75 95.6252L1477.76 97.6252ZM1489.21 0.603526L1477.58 0.625346L1477.58 2.62534L1489.21 2.60352L1489.21 0.603526ZM1454.31 0.668985L1431.04 0.712625L1431.05 2.71262L1454.31 2.66898L1454.31 0.668985ZM1407.78 0.756264L1384.51 0.799904L1384.52 2.7999L1407.78 2.75626L1407.78 0.756264ZM1361.25 0.843543L1337.98 0.887183L1337.99 2.88718L1361.25 2.84354L1361.25 0.843543ZM1314.72 0.930822L1291.45 0.974462L1291.45 2.97446L1314.72 2.93082L1314.72 0.930822ZM1268.19 1.0181L1244.92 1.06174L1244.92 3.06174L1268.19 3.0181L1268.19 1.0181ZM1221.65 1.10538L1198.39 1.14902L1198.39 3.14902L1221.66 3.10538L1221.65 1.10538ZM1175.12 1.19266L1151.86 1.2363L1151.86 3.2363L1175.13 3.19266L1175.12 1.19266ZM1128.59 1.27994L1105.33 1.32358L1105.33 3.32357L1128.6 3.27993L1128.59 1.27994ZM1082.06 1.36722L1058.8 1.41086L1058.8 3.41085L1082.06 3.36721L1082.06 1.36722ZM1035.53 1.4545L1012.26 1.49814L1012.27 3.49813L1035.53 3.45449L1035.53 1.4545ZM988.998 1.54178L965.733 1.58542L965.737 3.58541L989.002 3.54177L988.998 1.54178ZM942.467 1.62905L919.202 1.67269L919.205 3.67269L942.471 3.62905L942.467 1.62905ZM895.936 1.71633L872.671 1.75997L872.674 3.75997L895.94 3.71633L895.936 1.71633ZM849.405 1.80361L826.139 1.84725L826.143 3.84725L849.409 3.80361L849.405 1.80361ZM802.874 1.89089L779.608 1.93453L779.612 3.93453L802.878 3.89089L802.874 1.89089ZM756.343 1.97817L733.077 2.02181L733.081 4.02181L756.346 3.97817L756.343 1.97817ZM709.812 2.06545L686.546 2.10909L686.55 4.10909L709.815 4.06545L709.812 2.06545ZM663.28 2.15273L640.015 2.19637L640.019 4.19637L663.284 4.15273L663.28 2.15273ZM616.749 2.24001L593.484 2.28365L593.487 4.28364L616.753 4.24L616.749 2.24001ZM570.218 2.32729L546.952 2.37093L546.956 4.37092L570.222 4.32728L570.218 2.32729ZM523.687 2.41457L500.421 2.45821L500.425 4.4582L523.691 4.41456L523.687 2.41457ZM477.156 2.50185L453.89 2.54548L453.894 4.54548L477.159 4.50184L477.156 2.50185ZM430.625 2.58912L407.359 2.63276L407.363 4.63276L430.628 4.58912L430.625 2.58912ZM384.093 2.6764L360.828 2.72004L360.832 4.72004L384.097 4.6764L384.093 2.6764ZM337.562 2.76368L314.297 2.80732L314.3 4.80732L337.566 4.76368L337.562 2.76368ZM291.031 2.85096L267.765 2.8946L267.769 4.8946L291.035 4.85096L291.031 2.85096ZM244.5 2.93824L221.234 2.98188L221.238 4.98188L244.504 4.93824L244.5 2.93824ZM197.969 3.02552L174.703 3.06916L174.707 5.06916L197.972 5.02552L197.969 3.02552ZM151.438 3.1128L128.172 3.15644L128.176 5.15643L151.441 5.1128L151.438 3.1128ZM104.906 3.20008L81.6408 3.24372L81.6445 5.24371L104.91 5.20007L104.906 3.20008ZM58.3752 3.28736L35.1096 3.331L35.1134 5.33099L58.379 5.28735L58.3752 3.28736ZM11.8441 3.37464L0.211259 3.39646L0.21501 5.39645L11.8478 5.37463L11.8441 3.37464Z" fill="#C56000"/>
</svg>
