<svg width="17" height="17" viewBox="0 0 17 17" fill="none" xmlns="http://www.w3.org/2000/svg">
<path d="M8.85414 15.5834H2.88997C2.0683 15.5834 1.39539 14.9247 1.39539 14.1172V3.6055C1.39539 1.74967 2.77664 0.906751 4.46955 1.7355L7.61455 3.27967C8.29455 3.61258 8.85414 4.498 8.85414 5.24883V15.5834Z" stroke="white" stroke-width="1.5" stroke-linecap="round" stroke-linejoin="round"/>
<path d="M15.562 10.6676V13.3451C15.562 14.8751 14.8537 15.5834 13.3237 15.5834H8.85413V7.38092L9.18704 7.45175L12.3745 8.16717L13.8125 8.48592C14.7475 8.69134 15.5125 9.173 15.555 10.533C15.562 10.5755 15.562 10.618 15.562 10.6676Z" stroke="white" stroke-width="1.5" stroke-linecap="round" stroke-linejoin="round"/>
<path d="M3.89587 6.37509H6.35379" stroke="white" stroke-width="1.5" stroke-linecap="round" stroke-linejoin="round"/>
<path d="M3.89587 9.20844H6.35379" stroke="white" stroke-width="1.5" stroke-linecap="round" stroke-linejoin="round"/>
<path d="M12.3745 8.16714V10.448C12.3745 11.3263 11.6591 12.0417 10.7808 12.0417C9.90243 12.0417 9.18701 11.3263 9.18701 10.448V7.45172L12.3745 8.16714Z" stroke="white" stroke-width="1.5" stroke-linecap="round" stroke-linejoin="round"/>
<path d="M15.5549 10.533C15.5124 11.3688 14.8183 12.0417 13.9683 12.0417C13.0899 12.0417 12.3745 11.3263 12.3745 10.448V8.16714L13.8124 8.48589C14.7474 8.69131 15.5124 9.17298 15.5549 10.533Z" stroke="white" stroke-width="1.5" stroke-linecap="round" stroke-linejoin="round"/>
</svg>
