<svg width="364" height="84" viewBox="0 0 364 84" fill="none" xmlns="http://www.w3.org/2000/svg">
<g opacity="0.1">
<path d="M39.9798 136C39.9798 136 40.6008 135.713 40.7973 135.516C40.9938 135.385 41.2558 135.123 41.5833 134.796C42.2383 134.206 43.1553 133.289 44.3342 132.11C45.5132 130.931 46.8232 129.49 48.3296 127.787C49.8361 126.085 51.4736 124.12 53.242 121.958C54.945 119.731 56.7789 117.373 58.6129 114.753C60.4468 112.133 62.2808 109.317 64.1147 106.369C65.0317 104.863 65.9487 103.357 66.8002 101.785C67.7172 100.213 68.5031 98.6407 69.3546 97.0032C70.2061 95.3658 70.9921 93.7283 71.7781 92.0254C72.564 90.3224 73.2845 88.6194 74.005 86.9165C75.3805 83.5106 76.7559 80.0391 77.8694 76.5677C78.4589 74.8648 78.9829 73.0963 79.4414 71.3933C79.7034 70.5419 79.8999 69.6904 80.1619 68.8389C80.3584 67.9874 80.5549 67.1359 80.8168 66.2845C81.0133 65.433 81.2098 64.5815 81.4063 63.7955C81.6028 62.944 81.7338 62.1581 81.9303 61.3066C82.2578 59.6691 82.5853 58.0972 82.7818 56.4597C83.0438 54.8877 83.3058 53.3813 83.4368 51.8748C83.6333 50.3684 83.7643 48.9274 83.8953 47.5519C84.0263 46.1765 84.0918 44.8665 84.2228 43.5565C84.2883 42.312 84.4193 41.1331 84.4193 39.9541C84.4193 37.7272 84.5503 35.7622 84.4848 34.1247C84.4193 30.9153 84.3538 29.0159 84.3538 29.0159L82.3233 29.0814C82.3233 29.0814 82.3233 30.9153 82.3233 34.0593C82.3233 35.6312 82.1923 37.5962 82.1268 39.7576C82.1268 40.8711 81.9958 42.0501 81.8648 43.2945C81.7338 44.539 81.6683 45.849 81.4718 47.1589C81.2753 48.5344 81.0788 49.9099 80.8823 51.3508C80.6858 52.7918 80.3583 54.2983 80.0964 55.8047C79.8344 57.3112 79.4414 58.8831 79.1139 60.5206C78.9174 61.3066 78.7864 62.1581 78.5899 62.944C78.3934 63.73 78.1314 64.5815 77.9349 65.3675C77.7384 66.219 77.5419 67.0049 77.2799 67.8564C77.0179 68.7079 76.7559 69.4939 76.4939 70.3454C76.0355 72.0483 75.446 73.6858 74.8565 75.3887C73.6775 78.7292 72.3021 82.1351 70.8611 85.41C70.1406 87.0475 69.3546 88.6849 68.5687 90.3224C67.7172 91.8944 66.9967 93.5318 66.0797 95.1038C65.2282 96.6757 64.3767 98.2477 63.4598 99.6887C62.6083 101.195 61.6913 102.636 60.7743 104.077C58.9404 106.959 57.1064 109.644 55.2725 112.133C53.4385 114.622 51.6046 116.915 49.9016 119.011C48.1331 121.107 46.4957 122.941 45.0547 124.578C43.5483 126.216 42.2383 127.525 41.1248 128.639C40.0113 129.752 39.0944 130.538 38.5049 131.128C37.9154 131.652 37.5879 131.914 37.5879 131.914L39.9798 136Z" fill="#F4F4F4"/>
<path d="M82.9127 29.3433C72.8914 35.5656 67.8481 43.6874 72.171 54.2327C72.171 54.2327 72.2364 50.7612 72.6949 48.7308C72.6949 48.7308 73.2844 51.4817 75.1184 51.8747C75.1184 51.8747 73.4154 48.9928 74.1359 46.7658C74.1359 46.7658 74.1359 48.8618 75.3149 49.5823C75.3149 49.5823 74.0704 45.7834 75.2494 43.6219C75.2494 43.6219 75.2494 45.5214 76.2973 46.8968C76.2973 46.8968 76.1008 42.9669 76.5593 41.657C76.5593 41.657 76.8213 43.8184 77.8038 44.9319C77.8038 44.9319 77.0833 40.871 77.1488 39.8885C77.1488 39.8885 77.6728 42.6394 78.7863 43.5564C78.7863 43.5564 77.6728 39.037 78.6553 37.6616C78.6553 37.6616 78.2623 39.8885 79.1793 41.0675C79.1793 41.0675 79.1793 36.4171 80.3583 35.3036C80.3583 35.3036 80.0963 37.3996 81.0132 38.4475C81.0132 38.4475 79.8343 31.9632 83.1092 30.0637L82.9127 29.3433Z" fill="#F4F4F4"/>
<path d="M83.371 29.0812C67.9789 27.1163 56.1237 31.3082 51.8008 45.6523C51.8008 45.6523 54.7482 42.1809 56.9096 40.4779C56.9096 40.4779 55.2067 43.8184 56.8442 45.7178C56.8442 45.7178 57.4991 41.3294 60.1191 39.692C60.1191 39.692 58.4161 41.8534 58.9401 43.5564C58.9401 43.5564 60.8396 38.644 63.787 37.3995C63.787 37.3995 62.1495 39.299 62.1495 41.5914C62.1495 41.5914 65.2279 37.3995 66.7344 36.417C66.7344 36.417 65.1624 38.8405 65.3589 40.7399C65.3589 40.7399 67.9789 36.0241 68.8304 35.0416C68.8304 35.0416 67.0619 38.251 67.5204 40.085C67.5204 40.085 70.1403 34.5176 72.3018 33.9281C72.3018 33.9281 70.0093 35.8931 70.0748 37.858C70.0748 37.858 73.8737 33.0766 76.0352 32.9456C76.0352 32.9456 74.0702 34.8451 74.0702 36.679C74.0702 36.679 78.2621 29.0812 83.109 29.8672L83.371 29.0812Z" fill="#F4F4F4"/>
<path d="M83.7641 29.8672C73.8738 17.9465 62.2806 12.9031 49.3774 20.4354C49.3774 20.4354 53.8968 19.9114 56.6478 20.1079C56.6478 20.1079 53.1109 21.3524 53.0454 23.8413C53.0454 23.8413 56.5168 21.0904 59.5297 21.6799C59.5297 21.6799 56.8443 22.0729 56.0583 23.7103C56.0583 23.7103 60.7742 21.4179 63.7871 22.5314C63.7871 22.5314 61.2982 22.8589 59.7262 24.4963C59.7262 24.4963 64.8351 23.5139 66.6035 23.8413C66.6035 23.8413 63.8526 24.5618 62.6081 26.0683C62.6081 26.0683 67.717 24.3653 69.027 24.2998C69.027 24.2998 65.5556 25.4788 64.5731 27.1163C64.5731 27.1163 70.2714 24.8238 72.2364 25.8718C72.2364 25.8718 69.2235 25.8063 67.9135 27.1818C67.9135 27.1818 73.9394 26.3303 75.6423 27.6403C75.6423 27.6403 72.8914 27.7058 71.6469 29.0157C71.6469 29.0157 79.8342 26.3303 82.9126 30.1947L83.7641 29.8672Z" fill="#F4F4F4"/>
<path d="M83.5675 30.8498C83.8295 15.2611 77.8691 3.53691 62.084 0C62.084 0 66.0794 2.75093 68.1753 4.84688C68.1753 4.84688 64.4419 3.34042 62.608 5.04338C62.608 5.04338 67.3239 5.43637 69.4198 7.99081C69.4198 7.99081 66.9309 6.35335 65.1624 7.00833C65.1624 7.00833 70.5988 8.64579 72.3017 11.5277C72.3017 11.5277 70.0748 10.0213 67.6513 10.0868C67.6513 10.0868 72.4982 12.9687 73.7427 14.4097C73.7427 14.4097 70.9918 12.9687 68.9613 13.2307C68.9613 13.2307 74.3322 15.5886 75.4457 16.4401C75.4457 16.4401 71.7778 14.8026 69.8783 15.3921C69.8783 15.3921 76.1007 17.6846 77.0176 19.846C77.0176 19.846 74.6597 17.6846 72.5637 17.8156C72.5637 17.8156 78.0656 21.418 78.5241 23.5139C78.5241 23.5139 76.2316 21.6145 74.2667 21.7455C74.2667 21.7455 82.847 25.5444 82.6505 30.5223L83.5675 30.8498Z" fill="#F4F4F4"/>
<path d="M82.585 29.5399C86.3184 16.0472 94.1782 6.41892 108.326 4.58496C108.326 4.58496 104.265 6.68091 101.972 8.25287C101.972 8.25287 105.509 7.2704 106.557 8.84236C106.557 8.84236 102.496 8.84236 100.139 10.8728C100.139 10.8728 102.627 9.69384 103.937 10.4143C103.937 10.4143 98.9596 11.3968 96.7981 13.7547C96.7981 13.7547 99.0905 12.6413 101.056 12.9033C101.056 12.9033 96.2741 14.9992 94.8987 16.1782C94.8987 16.1782 97.5841 15.1957 99.2216 15.5232C99.2216 15.5232 94.1127 17.1607 92.9992 17.7501C92.9992 17.7501 96.4706 16.6367 97.9116 17.2917C97.9116 17.2917 92.0822 18.7981 90.8378 20.5666C90.8378 20.5666 93.3922 18.8636 95.0952 19.1256C95.0952 19.1256 89.5933 21.7455 88.6763 23.5795C88.6763 23.5795 91.0998 22.1385 92.6717 22.4005C92.6717 22.4005 84.5499 24.955 83.4364 29.2779L82.585 29.5399Z" fill="#F4F4F4"/>
<path d="M83.2402 28.9502C98.5669 31.4391 108.719 38.8405 108.785 53.8396C108.785 53.8396 106.951 49.7132 105.379 47.4207C105.379 47.4207 106.034 51.0887 104.003 52.4641C104.003 52.4641 104.593 48.0757 102.562 45.7833C102.562 45.7833 103.61 48.3377 102.562 49.7787C102.562 49.7787 102.169 44.5388 99.6803 42.5084C99.6803 42.5084 100.663 44.8008 100.073 46.9623C100.073 46.9623 98.3049 42.0499 97.1914 40.6744C97.1914 40.6744 97.9774 43.4253 97.3224 45.2593C97.3224 45.2593 96.1434 39.9539 95.6194 38.8405C95.6194 38.8405 96.4054 42.4429 95.4229 44.0803C95.4229 44.0803 94.506 37.989 92.6065 36.81C92.6065 36.81 94.1785 39.3644 93.6545 41.1984C93.6545 41.1984 91.362 35.5655 89.3316 34.7796C89.3316 34.7796 90.7071 37.203 90.1831 38.906C90.1831 38.906 88.3491 30.4567 83.4367 29.8017L83.2402 28.9502Z" fill="#F4F4F4"/>
<path d="M82.3232 31.7667C85.4672 25.0204 94.7679 20.8285 103.61 22.204C112.387 23.2519 120.705 29.9328 121.295 37.7926C121.426 37.7926 118.609 33.0767 115.596 30.9153C115.727 30.9153 117.823 34.5832 115.793 35.7621C115.858 35.8276 115.334 31.5047 111.601 29.6053C111.667 29.6053 114.09 31.8322 113.5 33.2732C113.697 33.3387 110.75 28.2953 106.492 27.5093C106.492 27.5093 109.178 29.1468 109.636 31.1773C109.767 31.1118 104.986 27.5093 102.628 27.1818C102.628 27.1164 105.575 28.8848 105.968 30.6533C106.165 30.5878 101.318 27.0509 99.6148 26.6579C99.6803 26.5924 103.348 28.7538 103.545 30.4568C103.807 30.3913 98.2394 26.4614 95.4229 27.1818C95.4229 27.1164 99.0908 27.7058 100.008 29.2778C100.204 29.0813 93.327 27.0508 91.231 28.4263C91.231 28.3608 94.5059 28.5573 95.6194 29.9328C96.0779 29.6053 85.9256 26.9199 83.4367 31.7012C82.9782 31.7667 82.6507 31.7667 82.3232 31.7667Z" fill="#F4F4F4"/>
<path d="M83.5677 29.3433C92.0825 37.5306 95.2264 46.5693 88.7421 55.9356C88.7421 55.9356 89.3971 52.5297 89.3971 50.4338C89.3971 50.4338 88.2181 53.0537 86.3186 52.9882C86.3186 52.9882 88.6111 50.4992 88.3491 48.2068C88.3491 48.2068 87.8906 50.2373 86.5807 50.6957C86.5807 50.6957 88.6111 47.2243 87.9561 44.8664C87.9561 44.8664 87.5631 46.7658 86.2532 47.8138C86.2532 47.8138 87.3011 44.0149 87.1701 42.6394C87.1701 42.6394 86.4497 44.6699 85.2707 45.5214C85.2707 45.5214 86.8426 41.7225 86.9736 40.74C86.9736 40.74 85.9257 43.3599 84.6157 43.9494C84.6157 43.9494 86.7116 39.7575 85.9912 38.1855C85.9912 38.1855 85.9257 40.478 84.7467 41.395C84.7467 41.395 85.7292 36.8756 84.8122 35.5001C84.8122 35.5001 84.6157 37.5961 83.5022 38.4475C83.5022 38.4475 85.9912 32.3562 83.2402 29.8018L83.5677 29.3433Z" fill="#F4F4F4"/>
<path d="M40.0852 135.961C40.0852 135.961 40.0852 135.896 40.1507 135.699C40.2162 135.503 40.2817 135.241 40.4127 134.913C40.6092 134.258 40.9367 133.21 41.1987 131.966C41.5262 130.721 41.9192 129.149 42.2467 127.381C42.6397 125.612 42.9672 123.582 43.2947 121.355C43.6222 119.128 43.9496 116.77 44.1461 114.216C44.4081 111.661 44.5391 108.976 44.6046 106.159C44.6046 104.784 44.6701 103.343 44.6046 101.902C44.6046 100.461 44.5391 99.0199 44.4736 97.5789C44.4081 96.138 44.2771 94.6315 44.1461 93.1905C44.0151 91.6841 43.8186 90.2431 43.6876 88.7367C43.2947 85.7892 42.8362 82.8418 42.1812 80.0254C41.8537 78.5844 41.5917 77.1434 41.1987 75.768C41.0022 75.0475 40.8712 74.3925 40.6747 73.672C40.4782 73.017 40.2817 72.2965 40.0852 71.6416C39.8887 70.9866 39.6922 70.3316 39.4958 69.6766C39.2993 69.0216 39.0373 68.3666 38.8408 67.7772C38.3823 66.5327 37.9893 65.2882 37.5308 64.1092C37.0723 62.9303 36.6138 61.7513 36.1553 60.6378C35.6968 59.5244 35.2384 58.4764 34.7799 57.4284C34.3214 56.3804 33.8629 55.4635 33.4044 54.5465C32.9459 53.6295 32.5529 52.778 32.0944 51.992C31.2429 50.4201 30.5225 48.9791 29.802 47.9311C28.4265 45.7042 27.706 44.4597 27.706 44.4597L26.3306 45.3112C26.3306 45.3112 27.0511 46.5557 28.361 48.7826C29.016 49.8961 29.671 51.2716 30.5225 52.8435C30.9155 53.6295 31.3084 54.481 31.7669 55.398C32.1599 56.3149 32.6184 57.2319 33.0769 58.2799C33.4699 59.2624 33.9284 60.3103 34.3869 61.4238C34.8454 62.5373 35.2384 63.6508 35.6313 64.8297C36.0898 66.0087 36.4173 67.2532 36.8103 68.4976C37.0068 69.1526 37.2033 69.7421 37.3998 70.3971C37.5963 71.0521 37.7273 71.7071 37.9238 72.362C38.1203 73.017 38.3168 73.672 38.4478 74.327C38.5788 74.982 38.7753 75.7025 38.9063 76.3574C39.2338 77.7329 39.4957 79.1084 39.7577 80.4838C40.2817 83.3003 40.6747 86.1822 41.0022 89.0641C41.1332 90.5051 41.2642 91.9461 41.3952 93.387C41.4607 94.828 41.5917 96.269 41.5917 97.7099C41.6572 99.1509 41.6572 100.526 41.6572 101.967C41.6572 103.343 41.5917 104.718 41.5262 106.094C41.3952 108.779 41.1987 111.399 40.9367 113.888C40.6747 116.377 40.2817 118.669 39.9542 120.831C39.5612 122.992 39.1683 124.892 38.7753 126.66C38.3823 128.363 37.9893 129.87 37.6618 131.049C37.3343 132.228 37.0068 133.21 36.8103 133.8C36.6138 134.389 36.4828 134.717 36.4828 134.717L40.0852 135.961Z" fill="#F4F4F4"/>
<path d="M26.8542 45.1147C22.3348 53.433 22.2039 61.0964 29.4087 66.7292C29.4087 66.7292 28.0987 64.3058 27.5747 62.7338C27.5747 62.7338 29.0812 64.4368 30.5222 63.9128C30.5222 63.9128 28.1642 62.6028 27.7712 60.7034C27.7712 60.7034 28.6227 62.1443 29.7362 62.2098C29.7362 62.2098 27.3782 60.0484 27.3127 58.0834C27.3127 58.0834 28.0332 59.3934 29.3432 59.9174C29.3432 59.9174 27.6402 57.232 27.3782 56.184C27.3782 56.184 28.4262 57.5594 29.5397 57.9524C29.5397 57.9524 27.3782 55.4635 27.0507 54.743C27.0507 54.743 28.4917 56.446 29.6707 56.6425C29.6707 56.6425 27.0507 53.957 27.1817 52.5816C27.1817 52.5816 27.8367 54.2845 28.9502 54.743C28.9502 54.743 27.0507 51.5336 27.4437 50.2891C27.4437 50.2891 28.0987 51.8611 29.1467 52.2541C29.1467 52.2541 25.7408 48.1932 27.2472 45.5732L26.8542 45.1147Z" fill="#F4F4F4"/>
<path d="M27.0509 44.7217C15.5887 49.5031 9.03885 57.2319 11.7898 68.8906C11.7898 68.8906 12.4448 65.2882 13.2307 63.2577C13.2307 63.2577 13.3618 66.2707 15.2612 66.9256C15.2612 66.9256 13.9512 63.6507 15.1302 61.4238C15.1302 61.4238 14.8027 63.5852 15.8507 64.5677C15.8507 64.5677 15.1957 60.3758 16.7677 58.3453C16.7677 58.3453 16.4402 60.3103 17.2917 61.8823C17.2917 61.8823 17.7501 57.7559 18.4051 56.4459C18.4051 56.4459 18.2741 58.7383 19.1911 60.0483C19.1911 60.0483 19.1256 55.7254 19.3221 54.7429C19.3221 54.7429 19.3876 57.6904 20.4356 58.8038C20.4356 58.8038 19.9771 53.8915 21.2871 52.647C21.2871 52.647 20.5011 54.9394 21.2871 56.2494C21.2871 56.2494 22.0075 51.4025 23.4485 50.4855C23.4485 50.4855 22.859 52.647 23.5795 53.8915C23.5795 53.8915 23.4485 46.9486 27.1164 45.5077L27.0509 44.7217Z" fill="#F4F4F4"/>
<path d="M27.6403 45.1149C15.9816 40.792 5.96036 41.9709 0 52.3852C0 52.3852 2.94743 50.2237 4.91238 49.2413C4.91238 49.2413 3.01293 51.5337 3.9299 53.3022C3.9299 53.3022 5.23988 50.0272 7.59782 49.1758C7.59782 49.1758 5.89486 50.5512 6.02585 51.9922C6.02585 51.9922 8.3838 48.5208 10.9382 48.0623C10.9382 48.0623 9.30078 49.3068 8.90779 51.0097C8.90779 51.0097 12.0517 48.3243 13.4272 47.8003C13.4272 47.8003 11.7897 49.3723 11.5277 50.9442C11.5277 50.9442 14.4097 47.7348 15.2611 47.1453C15.2611 47.1453 13.2962 49.3723 13.2962 50.8787C13.2962 50.8787 16.3091 47.0143 18.1431 46.9488C18.1431 46.9488 16.0471 48.0623 15.6541 49.6343C15.6541 49.6343 19.453 46.6213 21.156 46.8833C21.156 46.8833 19.2565 48.0623 18.929 49.4378C18.929 49.4378 23.5794 44.2634 27.2473 45.7044L27.6403 45.1149Z" fill="#F4F4F4"/>
<path d="M27.9021 45.9008C21.8108 34.9626 12.9685 29.1987 0.654785 33.0631C0.654785 33.0631 4.5847 33.3906 6.81164 33.9801C6.81164 33.9801 3.60222 34.4386 3.01273 36.338C3.01273 36.338 6.48415 34.7661 8.90759 35.6831C8.90759 35.6831 6.54964 35.5521 5.56717 36.731C5.56717 36.731 10.0211 35.6831 12.379 36.993C12.379 36.993 10.2176 36.862 8.5801 37.8445C8.5801 37.8445 13.0995 37.91 14.5404 38.434C14.5404 38.434 12.0515 38.565 10.7415 39.5475C10.7415 39.5475 15.3919 39.0235 16.5054 39.1545C16.5054 39.1545 13.296 39.482 12.1825 40.6609C12.1825 40.6609 17.4224 39.744 18.9288 40.9229C18.9288 40.9229 16.4399 40.3989 14.9989 41.2504C14.9989 41.2504 20.2388 41.5124 21.4178 42.8224C21.4178 42.8224 19.0598 42.4294 17.7499 43.2809C17.7499 43.2809 25.2167 42.4949 27.0506 45.9663L27.9021 45.9008Z" fill="#F4F4F4"/>
<path d="M26.658 45.3769C23.8416 34.5042 25.4791 24.6794 34.5179 17.7366C34.5179 17.7366 32.5529 20.815 31.5704 22.8454C31.5704 22.8454 33.6009 20.7495 35.0418 21.4045C35.0418 21.4045 32.2254 23.0419 31.3739 25.3999C31.3739 25.3999 32.6184 23.5659 33.7974 23.5659C33.7974 23.5659 30.719 26.2514 30.195 28.7403C30.195 28.7403 31.3084 27.0373 32.8149 26.4479C32.8149 26.4479 30.326 29.7883 29.8675 31.1637C29.8675 31.1637 31.3084 29.3953 32.6184 29.0023C32.6184 29.0023 29.7365 32.1462 29.2125 33.0632C29.2125 33.0632 31.1774 30.9018 32.4219 30.7708C32.4219 30.7708 29.016 34.1112 28.8195 35.8796C28.8195 35.8796 29.933 33.7182 31.1774 33.1942C31.1774 33.1942 28.4265 37.2551 28.492 38.8926C28.492 38.8926 29.6055 36.9276 30.7844 36.4691C30.7844 36.4691 26.1996 41.5125 27.182 44.9184L26.658 45.3769Z" fill="#F4F4F4"/>
<path d="M26.9199 44.6562C38.5786 40.2678 48.5999 41.3158 54.6258 51.73C54.6258 51.73 51.6783 49.5686 49.7134 48.6516C49.7134 48.6516 51.6783 50.9441 50.7613 52.7125C50.7613 52.7125 49.4514 49.4376 47.0934 48.5861C47.0934 48.5861 48.7964 49.8961 48.7309 51.4025C48.7309 51.4025 46.373 47.9311 43.8185 47.4726C43.8185 47.4726 45.456 48.6516 45.849 50.4201C45.849 50.4201 42.6395 47.7346 41.3296 47.2106C41.3296 47.2106 42.967 48.7826 43.229 50.3546C43.229 50.3546 40.2816 47.1451 39.4956 46.5557C39.4956 46.5557 41.4606 48.7171 41.4606 50.2891C41.4606 50.2891 38.3821 46.4247 36.6137 46.3592C36.6137 46.3592 38.7751 47.4726 39.1026 48.9791C39.1026 48.9791 35.2382 45.9662 33.5353 46.2282C33.5353 46.2282 35.4347 47.3416 35.7622 48.7826C35.7622 48.7826 31.1118 43.6737 27.4439 45.1147L26.9199 44.6562Z" fill="#F4F4F4"/>
<path d="M27.3781 47.0141C26.8541 41.0538 31.6355 34.4385 38.3163 31.8185C44.8662 29.0676 53.25 30.312 56.8524 35.5519C56.9179 35.4864 53.0535 33.325 50.1061 33.063C50.1715 32.9975 53.119 34.7004 52.202 36.3379C52.2675 36.3379 50.1715 33.587 46.8311 33.7835C46.8311 33.718 49.4511 34.3075 49.6476 35.5519C49.7786 35.4864 45.7832 33.194 42.4427 34.373C42.4427 34.373 44.9972 34.3729 46.1107 35.6174C46.1762 35.4864 41.3948 34.9624 39.6263 35.6174C39.6263 35.5519 42.3772 35.6174 43.2942 36.6654C43.3597 36.5344 38.6438 36.0104 37.3339 36.4689C37.3339 36.4034 40.8053 36.4034 41.5913 37.5169C41.7223 37.3859 36.2859 36.8619 34.6484 38.4993C34.6484 38.4339 37.3994 37.3859 38.7093 38.1064C38.7748 37.9099 33.2075 39.2198 32.2905 40.9883C32.2905 40.9883 34.5829 39.8093 35.9584 40.2678C36.1549 39.8748 28.0331 42.1018 28.2296 46.3592C27.8366 46.7522 27.6401 46.8832 27.3781 47.0141Z" fill="#F4F4F4"/>
<path d="M27.313 44.8528C36.4828 47.1452 42.3121 52.1231 41.5916 61.2274C41.5916 61.2274 40.6747 58.6075 39.8232 57.1665C39.8232 57.1665 40.0852 59.4589 38.7097 60.1794C38.7097 60.1794 39.2992 57.5595 38.1857 56.053C38.1857 56.053 38.7097 57.625 37.9892 58.4765C37.9892 58.4765 37.9892 55.267 36.6138 53.8916C36.6138 53.8916 37.0723 55.3325 36.6138 56.6425C36.6138 56.6425 35.7623 53.5641 35.1728 52.7126C35.1728 52.7126 35.5003 54.4156 35.0418 55.529C35.0418 55.529 34.5833 52.2541 34.3213 51.5336C34.3213 51.5336 34.6488 53.7606 33.9938 54.743C33.9938 54.743 33.7318 51.0096 32.6184 50.2237C32.6184 50.2237 33.4698 51.8611 33.0114 52.9746C33.0114 52.9746 31.8979 49.4377 30.7189 48.8482C30.7189 48.8482 31.4394 50.3546 31.0464 51.4026C31.0464 51.4026 30.3259 46.1628 27.3785 45.5078L27.313 44.8528Z" fill="#F4F4F4"/>
<path d="M160.98 136C160.98 136 161.601 135.713 161.797 135.516C161.994 135.385 162.256 135.123 162.583 134.796C163.238 134.206 164.155 133.289 165.334 132.11C166.513 130.931 167.823 129.49 169.33 127.787C170.836 126.085 172.474 124.12 174.242 121.958C175.945 119.731 177.779 117.373 179.613 114.753C181.447 112.133 183.281 109.317 185.115 106.369C186.032 104.863 186.949 103.357 187.8 101.785C188.717 100.213 189.503 98.6407 190.355 97.0032C191.206 95.3658 191.992 93.7283 192.778 92.0254C193.564 90.3224 194.285 88.6194 195.005 86.9165C196.38 83.5106 197.756 80.0391 198.869 76.5677C199.459 74.8648 199.983 73.0963 200.441 71.3933C200.703 70.5419 200.9 69.6904 201.162 68.8389C201.358 67.9874 201.555 67.1359 201.817 66.2845C202.013 65.433 202.21 64.5815 202.406 63.7955C202.603 62.944 202.734 62.1581 202.93 61.3066C203.258 59.6691 203.585 58.0972 203.782 56.4597C204.044 54.8877 204.306 53.3813 204.437 51.8748C204.633 50.3684 204.764 48.9274 204.895 47.5519C205.026 46.1765 205.092 44.8665 205.223 43.5565C205.288 42.312 205.419 41.1331 205.419 39.9541C205.419 37.7272 205.55 35.7622 205.485 34.1247C205.419 30.9153 205.354 29.0159 205.354 29.0159L203.323 29.0814C203.323 29.0814 203.323 30.9153 203.323 34.0593C203.323 35.6312 203.192 37.5962 203.127 39.7576C203.127 40.8711 202.996 42.0501 202.865 43.2945C202.734 44.539 202.668 45.849 202.472 47.1589C202.275 48.5344 202.079 49.9099 201.882 51.3508C201.686 52.7918 201.358 54.2983 201.096 55.8047C200.834 57.3112 200.441 58.8831 200.114 60.5206C199.917 61.3066 199.786 62.1581 199.59 62.944C199.393 63.73 199.131 64.5815 198.935 65.3675C198.738 66.219 198.542 67.0049 198.28 67.8564C198.018 68.7079 197.756 69.4939 197.494 70.3454C197.035 72.0483 196.446 73.6858 195.856 75.3887C194.678 78.7292 193.302 82.1351 191.861 85.41C191.141 87.0475 190.355 88.6849 189.569 90.3224C188.717 91.8944 187.997 93.5318 187.08 95.1038C186.228 96.6757 185.377 98.2477 184.46 99.6887C183.608 101.195 182.691 102.636 181.774 104.077C179.94 106.959 178.106 109.644 176.272 112.133C174.439 114.622 172.605 116.915 170.902 119.011C169.133 121.107 167.496 122.941 166.055 124.578C164.548 126.216 163.238 127.525 162.125 128.639C161.011 129.752 160.094 130.538 159.505 131.128C158.915 131.652 158.588 131.914 158.588 131.914L160.98 136Z" fill="#F4F4F4"/>
<path d="M203.913 29.3433C193.891 35.5656 188.848 43.6874 193.171 54.2327C193.171 54.2327 193.236 50.7612 193.695 48.7308C193.695 48.7308 194.284 51.4817 196.118 51.8747C196.118 51.8747 194.415 48.9928 195.136 46.7658C195.136 46.7658 195.136 48.8618 196.315 49.5823C196.315 49.5823 195.07 45.7834 196.249 43.6219C196.249 43.6219 196.249 45.5214 197.297 46.8968C197.297 46.8968 197.101 42.9669 197.559 41.657C197.559 41.657 197.821 43.8184 198.804 44.9319C198.804 44.9319 198.083 40.871 198.149 39.8885C198.149 39.8885 198.673 42.6394 199.786 43.5564C199.786 43.5564 198.673 39.037 199.655 37.6616C199.655 37.6616 199.262 39.8885 200.179 41.0675C200.179 41.0675 200.179 36.4171 201.358 35.3036C201.358 35.3036 201.096 37.3996 202.013 38.4475C202.013 38.4475 200.834 31.9632 204.109 30.0637L203.913 29.3433Z" fill="#F4F4F4"/>
<path d="M204.371 29.0812C188.979 27.1163 177.124 31.3082 172.801 45.6523C172.801 45.6523 175.748 42.1809 177.91 40.4779C177.91 40.4779 176.207 43.8184 177.844 45.7178C177.844 45.7178 178.499 41.3294 181.119 39.692C181.119 39.692 179.416 41.8534 179.94 43.5564C179.94 43.5564 181.84 38.644 184.787 37.3995C184.787 37.3995 183.15 39.299 183.15 41.5914C183.15 41.5914 186.228 37.3995 187.734 36.417C187.734 36.417 186.162 38.8405 186.359 40.7399C186.359 40.7399 188.979 36.0241 189.83 35.0416C189.83 35.0416 188.062 38.251 188.52 40.085C188.52 40.085 191.14 34.5176 193.302 33.9281C193.302 33.9281 191.009 35.8931 191.075 37.858C191.075 37.858 194.874 33.0766 197.035 32.9456C197.035 32.9456 195.07 34.8451 195.07 36.679C195.07 36.679 199.262 29.0812 204.109 29.8672L204.371 29.0812Z" fill="#F4F4F4"/>
<path d="M204.764 29.8672C194.874 17.9465 183.281 12.9031 170.377 20.4354C170.377 20.4354 174.897 19.9114 177.648 20.1079C177.648 20.1079 174.111 21.3524 174.045 23.8413C174.045 23.8413 177.517 21.0904 180.53 21.6799C180.53 21.6799 177.844 22.0729 177.058 23.7103C177.058 23.7103 181.774 21.4179 184.787 22.5314C184.787 22.5314 182.298 22.8589 180.726 24.4963C180.726 24.4963 185.835 23.5139 187.604 23.8413C187.604 23.8413 184.853 24.5618 183.608 26.0683C183.608 26.0683 188.717 24.3653 190.027 24.2998C190.027 24.2998 186.556 25.4788 185.573 27.1163C185.573 27.1163 191.271 24.8238 193.236 25.8718C193.236 25.8718 190.223 25.8063 188.914 27.1818C188.914 27.1818 194.939 26.3303 196.642 27.6403C196.642 27.6403 193.891 27.7058 192.647 29.0157C192.647 29.0157 200.834 26.3303 203.913 30.1947L204.764 29.8672Z" fill="#F4F4F4"/>
<path d="M204.567 30.8498C204.829 15.2611 198.869 3.53691 183.084 0C183.084 0 187.079 2.75093 189.175 4.84688C189.175 4.84688 185.442 3.34042 183.608 5.04338C183.608 5.04338 188.324 5.43637 190.42 7.99081C190.42 7.99081 187.931 6.35335 186.162 7.00833C186.162 7.00833 191.599 8.64579 193.302 11.5277C193.302 11.5277 191.075 10.0213 188.651 10.0868C188.651 10.0868 193.498 12.9687 194.743 14.4097C194.743 14.4097 191.992 12.9687 189.961 13.2307C189.961 13.2307 195.332 15.5886 196.446 16.4401C196.446 16.4401 192.778 14.8026 190.878 15.3921C190.878 15.3921 197.101 17.6846 198.018 19.846C198.018 19.846 195.66 17.6846 193.564 17.8156C193.564 17.8156 199.066 21.418 199.524 23.5139C199.524 23.5139 197.232 21.6145 195.267 21.7455C195.267 21.7455 203.847 25.5444 203.651 30.5223L204.567 30.8498Z" fill="#F4F4F4"/>
<path d="M203.585 29.5399C207.318 16.0472 215.178 6.41892 229.326 4.58496C229.326 4.58496 225.265 6.68091 222.972 8.25287C222.972 8.25287 226.509 7.2704 227.557 8.84236C227.557 8.84236 223.496 8.84236 221.139 10.8728C221.139 10.8728 223.627 9.69384 224.937 10.4143C224.937 10.4143 219.96 11.3968 217.798 13.7547C217.798 13.7547 220.091 12.6413 222.056 12.9033C222.056 12.9033 217.274 14.9992 215.899 16.1782C215.899 16.1782 218.584 15.1957 220.222 15.5232C220.222 15.5232 215.113 17.1607 213.999 17.7501C213.999 17.7501 217.471 16.6367 218.912 17.2917C218.912 17.2917 213.082 18.7981 211.838 20.5666C211.838 20.5666 214.392 18.8636 216.095 19.1256C216.095 19.1256 210.593 21.7455 209.676 23.5795C209.676 23.5795 212.1 22.1385 213.672 22.4005C213.672 22.4005 205.55 24.955 204.436 29.2779L203.585 29.5399Z" fill="#F4F4F4"/>
<path d="M204.24 28.9502C219.567 31.4391 229.719 38.8405 229.785 53.8396C229.785 53.8396 227.951 49.7132 226.379 47.4207C226.379 47.4207 227.034 51.0887 225.003 52.4641C225.003 52.4641 225.593 48.0757 223.562 45.7833C223.562 45.7833 224.61 48.3377 223.562 49.7787C223.562 49.7787 223.169 44.5388 220.68 42.5084C220.68 42.5084 221.663 44.8008 221.073 46.9623C221.073 46.9623 219.305 42.0499 218.191 40.6744C218.191 40.6744 218.977 43.4253 218.322 45.2593C218.322 45.2593 217.143 39.9539 216.619 38.8405C216.619 38.8405 217.405 42.4429 216.423 44.0803C216.423 44.0803 215.506 37.989 213.606 36.81C213.606 36.81 215.178 39.3644 214.654 41.1984C214.654 41.1984 212.362 35.5655 210.332 34.7796C210.332 34.7796 211.707 37.203 211.183 38.906C211.183 38.906 209.349 30.4567 204.437 29.8017L204.24 28.9502Z" fill="#F4F4F4"/>
<path d="M203.323 31.7667C206.467 25.0204 215.768 20.8285 224.61 22.204C233.387 23.2519 241.705 29.9328 242.295 37.7926C242.426 37.7926 239.609 33.0767 236.596 30.9153C236.727 30.9153 238.823 34.5832 236.793 35.7621C236.858 35.8276 236.334 31.5047 232.601 29.6053C232.667 29.6053 235.09 31.8322 234.5 33.2732C234.697 33.3387 231.75 28.2953 227.492 27.5093C227.492 27.5093 230.178 29.1468 230.636 31.1773C230.767 31.1118 225.986 27.5093 223.628 27.1818C223.628 27.1164 226.575 28.8848 226.968 30.6533C227.165 30.5878 222.318 27.0509 220.615 26.6579C220.68 26.5924 224.348 28.7538 224.545 30.4568C224.807 30.3913 219.239 26.4614 216.423 27.1818C216.423 27.1164 220.091 27.7058 221.008 29.2778C221.204 29.0813 214.327 27.0508 212.231 28.4263C212.231 28.3608 215.506 28.5573 216.619 29.9328C217.078 29.6053 206.926 26.9199 204.437 31.7012C203.978 31.7667 203.651 31.7667 203.323 31.7667Z" fill="#F4F4F4"/>
<path d="M204.568 29.3433C213.083 37.5306 216.226 46.5693 209.742 55.9356C209.742 55.9356 210.397 52.5297 210.397 50.4338C210.397 50.4338 209.218 53.0537 207.319 52.9882C207.319 52.9882 209.611 50.4992 209.349 48.2068C209.349 48.2068 208.891 50.2373 207.581 50.6957C207.581 50.6957 209.611 47.2243 208.956 44.8664C208.956 44.8664 208.563 46.7658 207.253 47.8138C207.253 47.8138 208.301 44.0149 208.17 42.6394C208.17 42.6394 207.45 44.6699 206.271 45.5214C206.271 45.5214 207.843 41.7225 207.974 40.74C207.974 40.74 206.926 43.3599 205.616 43.9494C205.616 43.9494 207.712 39.7575 206.991 38.1855C206.991 38.1855 206.926 40.478 205.747 41.395C205.747 41.395 206.729 36.8756 205.812 35.5001C205.812 35.5001 205.616 37.5961 204.502 38.4475C204.502 38.4475 206.991 32.3562 204.24 29.8018L204.568 29.3433Z" fill="#F4F4F4"/>
<path d="M161.085 135.961C161.085 135.961 161.085 135.896 161.151 135.699C161.216 135.503 161.282 135.241 161.413 134.913C161.609 134.258 161.937 133.21 162.199 131.966C162.526 130.721 162.919 129.149 163.247 127.381C163.64 125.612 163.967 123.582 164.295 121.355C164.622 119.128 164.95 116.77 165.146 114.216C165.408 111.661 165.539 108.976 165.605 106.159C165.605 104.784 165.67 103.343 165.605 101.902C165.605 100.461 165.539 99.0199 165.474 97.5789C165.408 96.138 165.277 94.6315 165.146 93.1905C165.015 91.6841 164.819 90.2431 164.688 88.7367C164.295 85.7892 163.836 82.8418 163.181 80.0254C162.854 78.5844 162.592 77.1434 162.199 75.768C162.002 75.0475 161.871 74.3925 161.675 73.672C161.478 73.017 161.282 72.2965 161.085 71.6416C160.889 70.9866 160.692 70.3316 160.496 69.6766C160.299 69.0216 160.037 68.3666 159.841 67.7772C159.382 66.5327 158.989 65.2882 158.531 64.1092C158.072 62.9303 157.614 61.7513 157.155 60.6378C156.697 59.5244 156.238 58.4764 155.78 57.4284C155.321 56.3804 154.863 55.4635 154.404 54.5465C153.946 53.6295 153.553 52.778 153.094 51.992C152.243 50.4201 151.522 48.9791 150.802 47.9311C149.427 45.7042 148.706 44.4597 148.706 44.4597L147.331 45.3112C147.331 45.3112 148.051 46.5557 149.361 48.7826C150.016 49.8961 150.671 51.2716 151.522 52.8435C151.915 53.6295 152.308 54.481 152.767 55.398C153.16 56.3149 153.618 57.2319 154.077 58.2799C154.47 59.2624 154.928 60.3103 155.387 61.4238C155.845 62.5373 156.238 63.6508 156.631 64.8297C157.09 66.0087 157.417 67.2532 157.81 68.4976C158.007 69.1526 158.203 69.7421 158.4 70.3971C158.596 71.0521 158.727 71.7071 158.924 72.362C159.12 73.017 159.317 73.672 159.448 74.327C159.579 74.982 159.775 75.7025 159.906 76.3574C160.234 77.7329 160.496 79.1084 160.758 80.4838C161.282 83.3003 161.675 86.1822 162.002 89.0641C162.133 90.5051 162.264 91.9461 162.395 93.387C162.461 94.828 162.592 96.269 162.592 97.7099C162.657 99.1509 162.657 100.526 162.657 101.967C162.657 103.343 162.592 104.718 162.526 106.094C162.395 108.779 162.199 111.399 161.937 113.888C161.675 116.377 161.282 118.669 160.954 120.831C160.561 122.992 160.168 124.892 159.775 126.66C159.382 128.363 158.989 129.87 158.662 131.049C158.334 132.228 158.007 133.21 157.81 133.8C157.614 134.389 157.483 134.717 157.483 134.717L161.085 135.961Z" fill="#F4F4F4"/>
<path d="M147.854 45.1147C143.335 53.433 143.204 61.0964 150.409 66.7292C150.409 66.7292 149.099 64.3058 148.575 62.7338C148.575 62.7338 150.081 64.4368 151.522 63.9128C151.522 63.9128 149.164 62.6028 148.771 60.7034C148.771 60.7034 149.623 62.1443 150.736 62.2098C150.736 62.2098 148.378 60.0484 148.313 58.0834C148.313 58.0834 149.033 59.3934 150.343 59.9174C150.343 59.9174 148.64 57.232 148.378 56.184C148.378 56.184 149.426 57.5594 150.54 57.9524C150.54 57.9524 148.378 55.4635 148.051 54.743C148.051 54.743 149.492 56.446 150.671 56.6425C150.671 56.6425 148.051 53.957 148.182 52.5816C148.182 52.5816 148.837 54.2845 149.95 54.743C149.95 54.743 148.051 51.5336 148.444 50.2891C148.444 50.2891 149.099 51.8611 150.147 52.2541C150.147 52.2541 146.741 48.1932 148.247 45.5732L147.854 45.1147Z" fill="#F4F4F4"/>
<path d="M148.051 44.7217C136.589 49.5031 130.039 57.2319 132.79 68.8906C132.79 68.8906 133.445 65.2882 134.231 63.2577C134.231 63.2577 134.362 66.2707 136.261 66.9256C136.261 66.9256 134.951 63.6507 136.13 61.4238C136.13 61.4238 135.803 63.5852 136.851 64.5677C136.851 64.5677 136.196 60.3758 137.768 58.3453C137.768 58.3453 137.44 60.3103 138.292 61.8823C138.292 61.8823 138.75 57.7559 139.405 56.4459C139.405 56.4459 139.274 58.7383 140.191 60.0483C140.191 60.0483 140.126 55.7254 140.322 54.7429C140.322 54.7429 140.388 57.6904 141.436 58.8038C141.436 58.8038 140.977 53.8915 142.287 52.647C142.287 52.647 141.501 54.9394 142.287 56.2494C142.287 56.2494 143.008 51.4025 144.449 50.4855C144.449 50.4855 143.859 52.647 144.58 53.8915C144.58 53.8915 144.449 46.9486 148.116 45.5077L148.051 44.7217Z" fill="#F4F4F4"/>
<path d="M148.64 45.1149C136.982 40.792 126.96 41.9709 121 52.3852C121 52.3852 123.947 50.2237 125.912 49.2413C125.912 49.2413 124.013 51.5337 124.93 53.3022C124.93 53.3022 126.24 50.0272 128.598 49.1758C128.598 49.1758 126.895 50.5512 127.026 51.9922C127.026 51.9922 129.384 48.5208 131.938 48.0623C131.938 48.0623 130.301 49.3068 129.908 51.0097C129.908 51.0097 133.052 48.3243 134.427 47.8003C134.427 47.8003 132.79 49.3723 132.528 50.9442C132.528 50.9442 135.41 47.7348 136.261 47.1453C136.261 47.1453 134.296 49.3723 134.296 50.8787C134.296 50.8787 137.309 47.0143 139.143 46.9488C139.143 46.9488 137.047 48.0623 136.654 49.6343C136.654 49.6343 140.453 46.6213 142.156 46.8833C142.156 46.8833 140.257 48.0623 139.929 49.4378C139.929 49.4378 144.579 44.2634 148.247 45.7044L148.64 45.1149Z" fill="#F4F4F4"/>
<path d="M148.902 45.9008C142.811 34.9626 133.968 29.1987 121.655 33.0631C121.655 33.0631 125.585 33.3906 127.812 33.9801C127.812 33.9801 124.602 34.4386 124.013 36.338C124.013 36.338 127.484 34.7661 129.908 35.6831C129.908 35.6831 127.55 35.5521 126.567 36.731C126.567 36.731 131.021 35.6831 133.379 36.993C133.379 36.993 131.218 36.862 129.58 37.8445C129.58 37.8445 134.099 37.91 135.54 38.434C135.54 38.434 133.052 38.565 131.742 39.5475C131.742 39.5475 136.392 39.0235 137.505 39.1545C137.505 39.1545 134.296 39.482 133.183 40.6609C133.183 40.6609 138.422 39.744 139.929 40.9229C139.929 40.9229 137.44 40.3989 135.999 41.2504C135.999 41.2504 141.239 41.5124 142.418 42.8224C142.418 42.8224 140.06 42.4294 138.75 43.2809C138.75 43.2809 146.217 42.4949 148.051 45.9663L148.902 45.9008Z" fill="#F4F4F4"/>
<path d="M147.658 45.3769C144.842 34.5042 146.479 24.6794 155.518 17.7366C155.518 17.7366 153.553 20.815 152.57 22.8454C152.57 22.8454 154.601 20.7495 156.042 21.4045C156.042 21.4045 153.225 23.0419 152.374 25.3999C152.374 25.3999 153.618 23.5659 154.797 23.5659C154.797 23.5659 151.719 26.2514 151.195 28.7403C151.195 28.7403 152.308 27.0373 153.815 26.4479C153.815 26.4479 151.326 29.7883 150.867 31.1637C150.867 31.1637 152.308 29.3953 153.618 29.0023C153.618 29.0023 150.736 32.1462 150.212 33.0632C150.212 33.0632 152.177 30.9018 153.422 30.7708C153.422 30.7708 150.016 34.1112 149.819 35.8796C149.819 35.8796 150.933 33.7182 152.177 33.1942C152.177 33.1942 149.427 37.2551 149.492 38.8926C149.492 38.8926 150.605 36.9276 151.784 36.4691C151.784 36.4691 147.2 41.5125 148.182 44.9184L147.658 45.3769Z" fill="#F4F4F4"/>
<path d="M147.92 44.6562C159.579 40.2678 169.6 41.3158 175.626 51.73C175.626 51.73 172.678 49.5686 170.713 48.6516C170.713 48.6516 172.678 50.9441 171.761 52.7125C171.761 52.7125 170.451 49.4376 168.093 48.5861C168.093 48.5861 169.796 49.8961 169.731 51.4025C169.731 51.4025 167.373 47.9311 164.819 47.4726C164.819 47.4726 166.456 48.6516 166.849 50.4201C166.849 50.4201 163.64 47.7346 162.33 47.2106C162.33 47.2106 163.967 48.7826 164.229 50.3546C164.229 50.3546 161.282 47.1451 160.496 46.5557C160.496 46.5557 162.461 48.7171 162.461 50.2891C162.461 50.2891 159.382 46.4247 157.614 46.3592C157.614 46.3592 159.775 47.4726 160.103 48.9791C160.103 48.9791 156.238 45.9662 154.535 46.2282C154.535 46.2282 156.435 47.3416 156.762 48.7826C156.762 48.7826 152.112 43.6737 148.444 45.1147L147.92 44.6562Z" fill="#F4F4F4"/>
<path d="M148.378 47.0141C147.854 41.0538 152.635 34.4385 159.316 31.8185C165.866 29.0676 174.25 30.312 177.852 35.5519C177.918 35.4864 174.053 33.325 171.106 33.063C171.172 32.9975 174.119 34.7004 173.202 36.3379C173.267 36.3379 171.172 33.587 167.831 33.7835C167.831 33.718 170.451 34.3075 170.648 35.5519C170.779 35.4864 166.783 33.194 163.443 34.373C163.443 34.373 165.997 34.3729 167.111 35.6174C167.176 35.4864 162.395 34.9624 160.626 35.6174C160.626 35.5519 163.377 35.6174 164.294 36.6654C164.36 36.5344 159.644 36.0104 158.334 36.4689C158.334 36.4034 161.805 36.4034 162.591 37.5169C162.722 37.3859 157.286 36.8619 155.648 38.4993C155.648 38.4339 158.399 37.3859 159.709 38.1064C159.775 37.9099 154.207 39.2198 153.29 40.9883C153.29 40.9883 155.583 39.8093 156.958 40.2678C157.155 39.8748 149.033 42.1018 149.23 46.3592C148.837 46.7522 148.64 46.8832 148.378 47.0141Z" fill="#F4F4F4"/>
<path d="M148.313 44.8528C157.483 47.1452 163.312 52.1231 162.592 61.2274C162.592 61.2274 161.675 58.6075 160.823 57.1665C160.823 57.1665 161.085 59.4589 159.71 60.1794C159.71 60.1794 160.299 57.5595 159.186 56.053C159.186 56.053 159.71 57.625 158.989 58.4765C158.989 58.4765 158.989 55.267 157.614 53.8916C157.614 53.8916 158.072 55.3325 157.614 56.6425C157.614 56.6425 156.762 53.5641 156.173 52.7126C156.173 52.7126 156.5 54.4156 156.042 55.529C156.042 55.529 155.583 52.2541 155.321 51.5336C155.321 51.5336 155.649 53.7606 154.994 54.743C154.994 54.743 154.732 51.0096 153.618 50.2237C153.618 50.2237 154.47 51.8611 154.011 52.9746C154.011 52.9746 152.898 49.4377 151.719 48.8482C151.719 48.8482 152.439 50.3546 152.046 51.4026C152.046 51.4026 151.326 46.1628 148.378 45.5078L148.313 44.8528Z" fill="#F4F4F4"/>
<path d="M281.98 136C281.98 136 282.601 135.713 282.797 135.516C282.994 135.385 283.256 135.123 283.583 134.796C284.238 134.206 285.155 133.289 286.334 132.11C287.513 130.931 288.823 129.49 290.33 127.787C291.836 126.085 293.474 124.12 295.242 121.958C296.945 119.731 298.779 117.373 300.613 114.753C302.447 112.133 304.281 109.317 306.115 106.369C307.032 104.863 307.949 103.357 308.8 101.785C309.717 100.213 310.503 98.6407 311.355 97.0032C312.206 95.3658 312.992 93.7283 313.778 92.0254C314.564 90.3224 315.285 88.6194 316.005 86.9165C317.38 83.5106 318.756 80.0391 319.869 76.5677C320.459 74.8648 320.983 73.0963 321.441 71.3933C321.703 70.5419 321.9 69.6904 322.162 68.8389C322.358 67.9874 322.555 67.1359 322.817 66.2845C323.013 65.433 323.21 64.5815 323.406 63.7955C323.603 62.944 323.734 62.1581 323.93 61.3066C324.258 59.6691 324.585 58.0972 324.782 56.4597C325.044 54.8877 325.306 53.3813 325.437 51.8748C325.633 50.3684 325.764 48.9274 325.895 47.5519C326.026 46.1765 326.092 44.8665 326.223 43.5565C326.288 42.312 326.419 41.1331 326.419 39.9541C326.419 37.7272 326.55 35.7622 326.485 34.1247C326.419 30.9153 326.354 29.0159 326.354 29.0159L324.323 29.0814C324.323 29.0814 324.323 30.9153 324.323 34.0593C324.323 35.6312 324.192 37.5962 324.127 39.7576C324.127 40.8711 323.996 42.0501 323.865 43.2945C323.734 44.539 323.668 45.849 323.472 47.1589C323.275 48.5344 323.079 49.9099 322.882 51.3508C322.686 52.7918 322.358 54.2983 322.096 55.8047C321.834 57.3112 321.441 58.8831 321.114 60.5206C320.917 61.3066 320.786 62.1581 320.59 62.944C320.393 63.73 320.131 64.5815 319.935 65.3675C319.738 66.219 319.542 67.0049 319.28 67.8564C319.018 68.7079 318.756 69.4939 318.494 70.3454C318.035 72.0483 317.446 73.6858 316.856 75.3887C315.678 78.7292 314.302 82.1351 312.861 85.41C312.141 87.0475 311.355 88.6849 310.569 90.3224C309.717 91.8944 308.997 93.5318 308.08 95.1038C307.228 96.6757 306.377 98.2477 305.46 99.6887C304.608 101.195 303.691 102.636 302.774 104.077C300.94 106.959 299.106 109.644 297.272 112.133C295.439 114.622 293.605 116.915 291.902 119.011C290.133 121.107 288.496 122.941 287.055 124.578C285.548 126.216 284.238 127.525 283.125 128.639C282.011 129.752 281.094 130.538 280.505 131.128C279.915 131.652 279.588 131.914 279.588 131.914L281.98 136Z" fill="#F4F4F4"/>
<path d="M324.913 29.3433C314.891 35.5656 309.848 43.6874 314.171 54.2327C314.171 54.2327 314.236 50.7612 314.695 48.7308C314.695 48.7308 315.284 51.4817 317.118 51.8747C317.118 51.8747 315.415 48.9928 316.136 46.7658C316.136 46.7658 316.136 48.8618 317.315 49.5823C317.315 49.5823 316.07 45.7834 317.249 43.6219C317.249 43.6219 317.249 45.5214 318.297 46.8968C318.297 46.8968 318.101 42.9669 318.559 41.657C318.559 41.657 318.821 43.8184 319.804 44.9319C319.804 44.9319 319.083 40.871 319.149 39.8885C319.149 39.8885 319.673 42.6394 320.786 43.5564C320.786 43.5564 319.673 39.037 320.655 37.6616C320.655 37.6616 320.262 39.8885 321.179 41.0675C321.179 41.0675 321.179 36.4171 322.358 35.3036C322.358 35.3036 322.096 37.3996 323.013 38.4475C323.013 38.4475 321.834 31.9632 325.109 30.0637L324.913 29.3433Z" fill="#F4F4F4"/>
<path d="M325.371 29.0812C309.979 27.1163 298.124 31.3082 293.801 45.6523C293.801 45.6523 296.748 42.1809 298.91 40.4779C298.91 40.4779 297.207 43.8184 298.844 45.7178C298.844 45.7178 299.499 41.3294 302.119 39.692C302.119 39.692 300.416 41.8534 300.94 43.5564C300.94 43.5564 302.84 38.644 305.787 37.3995C305.787 37.3995 304.15 39.299 304.15 41.5914C304.15 41.5914 307.228 37.3995 308.734 36.417C308.734 36.417 307.162 38.8405 307.359 40.7399C307.359 40.7399 309.979 36.0241 310.83 35.0416C310.83 35.0416 309.062 38.251 309.52 40.085C309.52 40.085 312.14 34.5176 314.302 33.9281C314.302 33.9281 312.009 35.8931 312.075 37.858C312.075 37.858 315.874 33.0766 318.035 32.9456C318.035 32.9456 316.07 34.8451 316.07 36.679C316.07 36.679 320.262 29.0812 325.109 29.8672L325.371 29.0812Z" fill="#F4F4F4"/>
<path d="M325.764 29.8672C315.874 17.9465 304.281 12.9031 291.377 20.4354C291.377 20.4354 295.897 19.9114 298.648 20.1079C298.648 20.1079 295.111 21.3524 295.045 23.8413C295.045 23.8413 298.517 21.0904 301.53 21.6799C301.53 21.6799 298.844 22.0729 298.058 23.7103C298.058 23.7103 302.774 21.4179 305.787 22.5314C305.787 22.5314 303.298 22.8589 301.726 24.4963C301.726 24.4963 306.835 23.5139 308.604 23.8413C308.604 23.8413 305.853 24.5618 304.608 26.0683C304.608 26.0683 309.717 24.3653 311.027 24.2998C311.027 24.2998 307.556 25.4788 306.573 27.1163C306.573 27.1163 312.271 24.8238 314.236 25.8718C314.236 25.8718 311.223 25.8063 309.914 27.1818C309.914 27.1818 315.939 26.3303 317.642 27.6403C317.642 27.6403 314.891 27.7058 313.647 29.0157C313.647 29.0157 321.834 26.3303 324.913 30.1947L325.764 29.8672Z" fill="#F4F4F4"/>
<path d="M325.567 30.8498C325.829 15.2611 319.869 3.53691 304.084 0C304.084 0 308.079 2.75093 310.175 4.84688C310.175 4.84688 306.442 3.34042 304.608 5.04338C304.608 5.04338 309.324 5.43637 311.42 7.99081C311.42 7.99081 308.931 6.35335 307.162 7.00833C307.162 7.00833 312.599 8.64579 314.302 11.5277C314.302 11.5277 312.075 10.0213 309.651 10.0868C309.651 10.0868 314.498 12.9687 315.743 14.4097C315.743 14.4097 312.992 12.9687 310.961 13.2307C310.961 13.2307 316.332 15.5886 317.446 16.4401C317.446 16.4401 313.778 14.8026 311.878 15.3921C311.878 15.3921 318.101 17.6846 319.018 19.846C319.018 19.846 316.66 17.6846 314.564 17.8156C314.564 17.8156 320.066 21.418 320.524 23.5139C320.524 23.5139 318.232 21.6145 316.267 21.7455C316.267 21.7455 324.847 25.5444 324.651 30.5223L325.567 30.8498Z" fill="#F4F4F4"/>
<path d="M324.585 29.5399C328.318 16.0472 336.178 6.41892 350.326 4.58496C350.326 4.58496 346.265 6.68091 343.972 8.25287C343.972 8.25287 347.509 7.2704 348.557 8.84236C348.557 8.84236 344.496 8.84236 342.139 10.8728C342.139 10.8728 344.627 9.69384 345.937 10.4143C345.937 10.4143 340.96 11.3968 338.798 13.7547C338.798 13.7547 341.091 12.6413 343.056 12.9033C343.056 12.9033 338.274 14.9992 336.899 16.1782C336.899 16.1782 339.584 15.1957 341.222 15.5232C341.222 15.5232 336.113 17.1607 334.999 17.7501C334.999 17.7501 338.471 16.6367 339.912 17.2917C339.912 17.2917 334.082 18.7981 332.838 20.5666C332.838 20.5666 335.392 18.8636 337.095 19.1256C337.095 19.1256 331.593 21.7455 330.676 23.5795C330.676 23.5795 333.1 22.1385 334.672 22.4005C334.672 22.4005 326.55 24.955 325.436 29.2779L324.585 29.5399Z" fill="#F4F4F4"/>
<path d="M325.24 28.9502C340.567 31.4391 350.719 38.8405 350.785 53.8396C350.785 53.8396 348.951 49.7132 347.379 47.4207C347.379 47.4207 348.034 51.0887 346.003 52.4641C346.003 52.4641 346.593 48.0757 344.562 45.7833C344.562 45.7833 345.61 48.3377 344.562 49.7787C344.562 49.7787 344.169 44.5388 341.68 42.5084C341.68 42.5084 342.663 44.8008 342.073 46.9623C342.073 46.9623 340.305 42.0499 339.191 40.6744C339.191 40.6744 339.977 43.4253 339.322 45.2593C339.322 45.2593 338.143 39.9539 337.619 38.8405C337.619 38.8405 338.405 42.4429 337.423 44.0803C337.423 44.0803 336.506 37.989 334.606 36.81C334.606 36.81 336.178 39.3644 335.654 41.1984C335.654 41.1984 333.362 35.5655 331.332 34.7796C331.332 34.7796 332.707 37.203 332.183 38.906C332.183 38.906 330.349 30.4567 325.437 29.8017L325.24 28.9502Z" fill="#F4F4F4"/>
<path d="M324.323 31.7667C327.467 25.0204 336.768 20.8285 345.61 22.204C354.387 23.2519 362.705 29.9328 363.295 37.7926C363.426 37.7926 360.609 33.0767 357.596 30.9153C357.727 30.9153 359.823 34.5832 357.793 35.7621C357.858 35.8276 357.334 31.5047 353.601 29.6053C353.667 29.6053 356.09 31.8322 355.5 33.2732C355.697 33.3387 352.75 28.2953 348.492 27.5093C348.492 27.5093 351.178 29.1468 351.636 31.1773C351.767 31.1118 346.986 27.5093 344.628 27.1818C344.628 27.1164 347.575 28.8848 347.968 30.6533C348.165 30.5878 343.318 27.0509 341.615 26.6579C341.68 26.5924 345.348 28.7538 345.545 30.4568C345.807 30.3913 340.239 26.4614 337.423 27.1818C337.423 27.1164 341.091 27.7058 342.008 29.2778C342.204 29.0813 335.327 27.0508 333.231 28.4263C333.231 28.3608 336.506 28.5573 337.619 29.9328C338.078 29.6053 327.926 26.9199 325.437 31.7012C324.978 31.7667 324.651 31.7667 324.323 31.7667Z" fill="#F4F4F4"/>
<path d="M325.568 29.3433C334.083 37.5306 337.226 46.5693 330.742 55.9356C330.742 55.9356 331.397 52.5297 331.397 50.4338C331.397 50.4338 330.218 53.0537 328.319 52.9882C328.319 52.9882 330.611 50.4992 330.349 48.2068C330.349 48.2068 329.891 50.2373 328.581 50.6957C328.581 50.6957 330.611 47.2243 329.956 44.8664C329.956 44.8664 329.563 46.7658 328.253 47.8138C328.253 47.8138 329.301 44.0149 329.17 42.6394C329.17 42.6394 328.45 44.6699 327.271 45.5214C327.271 45.5214 328.843 41.7225 328.974 40.74C328.974 40.74 327.926 43.3599 326.616 43.9494C326.616 43.9494 328.712 39.7575 327.991 38.1855C327.991 38.1855 327.926 40.478 326.747 41.395C326.747 41.395 327.729 36.8756 326.812 35.5001C326.812 35.5001 326.616 37.5961 325.502 38.4475C325.502 38.4475 327.991 32.3562 325.24 29.8018L325.568 29.3433Z" fill="#F4F4F4"/>
<path d="M282.085 135.961C282.085 135.961 282.085 135.896 282.151 135.699C282.216 135.503 282.282 135.241 282.413 134.913C282.609 134.258 282.937 133.21 283.199 131.966C283.526 130.721 283.919 129.149 284.247 127.381C284.64 125.612 284.967 123.582 285.295 121.355C285.622 119.128 285.95 116.77 286.146 114.216C286.408 111.661 286.539 108.976 286.605 106.159C286.605 104.784 286.67 103.343 286.605 101.902C286.605 100.461 286.539 99.0199 286.474 97.5789C286.408 96.138 286.277 94.6315 286.146 93.1905C286.015 91.6841 285.819 90.2431 285.688 88.7367C285.295 85.7892 284.836 82.8418 284.181 80.0254C283.854 78.5844 283.592 77.1434 283.199 75.768C283.002 75.0475 282.871 74.3925 282.675 73.672C282.478 73.017 282.282 72.2965 282.085 71.6416C281.889 70.9866 281.692 70.3316 281.496 69.6766C281.299 69.0216 281.037 68.3666 280.841 67.7772C280.382 66.5327 279.989 65.2882 279.531 64.1092C279.072 62.9303 278.614 61.7513 278.155 60.6378C277.697 59.5244 277.238 58.4764 276.78 57.4284C276.321 56.3804 275.863 55.4635 275.404 54.5465C274.946 53.6295 274.553 52.778 274.094 51.992C273.243 50.4201 272.522 48.9791 271.802 47.9311C270.427 45.7042 269.706 44.4597 269.706 44.4597L268.331 45.3112C268.331 45.3112 269.051 46.5557 270.361 48.7826C271.016 49.8961 271.671 51.2716 272.522 52.8435C272.915 53.6295 273.308 54.481 273.767 55.398C274.16 56.3149 274.618 57.2319 275.077 58.2799C275.47 59.2624 275.928 60.3103 276.387 61.4238C276.845 62.5373 277.238 63.6508 277.631 64.8297C278.09 66.0087 278.417 67.2532 278.81 68.4976C279.007 69.1526 279.203 69.7421 279.4 70.3971C279.596 71.0521 279.727 71.7071 279.924 72.362C280.12 73.017 280.317 73.672 280.448 74.327C280.579 74.982 280.775 75.7025 280.906 76.3574C281.234 77.7329 281.496 79.1084 281.758 80.4838C282.282 83.3003 282.675 86.1822 283.002 89.0641C283.133 90.5051 283.264 91.9461 283.395 93.387C283.461 94.828 283.592 96.269 283.592 97.7099C283.657 99.1509 283.657 100.526 283.657 101.967C283.657 103.343 283.592 104.718 283.526 106.094C283.395 108.779 283.199 111.399 282.937 113.888C282.675 116.377 282.282 118.669 281.954 120.831C281.561 122.992 281.168 124.892 280.775 126.66C280.382 128.363 279.989 129.87 279.662 131.049C279.334 132.228 279.007 133.21 278.81 133.8C278.614 134.389 278.483 134.717 278.483 134.717L282.085 135.961Z" fill="#F4F4F4"/>
<path d="M268.854 45.1147C264.335 53.433 264.204 61.0964 271.409 66.7292C271.409 66.7292 270.099 64.3058 269.575 62.7338C269.575 62.7338 271.081 64.4368 272.522 63.9128C272.522 63.9128 270.164 62.6028 269.771 60.7034C269.771 60.7034 270.623 62.1443 271.736 62.2098C271.736 62.2098 269.378 60.0484 269.313 58.0834C269.313 58.0834 270.033 59.3934 271.343 59.9174C271.343 59.9174 269.64 57.232 269.378 56.184C269.378 56.184 270.426 57.5594 271.54 57.9524C271.54 57.9524 269.378 55.4635 269.051 54.743C269.051 54.743 270.492 56.446 271.671 56.6425C271.671 56.6425 269.051 53.957 269.182 52.5816C269.182 52.5816 269.837 54.2845 270.95 54.743C270.95 54.743 269.051 51.5336 269.444 50.2891C269.444 50.2891 270.099 51.8611 271.147 52.2541C271.147 52.2541 267.741 48.1932 269.247 45.5732L268.854 45.1147Z" fill="#F4F4F4"/>
<path d="M269.051 44.7217C257.589 49.5031 251.039 57.2319 253.79 68.8906C253.79 68.8906 254.445 65.2882 255.231 63.2577C255.231 63.2577 255.362 66.2707 257.261 66.9256C257.261 66.9256 255.951 63.6507 257.13 61.4238C257.13 61.4238 256.803 63.5852 257.851 64.5677C257.851 64.5677 257.196 60.3758 258.768 58.3453C258.768 58.3453 258.44 60.3103 259.292 61.8823C259.292 61.8823 259.75 57.7559 260.405 56.4459C260.405 56.4459 260.274 58.7383 261.191 60.0483C261.191 60.0483 261.126 55.7254 261.322 54.7429C261.322 54.7429 261.388 57.6904 262.436 58.8038C262.436 58.8038 261.977 53.8915 263.287 52.647C263.287 52.647 262.501 54.9394 263.287 56.2494C263.287 56.2494 264.008 51.4025 265.449 50.4855C265.449 50.4855 264.859 52.647 265.58 53.8915C265.58 53.8915 265.449 46.9486 269.116 45.5077L269.051 44.7217Z" fill="#F4F4F4"/>
<path d="M269.64 45.1149C257.982 40.792 247.96 41.9709 242 52.3852C242 52.3852 244.947 50.2237 246.912 49.2413C246.912 49.2413 245.013 51.5337 245.93 53.3022C245.93 53.3022 247.24 50.0272 249.598 49.1758C249.598 49.1758 247.895 50.5512 248.026 51.9922C248.026 51.9922 250.384 48.5208 252.938 48.0623C252.938 48.0623 251.301 49.3068 250.908 51.0097C250.908 51.0097 254.052 48.3243 255.427 47.8003C255.427 47.8003 253.79 49.3723 253.528 50.9442C253.528 50.9442 256.41 47.7348 257.261 47.1453C257.261 47.1453 255.296 49.3723 255.296 50.8787C255.296 50.8787 258.309 47.0143 260.143 46.9488C260.143 46.9488 258.047 48.0623 257.654 49.6343C257.654 49.6343 261.453 46.6213 263.156 46.8833C263.156 46.8833 261.257 48.0623 260.929 49.4378C260.929 49.4378 265.579 44.2634 269.247 45.7044L269.64 45.1149Z" fill="#F4F4F4"/>
<path d="M269.902 45.9008C263.811 34.9626 254.968 29.1987 242.655 33.0631C242.655 33.0631 246.585 33.3906 248.812 33.9801C248.812 33.9801 245.602 34.4386 245.013 36.338C245.013 36.338 248.484 34.7661 250.908 35.6831C250.908 35.6831 248.55 35.5521 247.567 36.731C247.567 36.731 252.021 35.6831 254.379 36.993C254.379 36.993 252.218 36.862 250.58 37.8445C250.58 37.8445 255.099 37.91 256.54 38.434C256.54 38.434 254.052 38.565 252.742 39.5475C252.742 39.5475 257.392 39.0235 258.505 39.1545C258.505 39.1545 255.296 39.482 254.183 40.6609C254.183 40.6609 259.422 39.744 260.929 40.9229C260.929 40.9229 258.44 40.3989 256.999 41.2504C256.999 41.2504 262.239 41.5124 263.418 42.8224C263.418 42.8224 261.06 42.4294 259.75 43.2809C259.75 43.2809 267.217 42.4949 269.051 45.9663L269.902 45.9008Z" fill="#F4F4F4"/>
<path d="M268.658 45.3769C265.842 34.5042 267.479 24.6794 276.518 17.7366C276.518 17.7366 274.553 20.815 273.57 22.8454C273.57 22.8454 275.601 20.7495 277.042 21.4045C277.042 21.4045 274.225 23.0419 273.374 25.3999C273.374 25.3999 274.618 23.5659 275.797 23.5659C275.797 23.5659 272.719 26.2514 272.195 28.7403C272.195 28.7403 273.308 27.0373 274.815 26.4479C274.815 26.4479 272.326 29.7883 271.867 31.1637C271.867 31.1637 273.308 29.3953 274.618 29.0023C274.618 29.0023 271.736 32.1462 271.212 33.0632C271.212 33.0632 273.177 30.9018 274.422 30.7708C274.422 30.7708 271.016 34.1112 270.819 35.8796C270.819 35.8796 271.933 33.7182 273.177 33.1942C273.177 33.1942 270.427 37.2551 270.492 38.8926C270.492 38.8926 271.605 36.9276 272.784 36.4691C272.784 36.4691 268.2 41.5125 269.182 44.9184L268.658 45.3769Z" fill="#F4F4F4"/>
<path d="M268.92 44.6562C280.579 40.2678 290.6 41.3158 296.626 51.73C296.626 51.73 293.678 49.5686 291.713 48.6516C291.713 48.6516 293.678 50.9441 292.761 52.7125C292.761 52.7125 291.451 49.4376 289.093 48.5861C289.093 48.5861 290.796 49.8961 290.731 51.4025C290.731 51.4025 288.373 47.9311 285.819 47.4726C285.819 47.4726 287.456 48.6516 287.849 50.4201C287.849 50.4201 284.64 47.7346 283.33 47.2106C283.33 47.2106 284.967 48.7826 285.229 50.3546C285.229 50.3546 282.282 47.1451 281.496 46.5557C281.496 46.5557 283.461 48.7171 283.461 50.2891C283.461 50.2891 280.382 46.4247 278.614 46.3592C278.614 46.3592 280.775 47.4726 281.103 48.9791C281.103 48.9791 277.238 45.9662 275.535 46.2282C275.535 46.2282 277.435 47.3416 277.762 48.7826C277.762 48.7826 273.112 43.6737 269.444 45.1147L268.92 44.6562Z" fill="#F4F4F4"/>
<path d="M269.378 47.0141C268.854 41.0538 273.635 34.4385 280.316 31.8185C286.866 29.0676 295.25 30.312 298.852 35.5519C298.918 35.4864 295.053 33.325 292.106 33.063C292.172 32.9975 295.119 34.7004 294.202 36.3379C294.267 36.3379 292.172 33.587 288.831 33.7835C288.831 33.718 291.451 34.3075 291.648 35.5519C291.779 35.4864 287.783 33.194 284.443 34.373C284.443 34.373 286.997 34.3729 288.111 35.6174C288.176 35.4864 283.395 34.9624 281.626 35.6174C281.626 35.5519 284.377 35.6174 285.294 36.6654C285.36 36.5344 280.644 36.0104 279.334 36.4689C279.334 36.4034 282.805 36.4034 283.591 37.5169C283.722 37.3859 278.286 36.8619 276.648 38.4993C276.648 38.4339 279.399 37.3859 280.709 38.1064C280.775 37.9099 275.207 39.2198 274.29 40.9883C274.29 40.9883 276.583 39.8093 277.958 40.2678C278.155 39.8748 270.033 42.1018 270.23 46.3592C269.837 46.7522 269.64 46.8832 269.378 47.0141Z" fill="#F4F4F4"/>
<path d="M269.313 44.8528C278.483 47.1452 284.312 52.1231 283.592 61.2274C283.592 61.2274 282.675 58.6075 281.823 57.1665C281.823 57.1665 282.085 59.4589 280.71 60.1794C280.71 60.1794 281.299 57.5595 280.186 56.053C280.186 56.053 280.71 57.625 279.989 58.4765C279.989 58.4765 279.989 55.267 278.614 53.8916C278.614 53.8916 279.072 55.3325 278.614 56.6425C278.614 56.6425 277.762 53.5641 277.173 52.7126C277.173 52.7126 277.5 54.4156 277.042 55.529C277.042 55.529 276.583 52.2541 276.321 51.5336C276.321 51.5336 276.649 53.7606 275.994 54.743C275.994 54.743 275.732 51.0096 274.618 50.2237C274.618 50.2237 275.47 51.8611 275.011 52.9746C275.011 52.9746 273.898 49.4377 272.719 48.8482C272.719 48.8482 273.439 50.3546 273.046 51.4026C273.046 51.4026 272.326 46.1628 269.378 45.5078L269.313 44.8528Z" fill="#F4F4F4"/>
</g>
</svg>
