<svg width="141" height="43" viewBox="0 0 141 43" fill="none" xmlns="http://www.w3.org/2000/svg">
<mask id="mask0_2064_71532" style="mask-type:luminance" maskUnits="userSpaceOnUse" x="0" y="0" width="141" height="43">
<path fill-rule="evenodd" clip-rule="evenodd" d="M0.150879 0.662964H140.954V42.3824H0.150879V0.662964Z" fill="white"/>
</mask>
<g mask="url(#mask0_2064_71532)">
<path fill-rule="evenodd" clip-rule="evenodd" d="M135.739 42.3824H5.36581C2.44545 42.3824 0.150879 40.0879 0.150879 37.1675V5.8779C0.150879 2.95753 2.44545 0.662964 5.36581 0.662964H135.739C138.66 0.662964 140.954 2.95753 140.954 5.8779V37.1675C140.954 40.0879 138.66 42.3824 135.739 42.3824Z" fill="black"/>
</g>
<path fill-rule="evenodd" clip-rule="evenodd" d="M79.0009 14.2215V7.96358H79.9395L82.9642 12.8656V7.96358H83.7986V14.2215H82.9642L79.7309 9.11086V14.2215H79.0009ZM72.9514 12.8657C73.3686 13.2829 73.9944 13.5958 74.6202 13.5958C75.2459 13.5958 75.8717 13.3872 76.2889 12.8657C76.7061 12.4485 77.019 11.8228 77.019 11.0927C77.019 10.3626 76.8104 9.73678 76.2889 9.31958C75.8717 8.90239 75.2459 8.58949 74.6202 8.58949C73.9944 8.58949 73.3686 8.79809 72.9514 9.31958C72.5342 9.73678 72.2213 10.3626 72.2213 11.0927C72.2213 11.8228 72.4299 12.4485 72.9514 12.8657ZM76.9147 13.3872C76.2889 14.013 75.5588 14.3259 74.6201 14.3259C73.6814 14.3259 72.9513 14.013 72.3255 13.3872C71.6997 12.7614 71.3868 12.0313 71.3868 11.0926C71.3868 10.1539 71.6997 9.42385 72.3255 8.79806C72.9513 8.17227 73.6814 7.85938 74.6201 7.85938C75.5588 7.85938 76.2889 8.17227 76.9147 8.79806C77.5405 9.42385 77.8534 10.1539 77.8534 11.0926C77.8534 12.0313 77.5405 12.7614 76.9147 13.3872ZM67.0071 14.2215H66.1727V8.69367H64.3997V7.96358H68.6759V8.69367H66.9028V14.2215H67.0071ZM62.6258 14.2215H63.4602V7.96358H62.6258V14.2215ZM57.8277 14.2215H56.9933V8.69367H55.2203V7.96358H59.6008V8.69367H57.8277V14.2215ZM54.3869 8.69377H51.5708V10.6754H54.1783V11.4055H51.5708V13.3872H54.3869V14.2216H50.7364V7.96368H54.3869V8.69377ZM49.5887 11.3013C49.5887 12.1356 49.3801 12.8657 48.8586 13.3872C48.2328 14.013 47.5027 14.3259 46.564 14.3259C45.6253 14.3259 44.8952 14.013 44.2694 13.3872C43.6436 12.7614 43.3307 12.0313 43.3307 11.0927C43.3307 10.154 43.6436 9.42388 44.2694 8.79809C44.8952 8.17229 45.6253 7.8594 46.564 7.8594C46.9812 7.8594 47.3984 7.9637 47.8156 8.17229C48.2328 8.38089 48.5457 8.58949 48.7543 8.90238L48.2328 9.42388C47.8156 8.90238 47.2941 8.69379 46.564 8.69379C45.9382 8.69379 45.3124 8.90238 44.8952 9.42388C44.3737 9.84107 44.1651 10.4669 44.1651 11.197C44.1651 11.927 44.3737 12.5528 44.8952 12.97C45.4167 13.3872 45.9382 13.7001 46.564 13.7001C47.2941 13.7001 47.8156 13.4915 48.3371 12.97C48.65 12.6571 48.8586 12.2399 48.8586 11.7184H46.564V10.8841H49.5887V11.3013Z" fill="white"/>
<mask id="mask1_2064_71532" style="mask-type:luminance" maskUnits="userSpaceOnUse" x="-1" y="0" width="143" height="43">
<path fill-rule="evenodd" clip-rule="evenodd" d="M0.150879 42.3824H140.954V0.662964H0.150879V42.3824Z" fill="white" stroke="white"/>
</mask>
<g mask="url(#mask1_2064_71532)">
<path fill-rule="evenodd" clip-rule="evenodd" d="M111.646 31.9525H113.628V18.9151H111.646V31.9525ZM129.168 23.6086L126.977 29.2408H126.873L124.579 23.6086H122.493L125.934 31.5353L123.953 35.9159H125.934L131.254 23.6086H129.168ZM118.216 30.4924C117.59 30.4924 116.652 30.1795 116.652 29.3451C116.652 28.3022 117.799 27.9893 118.738 27.9893C119.572 27.9893 119.989 28.1979 120.511 28.4065C120.302 29.658 119.259 30.4924 118.216 30.4924ZM118.425 23.2958C116.965 23.2958 115.504 23.9216 114.983 25.2775L116.756 26.0076C117.173 25.2775 117.799 25.0689 118.529 25.0689C119.572 25.0689 120.511 25.6947 120.615 26.7377V26.842C120.302 26.6334 119.468 26.3205 118.633 26.3205C116.756 26.3205 114.879 27.3635 114.879 29.2409C114.879 31.0139 116.443 32.1612 118.112 32.1612C119.468 32.1612 120.093 31.5354 120.615 30.9096H120.719V31.9526H122.597V26.9463C122.388 24.6517 120.615 23.2958 118.425 23.2958ZM106.43 25.173H103.614V20.6882H106.43C107.891 20.6882 108.725 21.9398 108.725 22.8784C108.621 24.0257 107.786 25.173 106.43 25.173ZM106.326 18.9152H101.633V31.9526H103.614V27.0505H106.326C108.517 27.0505 110.602 25.486 110.602 22.9829C110.602 20.4797 108.517 18.9152 106.326 18.9152ZM80.8779 30.4922C79.5221 30.4922 78.3748 29.3449 78.3748 27.7805C78.3748 26.216 79.5221 25.0687 80.8779 25.0687C82.2338 25.0687 83.2768 26.216 83.2768 27.7805C83.2768 29.3449 82.2338 30.4922 80.8779 30.4922ZM83.1727 24.3386C82.6512 23.8171 81.8168 23.2956 80.7738 23.2956C78.5835 23.2956 76.4976 25.2773 76.4976 27.7805C76.4976 30.2837 78.4793 32.161 80.7738 32.161C81.8168 32.161 82.6512 31.6395 83.0684 31.118H83.1727V31.7438C83.1727 33.4126 82.234 34.3513 80.7738 34.3513C79.6265 34.3513 78.7921 33.5169 78.5835 32.7868L76.9148 33.5169C77.4363 34.6642 78.6879 36.1244 80.8781 36.1244C83.1727 36.1244 85.0501 34.7685 85.0501 31.5352V23.6085H83.1727V24.3386ZM86.3006 31.9525H88.2823V18.9151H86.3006V31.9525ZM91.203 27.6762C91.203 26.0074 92.5589 25.0687 93.4976 25.0687C94.2276 25.0687 94.9577 25.4859 95.1663 26.0074L91.203 27.6762ZM97.2525 26.2162C96.8353 25.1732 95.7923 23.4001 93.4977 23.4001C91.2032 23.4001 89.3258 25.1732 89.3258 27.885C89.3258 30.3882 91.2032 32.3698 93.7063 32.3698C95.688 32.3698 96.9396 31.1182 97.3568 30.3882L95.8966 29.3452C95.3751 30.0753 94.7493 30.5967 93.7063 30.5967C92.6634 30.5967 92.0376 30.1796 91.5161 29.2409L97.4611 26.7377L97.2525 26.2162ZM49.901 24.7558V26.6332H54.3859C54.2816 27.6762 53.8644 28.5106 53.3429 29.0321C52.7171 29.6579 51.6741 30.388 49.901 30.388C47.085 30.388 44.999 28.1977 44.999 25.3816C44.999 22.5656 47.1893 20.3753 49.901 20.3753C51.3612 20.3753 52.5085 21.0011 53.3429 21.7312L54.6988 20.3753C53.5515 19.3323 52.0913 18.4979 50.0053 18.4979C46.2506 18.4979 43.0173 21.6269 43.0173 25.3816C43.0173 29.1364 46.2506 32.2653 50.0053 32.2653C52.0913 32.2653 53.5515 31.6396 54.8031 30.2837C56.0547 29.0321 56.4719 27.259 56.4719 25.9031C56.4719 25.4859 56.4719 25.0687 56.3676 24.7558H49.901ZM61.4779 30.4922C60.122 30.4922 58.9747 29.3449 58.9747 27.7805C58.9747 26.216 60.122 25.0687 61.4779 25.0687C62.8338 25.0687 63.9811 26.1117 63.9811 27.7805C63.9811 29.3449 62.8338 30.4922 61.4779 30.4922ZM61.478 23.4001C58.9748 23.4001 56.9932 25.2775 56.9932 27.885C56.9932 30.3882 58.9748 32.3698 61.478 32.3698C63.9812 32.3698 65.9629 30.4924 65.9629 27.885C65.9629 25.1732 63.9812 23.4001 61.478 23.4001ZM71.1775 30.4922C69.8216 30.4922 68.6743 29.3449 68.6743 27.7805C68.6743 26.216 69.8216 25.0687 71.1775 25.0687C72.5334 25.0687 73.6807 26.1117 73.6807 27.7805C73.6807 29.3449 72.5334 30.4922 71.1775 30.4922ZM71.177 23.3998C68.6738 23.3998 66.6922 25.2772 66.6922 27.8847C66.6922 30.3879 68.6738 32.3695 71.177 32.3695C73.6802 32.3695 75.6618 30.4922 75.6618 27.8847C75.6618 25.1729 73.6802 23.3998 71.177 23.3998Z" fill="white"/>
</g>
<mask id="mask2_2064_71532" style="mask-type:luminance" maskUnits="userSpaceOnUse" x="10" y="8" width="15" height="27">
<path fill-rule="evenodd" clip-rule="evenodd" d="M10.58 9.94569V32.9957C10.58 33.6217 10.7886 34.143 11.1015 34.4559L11.2058 34.5604L24.1388 21.6273V21.4185L10.9972 8.48572C10.6843 8.79841 10.58 9.3199 10.58 9.94569Z" fill="white"/>
</mask>
<g mask="url(#mask2_2064_71532)">
<path fill-rule="evenodd" clip-rule="evenodd" d="M10.58 9.94569V32.9957C10.58 33.6217 10.7886 34.143 11.1015 34.4559L11.2058 34.5604L24.1388 21.6273V21.4185L10.9972 8.48572C10.6843 8.79841 10.58 9.3199 10.58 9.94569Z" fill="#32BBFF"/>
</g>
<mask id="mask3_2064_71532" style="mask-type:luminance" maskUnits="userSpaceOnUse" x="24" y="17" width="11" height="10">
<path fill-rule="evenodd" clip-rule="evenodd" d="M24.0348 21.4183V21.7312L28.311 26.0074L33.526 23.1914C34.9861 22.357 34.9861 21.0011 33.526 20.1665L28.4153 17.2464L28.311 17.1418L24.0348 21.4183Z" fill="white"/>
</mask>
<g mask="url(#mask3_2064_71532)">
<path fill-rule="evenodd" clip-rule="evenodd" d="M24.0348 21.4183V21.7312L28.311 26.0074L33.526 23.1914C34.9861 22.357 34.9861 21.0011 33.526 20.1665L28.4153 17.2464L28.311 17.1418L24.0348 21.4183Z" fill="#FFD500"/>
</g>
<mask id="mask4_2064_71532" style="mask-type:luminance" maskUnits="userSpaceOnUse" x="10" y="21" width="19" height="14">
<path fill-rule="evenodd" clip-rule="evenodd" d="M10.9976 34.5604C11.5191 35.0817 12.2492 35.0817 13.1879 34.6645L28.4155 25.9034L24.035 21.5228L10.9976 34.5604Z" fill="white"/>
</mask>
<g mask="url(#mask4_2064_71532)">
<path fill-rule="evenodd" clip-rule="evenodd" d="M10.9976 34.5604C11.5191 35.0817 12.2492 35.0817 13.1879 34.6645L28.4155 25.9034L24.035 21.5228L10.9976 34.5604Z" fill="url(#paint0_linear_2064_71532)"/>
</g>
<mask id="mask5_2064_71532" style="mask-type:luminance" maskUnits="userSpaceOnUse" x="10" y="8" width="19" height="14">
<path fill-rule="evenodd" clip-rule="evenodd" d="M10.9976 8.58972L24.035 21.5228L28.4155 17.1422L13.1879 8.48563C12.7649 8.25055 12.3844 8.1427 12.0462 8.1427C11.6336 8.14249 11.2842 8.30311 10.9976 8.58972Z" fill="white"/>
</mask>
<g mask="url(#mask5_2064_71532)">
<path fill-rule="evenodd" clip-rule="evenodd" d="M10.9976 8.58972L24.035 21.5228L28.4155 17.1422L13.1879 8.48563C12.7649 8.25055 12.3844 8.1427 12.0462 8.1427C11.6336 8.14249 11.2842 8.30311 10.9976 8.58972Z" fill="#29CC5E"/>
</g>
<path fill-rule="evenodd" clip-rule="evenodd" d="M28.3111 25.7987L13.1878 34.3512C12.3534 34.8727 11.6234 34.7684 11.1019 34.3512L10.9976 34.4555L11.1019 34.5598C11.6234 34.977 12.3534 35.0813 13.1878 34.5598L28.3111 25.7987Z" fill="black"/>
<path fill-rule="evenodd" clip-rule="evenodd" d="M33.5261 22.8783L28.3112 25.7987L28.4155 25.903L33.5261 22.9826C34.2562 22.5654 34.5691 22.044 34.5691 21.5225C34.5691 22.044 34.1519 22.4611 33.5261 22.8783ZM10.9972 34.3511C10.6843 34.0382 10.58 33.5167 10.58 32.891V32.9952C10.58 33.621 10.7886 34.1425 11.1014 34.4554V34.3511H10.9972Z" fill="black"/>
<path fill-rule="evenodd" clip-rule="evenodd" d="M13.1874 8.58934L33.5257 20.1665C34.1515 20.5837 34.5686 21.0009 34.5686 21.5224C34.5686 21.0009 34.2558 20.4794 33.5257 20.0622L13.1874 8.48504C11.7272 7.65065 10.58 8.27644 10.58 9.94522V10.0495C10.58 8.48504 11.7272 7.75495 13.1874 8.58934Z" fill="white"/>
<defs>
<linearGradient id="paint0_linear_2064_71532" x1="10.655" y1="14.746" x2="-5.99655" y2="42.7022" gradientUnits="userSpaceOnUse">
<stop stop-color="#FF3A44"/>
<stop offset="1" stop-color="#C31162"/>
</linearGradient>
</defs>
</svg>
