<svg width="17" height="16" viewBox="0 0 17 16" fill="none" xmlns="http://www.w3.org/2000/svg">
<g filter="url(#filter0_d_6193_30175)">
<path d="M1.03144 7.08752C0.542701 7.16822 0.526496 7.93346 1.01158 8.03379C5.13372 8.88638 6.92682 10.0754 7.92047 14.4355C8.03291 14.9289 8.9167 14.9213 9.00798 14.4235C9.80148 10.0969 11.0973 8.8 15.4234 8.00721C15.9212 7.916 15.9213 7.08328 15.4235 6.992C11.0969 6.1985 9.8 4.90272 9.0072 0.576556C8.91599 0.0788302 8.08328 0.0787284 7.992 0.576442C7.16611 5.07975 5.79609 6.30082 1.03144 7.08752Z" fill="#FCEDFE"/>
<path d="M1.08754 7.66656C1.06638 7.66218 1.05866 7.65478 1.0517 7.64452C1.04129 7.62917 1.03043 7.59993 1.03124 7.56119C1.03206 7.52245 1.04415 7.49354 1.05534 7.47843C1.06289 7.46822 1.07114 7.46104 1.09253 7.45751C3.48288 7.06283 5.11509 6.54825 6.24386 5.50056C7.3784 4.44752 7.9448 2.91264 8.36084 0.644087C8.36384 0.627735 8.36944 0.618539 8.38584 0.607495C8.40777 0.592715 8.44786 0.578203 8.49958 0.578209C8.5513 0.578215 8.59139 0.592736 8.61334 0.607528C8.62974 0.618584 8.63535 0.627794 8.63834 0.644151C9.03771 2.82343 9.57639 4.32585 10.625 5.37423C11.6736 6.42257 13.1764 6.96114 15.3559 7.36085C15.3723 7.36385 15.3814 7.36945 15.3925 7.38584C15.4073 7.40778 15.4218 7.44786 15.4218 7.49959C15.4218 7.55131 15.4073 7.5914 15.3925 7.61335C15.3814 7.62975 15.3722 7.63535 15.3558 7.63835C13.1766 8.03772 11.6741 8.57639 10.6258 9.62504C9.57742 10.6736 9.03884 12.1764 8.63913 14.3559C8.63743 14.3652 8.63463 14.3751 8.61177 14.3898C8.58336 14.4082 8.53283 14.4256 8.46843 14.4262C8.40418 14.4268 8.35138 14.4106 8.31988 14.3914C8.29333 14.3752 8.28849 14.3627 8.2861 14.3522C7.78092 12.1355 7.05848 10.6597 5.88572 9.63675C4.72118 8.62092 3.1607 8.09536 1.08754 7.66656Z" stroke="#19154A" stroke-width="0.75"/>
</g>
<defs>
<filter id="filter0_d_6193_30175" x="0.65625" y="0.203186" width="15.6933" height="15.7284" filterUnits="userSpaceOnUse" color-interpolation-filters="sRGB">
<feFlood flood-opacity="0" result="BackgroundImageFix"/>
<feColorMatrix in="SourceAlpha" type="matrix" values="0 0 0 0 0 0 0 0 0 0 0 0 0 0 0 0 0 0 127 0" result="hardAlpha"/>
<feOffset dx="0.552631" dy="1.13038"/>
<feComposite in2="hardAlpha" operator="out"/>
<feColorMatrix type="matrix" values="0 0 0 0 0.458824 0 0 0 0 0 0 0 0 0 0.494118 0 0 0 1 0"/>
<feBlend mode="normal" in2="BackgroundImageFix" result="effect1_dropShadow_6193_30175"/>
<feBlend mode="normal" in="SourceGraphic" in2="effect1_dropShadow_6193_30175" result="shape"/>
</filter>
</defs>
</svg>
