<svg width="161" height="30" viewBox="0 0 161 30" fill="none" xmlns="http://www.w3.org/2000/svg">
<rect x="0.5" y="0.5" width="160" height="29" rx="11.5" fill="#FCEDFE"/>
<rect x="0.5" y="0.5" width="160" height="29" rx="11.5" stroke="#75007E"/>
<path d="M20.952 20V10.116H23.15V20H20.952ZM22.646 20V18.068H27.532V20H22.646ZM31.3363 20.14C30.7109 20.14 30.1509 19.986 29.6563 19.678C29.1709 19.37 28.7836 18.95 28.4943 18.418C28.2143 17.886 28.0743 17.2793 28.0743 16.598C28.0743 15.9167 28.2143 15.31 28.4943 14.778C28.7836 14.246 29.1709 13.826 29.6563 13.518C30.1509 13.21 30.7109 13.056 31.3363 13.056C31.7936 13.056 32.2043 13.1447 32.5683 13.322C32.9416 13.4993 33.2449 13.7467 33.4783 14.064C33.7116 14.372 33.8423 14.7267 33.8703 15.128V18.068C33.8423 18.4693 33.7116 18.8287 33.4783 19.146C33.2543 19.454 32.9556 19.6967 32.5823 19.874C32.2089 20.0513 31.7936 20.14 31.3363 20.14ZM31.7703 18.208C32.2276 18.208 32.5963 18.0587 32.8763 17.76C33.1563 17.452 33.2963 17.0647 33.2963 16.598C33.2963 16.2807 33.2309 16.0007 33.1003 15.758C32.9789 15.5153 32.8016 15.3287 32.5683 15.198C32.3443 15.058 32.0829 14.988 31.7843 14.988C31.4856 14.988 31.2196 15.058 30.9863 15.198C30.7623 15.3287 30.5803 15.5153 30.4403 15.758C30.3096 16.0007 30.2443 16.2807 30.2443 16.598C30.2443 16.906 30.3096 17.1813 30.4403 17.424C30.5709 17.6667 30.7529 17.858 30.9863 17.998C31.2196 18.138 31.4809 18.208 31.7703 18.208ZM33.2123 20V18.166L33.5343 16.514L33.2123 14.862V13.196H35.3123V20H33.2123ZM39.8445 20.154C39.2191 20.154 38.6638 20.028 38.1785 19.776C37.7025 19.5147 37.3291 19.16 37.0585 18.712C36.7878 18.2547 36.6525 17.732 36.6525 17.144V13.196H38.7945V17.116C38.7945 17.3493 38.8318 17.55 38.9065 17.718C38.9905 17.886 39.1118 18.0167 39.2705 18.11C39.4291 18.2033 39.6205 18.25 39.8445 18.25C40.1618 18.25 40.4138 18.152 40.6005 17.956C40.7871 17.7507 40.8805 17.4707 40.8805 17.116V13.196H43.0225V17.13C43.0225 17.7273 42.8871 18.2547 42.6165 18.712C42.3458 19.16 41.9725 19.5147 41.4965 19.776C41.0205 20.028 40.4698 20.154 39.8445 20.154ZM48.8613 20V16.122C48.8613 15.7673 48.7493 15.4827 48.5253 15.268C48.3107 15.044 48.0353 14.932 47.6993 14.932C47.466 14.932 47.2607 14.9833 47.0833 15.086C46.906 15.1793 46.766 15.3193 46.6633 15.506C46.5607 15.6833 46.5093 15.8887 46.5093 16.122L45.6833 15.716C45.6833 15.184 45.8 14.7173 46.0333 14.316C46.2667 13.9147 46.5887 13.6067 46.9993 13.392C47.4193 13.168 47.8907 13.056 48.4133 13.056C48.9173 13.056 49.3607 13.1773 49.7433 13.42C50.1353 13.6533 50.4433 13.966 50.6673 14.358C50.8913 14.75 51.0033 15.1793 51.0033 15.646V20H48.8613ZM44.3673 20V13.196H46.5093V20H44.3673ZM55.669 20.154C54.969 20.154 54.3344 20 53.765 19.692C53.1957 19.384 52.7477 18.9593 52.421 18.418C52.0944 17.8767 51.931 17.27 51.931 16.598C51.931 15.9167 52.0944 15.31 52.421 14.778C52.757 14.2367 53.2097 13.812 53.779 13.504C54.3484 13.196 54.9877 13.042 55.697 13.042C56.229 13.042 56.7144 13.1353 57.153 13.322C57.601 13.4993 57.9977 13.77 58.343 14.134L56.971 15.506C56.8124 15.3287 56.6257 15.198 56.411 15.114C56.2057 15.03 55.9677 14.988 55.697 14.988C55.389 14.988 55.1137 15.058 54.871 15.198C54.6377 15.3287 54.451 15.5153 54.311 15.758C54.1804 15.9913 54.115 16.2667 54.115 16.584C54.115 16.9013 54.1804 17.1813 54.311 17.424C54.451 17.6667 54.6424 17.858 54.885 17.998C55.1277 18.138 55.3984 18.208 55.697 18.208C55.977 18.208 56.2244 18.1613 56.439 18.068C56.663 17.9653 56.8544 17.8253 57.013 17.648L58.371 19.02C58.0164 19.3933 57.615 19.678 57.167 19.874C56.719 20.0607 56.2197 20.154 55.669 20.154ZM63.8184 20V16.122C63.8184 15.7673 63.7064 15.4827 63.4824 15.268C63.2677 15.044 62.9924 14.932 62.6564 14.932C62.423 14.932 62.2177 14.9833 62.0404 15.086C61.863 15.1793 61.723 15.3193 61.6204 15.506C61.5177 15.6833 61.4664 15.8887 61.4664 16.122L60.6404 15.716C60.6404 15.184 60.7524 14.7173 60.9764 14.316C61.2004 13.9147 61.513 13.6067 61.9144 13.392C62.3157 13.168 62.7777 13.056 63.3004 13.056C63.8324 13.056 64.299 13.168 64.7004 13.392C65.1017 13.6067 65.4097 13.91 65.6244 14.302C65.8484 14.6847 65.9604 15.1327 65.9604 15.646V20H63.8184ZM59.3244 20V9.836H61.4664V20H59.3244ZM67.3361 20V13.196H69.4781V20H67.3361ZM68.4141 12.258C68.0781 12.258 67.7981 12.146 67.5741 11.922C67.3594 11.6887 67.2521 11.4087 67.2521 11.082C67.2521 10.746 67.3594 10.466 67.5741 10.242C67.7981 10.018 68.0781 9.906 68.4141 9.906C68.7501 9.906 69.0254 10.018 69.2401 10.242C69.4547 10.466 69.5621 10.746 69.5621 11.082C69.5621 11.4087 69.4547 11.6887 69.2401 11.922C69.0254 12.146 68.7501 12.258 68.4141 12.258ZM75.4805 20V16.122C75.4805 15.7673 75.3685 15.4827 75.1445 15.268C74.9298 15.044 74.6545 14.932 74.3185 14.932C74.0851 14.932 73.8798 14.9833 73.7025 15.086C73.5251 15.1793 73.3851 15.3193 73.2825 15.506C73.1798 15.6833 73.1285 15.8887 73.1285 16.122L72.3025 15.716C72.3025 15.184 72.4191 14.7173 72.6525 14.316C72.8858 13.9147 73.2078 13.6067 73.6185 13.392C74.0385 13.168 74.5098 13.056 75.0325 13.056C75.5365 13.056 75.9798 13.1773 76.3625 13.42C76.7545 13.6533 77.0625 13.966 77.2865 14.358C77.5105 14.75 77.6225 15.1793 77.6225 15.646V20H75.4805ZM70.9865 20V13.196H73.1285V20H70.9865ZM81.8822 23.052C81.1355 23.052 80.4775 22.9213 79.9082 22.66C79.3482 22.408 78.9049 22.0487 78.5782 21.582L79.8942 20.266C80.1369 20.5553 80.4075 20.7747 80.7062 20.924C81.0142 21.0733 81.3829 21.148 81.8122 21.148C82.3442 21.148 82.7595 21.0173 83.0582 20.756C83.3662 20.4947 83.5202 20.126 83.5202 19.65V17.914L83.8842 16.43L83.5622 14.946V13.196H85.6622V19.594C85.6622 20.294 85.4989 20.9007 85.1722 21.414C84.8455 21.9273 84.3975 22.3287 83.8282 22.618C83.2589 22.9073 82.6102 23.052 81.8822 23.052ZM81.7842 19.79C81.1589 19.79 80.6035 19.6407 80.1182 19.342C79.6329 19.0433 79.2502 18.6373 78.9702 18.124C78.6902 17.6107 78.5502 17.0413 78.5502 16.416C78.5502 15.7813 78.6902 15.212 78.9702 14.708C79.2502 14.1947 79.6329 13.7933 80.1182 13.504C80.6035 13.2053 81.1589 13.056 81.7842 13.056C82.2509 13.056 82.6662 13.1447 83.0302 13.322C83.4035 13.49 83.7022 13.7327 83.9262 14.05C84.1595 14.358 84.2902 14.7173 84.3182 15.128V17.718C84.2902 18.1193 84.1595 18.4787 83.9262 18.796C83.7022 19.104 83.4035 19.3467 83.0302 19.524C82.6569 19.7013 82.2415 19.79 81.7842 19.79ZM82.1902 17.886C82.4889 17.886 82.7455 17.8207 82.9602 17.69C83.1842 17.5593 83.3522 17.3867 83.4642 17.172C83.5855 16.948 83.6462 16.696 83.6462 16.416C83.6462 16.136 83.5855 15.884 83.4642 15.66C83.3522 15.436 83.1842 15.2587 82.9602 15.128C82.7455 14.9973 82.4889 14.932 82.1902 14.932C81.9009 14.932 81.6442 14.9973 81.4202 15.128C81.1962 15.2587 81.0235 15.436 80.9022 15.66C80.7809 15.884 80.7202 16.136 80.7202 16.416C80.7202 16.6773 80.7809 16.9247 80.9022 17.158C81.0235 17.382 81.1915 17.5593 81.4062 17.69C81.6302 17.8207 81.8915 17.886 82.1902 17.886ZM93.004 20.154C92.192 20.154 91.492 20.0233 90.904 19.762C90.3253 19.4913 89.7933 19.0853 89.308 18.544L90.736 17.13C91.0533 17.494 91.4033 17.7787 91.786 17.984C92.178 18.18 92.6307 18.278 93.144 18.278C93.6107 18.278 93.97 18.194 94.222 18.026C94.4833 17.858 94.614 17.6247 94.614 17.326C94.614 17.0553 94.53 16.836 94.362 16.668C94.194 16.5 93.97 16.3553 93.69 16.234C93.4193 16.1127 93.116 15.996 92.78 15.884C92.4533 15.772 92.1267 15.646 91.8 15.506C91.4733 15.3567 91.17 15.1747 90.89 14.96C90.6193 14.736 90.4 14.4607 90.232 14.134C90.064 13.798 89.98 13.378 89.98 12.874C89.98 12.2673 90.1247 11.7447 90.414 11.306C90.7127 10.8673 91.1233 10.536 91.646 10.312C92.1687 10.0787 92.7707 9.962 93.452 9.962C94.1427 9.962 94.7727 10.0833 95.342 10.326C95.9207 10.5687 96.3967 10.9 96.77 11.32L95.342 12.734C95.0433 12.426 94.74 12.1973 94.432 12.048C94.1333 11.8987 93.7927 11.824 93.41 11.824C93.0273 11.824 92.724 11.8987 92.5 12.048C92.276 12.188 92.164 12.3933 92.164 12.664C92.164 12.916 92.248 13.1213 92.416 13.28C92.584 13.4293 92.8033 13.56 93.074 13.672C93.354 13.784 93.6573 13.896 93.984 14.008C94.32 14.12 94.6513 14.2507 94.978 14.4C95.3047 14.5493 95.6033 14.7407 95.874 14.974C96.154 15.198 96.378 15.4873 96.546 15.842C96.714 16.1873 96.798 16.6167 96.798 17.13C96.798 18.0727 96.462 18.8147 95.79 19.356C95.118 19.888 94.1893 20.154 93.004 20.154ZM101.237 20.154C100.537 20.154 99.9024 20 99.3331 19.692C98.7731 19.3747 98.3297 18.9453 98.0031 18.404C97.6764 17.8627 97.5131 17.256 97.5131 16.584C97.5131 15.912 97.6764 15.31 98.0031 14.778C98.3297 14.246 98.7731 13.826 99.3331 13.518C99.8931 13.2007 100.528 13.042 101.237 13.042C101.946 13.042 102.581 13.196 103.141 13.504C103.701 13.812 104.144 14.2367 104.471 14.778C104.798 15.31 104.961 15.912 104.961 16.584C104.961 17.256 104.798 17.8627 104.471 18.404C104.144 18.9453 103.701 19.3747 103.141 19.692C102.581 20 101.946 20.154 101.237 20.154ZM101.237 18.208C101.545 18.208 101.816 18.1427 102.049 18.012C102.282 17.872 102.46 17.6807 102.581 17.438C102.712 17.186 102.777 16.9013 102.777 16.584C102.777 16.2667 102.712 15.9913 102.581 15.758C102.45 15.5153 102.268 15.3287 102.035 15.198C101.811 15.058 101.545 14.988 101.237 14.988C100.938 14.988 100.672 15.058 100.439 15.198C100.206 15.3287 100.024 15.5153 99.8931 15.758C99.7624 16.0007 99.6971 16.2807 99.6971 16.598C99.6971 16.906 99.7624 17.186 99.8931 17.438C100.024 17.6807 100.206 17.872 100.439 18.012C100.672 18.1427 100.938 18.208 101.237 18.208ZM109.303 20.154C108.603 20.154 107.969 20 107.399 19.692C106.839 19.3747 106.396 18.9453 106.069 18.404C105.743 17.8627 105.579 17.256 105.579 16.584C105.579 15.912 105.743 15.31 106.069 14.778C106.396 14.246 106.839 13.826 107.399 13.518C107.959 13.2007 108.594 13.042 109.303 13.042C110.013 13.042 110.647 13.196 111.207 13.504C111.767 13.812 112.211 14.2367 112.537 14.778C112.864 15.31 113.027 15.912 113.027 16.584C113.027 17.256 112.864 17.8627 112.537 18.404C112.211 18.9453 111.767 19.3747 111.207 19.692C110.647 20 110.013 20.154 109.303 20.154ZM109.303 18.208C109.611 18.208 109.882 18.1427 110.115 18.012C110.349 17.872 110.526 17.6807 110.647 17.438C110.778 17.186 110.843 16.9013 110.843 16.584C110.843 16.2667 110.778 15.9913 110.647 15.758C110.517 15.5153 110.335 15.3287 110.101 15.198C109.877 15.058 109.611 14.988 109.303 14.988C109.005 14.988 108.739 15.058 108.505 15.198C108.272 15.3287 108.09 15.5153 107.959 15.758C107.829 16.0007 107.763 16.2807 107.763 16.598C107.763 16.906 107.829 17.186 107.959 17.438C108.09 17.6807 108.272 17.872 108.505 18.012C108.739 18.1427 109.005 18.208 109.303 18.208ZM118.588 20V16.122C118.588 15.7673 118.476 15.4827 118.252 15.268C118.037 15.044 117.762 14.932 117.426 14.932C117.193 14.932 116.987 14.9833 116.81 15.086C116.633 15.1793 116.493 15.3193 116.39 15.506C116.287 15.6833 116.236 15.8887 116.236 16.122L115.41 15.716C115.41 15.184 115.527 14.7173 115.76 14.316C115.993 13.9147 116.315 13.6067 116.726 13.392C117.146 13.168 117.617 13.056 118.14 13.056C118.644 13.056 119.087 13.1773 119.47 13.42C119.862 13.6533 120.17 13.966 120.394 14.358C120.618 14.75 120.73 15.1793 120.73 15.646V20H118.588ZM114.094 20V13.196H116.236V20H114.094ZM126.682 20.98H140.682V6.98H126.682V20.98Z" fill="#75007E"/>
</svg>
