<svg width="361" height="366" viewBox="0 0 361 366" fill="none" xmlns="http://www.w3.org/2000/svg">
<path opacity="0.05" d="M243.704 17.2454L35.4917 161.626C-13.2897 195.453 -2.75368 270.414 53.5061 289.457L255.167 357.829C265.855 361.449 277.242 362.515 288.416 360.942C299.59 359.369 310.24 355.2 319.513 348.77C328.786 342.34 336.424 333.827 341.814 323.914C347.205 314 350.198 302.962 350.555 291.684L357.107 78.9313C358.95 19.541 292.467 -16.5679 243.704 17.2454ZM310.547 180.291C294.163 208.772 273.538 231.747 249.233 248.601C223.9 265.861 194.936 277.062 164.581 281.338C157.737 282.376 150.76 280.652 145.187 276.545C139.614 272.439 135.9 266.287 134.863 259.443C133.825 252.598 135.549 245.622 139.656 240.049C143.762 234.475 149.914 230.761 156.759 229.724C179.305 226.742 200.838 218.515 219.63 205.705C237.734 193.151 252.714 176.294 265.408 154.185C267.328 150.833 269.975 147.955 273.156 145.762C278.029 142.384 283.909 140.769 289.824 141.182C295.74 141.596 301.338 144.013 305.694 148.036C310.05 152.059 312.905 157.447 313.787 163.311C314.67 169.175 313.526 175.164 310.547 180.291Z" stroke="url(#paint0_linear_2400_38827)" stroke-width="6.96465" stroke-miterlimit="10"/>
<defs>
<linearGradient id="paint0_linear_2400_38827" x1="63.0709" y1="334.58" x2="395.994" y2="103.722" gradientUnits="userSpaceOnUse">
<stop stop-color="#00DAFF"/>
<stop offset="0.16" stop-color="#31BAFD"/>
<stop offset="0.38" stop-color="#7190FA"/>
<stop offset="0.59" stop-color="#A46EF7"/>
<stop offset="0.76" stop-color="#C856F5"/>
<stop offset="0.91" stop-color="#DF47F4"/>
<stop offset="1" stop-color="#E742F4"/>
</linearGradient>
</defs>
</svg>
