<svg width="16" height="17" viewBox="0 0 16 17" fill="none" xmlns="http://www.w3.org/2000/svg">
<g filter="url(#filter0_d_6193_31708)">
<path d="M5.7953 1.8323C6.53171 0.567975 8.35823 0.567975 9.09464 1.8323L10.0749 3.51539C10.3447 3.97854 10.7967 4.30695 11.3206 4.42039L13.2242 4.83262C14.6542 5.14228 15.2187 6.87941 14.2438 7.97047L12.946 9.4229C12.5889 9.82258 12.4162 10.354 12.4702 10.8872L12.6664 12.8251C12.8138 14.2808 11.3361 15.3544 9.99719 14.7644L8.21481 13.9789C7.72434 13.7628 7.1656 13.7628 6.67513 13.9789L4.89275 14.7644C3.55383 15.3544 2.07614 14.2808 2.22353 12.8251L2.41974 10.8872C2.47373 10.354 2.30107 9.82258 1.94395 9.4229L0.646175 7.97047C-0.328711 6.87941 0.235717 5.14228 1.66573 4.83262L3.56937 4.42039C4.09321 4.30695 4.54524 3.97854 4.81499 3.51539L5.7953 1.8323Z" fill="#FCEDFE"/>
<path d="M6.22736 2.08395C6.7709 1.15076 8.11905 1.15076 8.66258 2.08395L9.64289 3.76704C9.9833 4.35149 10.5537 4.76592 11.2148 4.90906L13.1184 5.32129C14.1739 5.54985 14.5905 6.83202 13.8709 7.63733L12.5731 9.08976C12.1225 9.59411 11.9046 10.2647 11.9727 10.9376L12.169 12.8754C12.2777 13.9499 11.1871 14.7423 10.1988 14.3068L8.41643 13.5214C7.79751 13.2487 7.09244 13.2487 6.47351 13.5214L4.69113 14.3068C3.70288 14.7423 2.6122 13.9499 2.72099 12.8754L2.9172 10.9376C2.98533 10.2647 2.76745 9.59411 2.3168 9.08976L1.01902 7.63733C0.299463 6.83202 0.716063 5.54985 1.77155 5.32129L3.67519 4.90906C4.33623 4.76592 4.90664 4.35149 5.24705 3.76704L6.22736 2.08395Z" stroke="#3B0F46"/>
</g>
<defs>
<filter id="filter0_d_6193_31708" x="0.15918" y="0.884033" width="15.1244" height="15.1757" filterUnits="userSpaceOnUse" color-interpolation-filters="sRGB">
<feFlood flood-opacity="0" result="BackgroundImageFix"/>
<feColorMatrix in="SourceAlpha" type="matrix" values="0 0 0 0 0 0 0 0 0 0 0 0 0 0 0 0 0 0 127 0" result="hardAlpha"/>
<feOffset dx="0.552631" dy="1.13038"/>
<feComposite in2="hardAlpha" operator="out"/>
<feColorMatrix type="matrix" values="0 0 0 0 0.458824 0 0 0 0 0 0 0 0 0 0.494118 0 0 0 1 0"/>
<feBlend mode="normal" in2="BackgroundImageFix" result="effect1_dropShadow_6193_31708"/>
<feBlend mode="normal" in="SourceGraphic" in2="effect1_dropShadow_6193_31708" result="shape"/>
</filter>
</defs>
</svg>
