<svg width="41" height="41" viewBox="0 0 41 41" fill="none" xmlns="http://www.w3.org/2000/svg">
<path d="M16.6562 22.2083C23.9167 22.2083 23.9167 13.2395 23.9167 13.2395C23.9167 13.2395 23.9167 22.2083 31.1771 22.2083C23.9167 22.2083 23.9167 31.177 23.9167 31.177C23.9167 31.177 23.9167 22.2083 16.6562 22.2083Z" fill="#75007E"/>
<path d="M9.82294 13.6667C13.6667 13.6667 13.6667 9.823 13.6667 9.823C13.6667 9.823 13.6667 13.6667 17.5104 13.6667C13.6667 13.6667 13.6667 17.5105 13.6667 17.5105C13.6667 17.5105 13.6667 13.6667 9.82294 13.6667Z" fill="#75007E"/>
<path d="M13.2396 27.7605H13.2567M31.1771 9.823H31.1942M31.1771 31.1772H31.1942M23.9167 13.2397C23.9167 13.2397 23.9167 22.2084 16.6563 22.2084C23.9167 22.2084 23.9167 31.1772 23.9167 31.1772C23.9167 31.1772 23.9167 22.2084 31.1771 22.2084C23.9167 22.2084 23.9167 13.2397 23.9167 13.2397ZM13.6667 9.823C13.6667 9.823 13.6667 13.6667 9.82294 13.6667C13.6667 13.6667 13.6667 17.5105 13.6667 17.5105C13.6667 17.5105 13.6667 13.6667 17.5104 13.6667C13.6667 13.6667 13.6667 9.823 13.6667 9.823Z" stroke="#75007E" stroke-width="2.5625" stroke-linecap="round" stroke-linejoin="round"/>
</svg>
