<svg width="207" height="19" viewBox="0 0 207 19" fill="none" xmlns="http://www.w3.org/2000/svg">
<path d="M0.0184419 17.2725C-0.0582043 17.0618 0.109472 16.8511 0.420848 16.7542C63.7259 -1.73822 140.822 -6.26336 206.465 9.97914C206.829 10.0718 207.045 10.3078 206.992 10.5479C206.947 10.641 206.866 10.7169 206.763 10.7617C206.661 10.8066 206.543 10.8174 206.432 10.7923C138.7 1.19428 65.4121 -0.187694 0.650777 17.4747C0.53537 17.5138 0.40782 17.5148 0.291615 17.4776C0.17541 17.4405 0.0783802 17.3676 0.0184419 17.2725Z" fill="url(#paint0_linear_2234_52526)"/>
<path d="M48.0374 15.2374C83.9653 7.42159 139.371 7.06766 175.486 14.7149C176.147 14.854 175.879 15.4775 175.194 15.3891C138.308 10.6111 85.0815 10.9271 48.3344 15.9115C47.6494 16.0042 47.3763 15.3806 48.0374 15.2374Z" fill="url(#paint1_linear_2234_52526)"/>
<path d="M182.465 15.4524C184.962 15.4934 187.433 15.9095 189.771 16.6827C190.877 17.0576 190.432 18.111 189.172 18.0857C186.67 18.0486 184.194 17.6324 181.852 16.8554C180.76 16.4804 181.21 15.4271 182.465 15.4524Z" fill="url(#paint2_linear_2234_52526)"/>
<defs>
<linearGradient id="paint0_linear_2234_52526" x1="-0.00713733" y1="8.75383" x2="207.008" y2="8.75383" gradientUnits="userSpaceOnUse">
<stop stop-color="#00DAFF"/>
<stop offset="0.16" stop-color="#31BAFD"/>
<stop offset="0.38" stop-color="#7190FA"/>
<stop offset="0.59" stop-color="#A46EF7"/>
<stop offset="0.76" stop-color="#C856F5"/>
<stop offset="0.91" stop-color="#DF47F4"/>
<stop offset="1" stop-color="#E742F4"/>
</linearGradient>
<linearGradient id="paint1_linear_2234_52526" x1="47.6546" y1="12.5474" x2="175.871" y2="12.5474" gradientUnits="userSpaceOnUse">
<stop stop-color="#00DAFF"/>
<stop offset="0.16" stop-color="#31BAFD"/>
<stop offset="0.38" stop-color="#7190FA"/>
<stop offset="0.59" stop-color="#A46EF7"/>
<stop offset="0.76" stop-color="#C856F5"/>
<stop offset="0.91" stop-color="#DF47F4"/>
<stop offset="1" stop-color="#E742F4"/>
</linearGradient>
<linearGradient id="paint2_linear_2234_52526" x1="181.234" y1="16.7692" x2="190.401" y2="16.7692" gradientUnits="userSpaceOnUse">
<stop stop-color="#00DAFF"/>
<stop offset="0.16" stop-color="#31BAFD"/>
<stop offset="0.38" stop-color="#7190FA"/>
<stop offset="0.59" stop-color="#A46EF7"/>
<stop offset="0.76" stop-color="#C856F5"/>
<stop offset="0.91" stop-color="#DF47F4"/>
<stop offset="1" stop-color="#E742F4"/>
</linearGradient>
</defs>
</svg>
