<svg width="19" height="20" viewBox="0 0 19 20" fill="none" xmlns="http://www.w3.org/2000/svg">
<path d="M0.481988 2.60931C-0.802577 5.75087 0.696653 9.83286 2.44462 12.4906C4.3966 15.461 7.32927 17.6521 10.7313 18.6817C11.9988 19.0701 12.5099 17.3971 11.716 16.6203C11.7119 16.5972 11.7062 16.5744 11.6989 16.5521C10.2542 11.942 8.8947 7.29099 7.3614 2.71154C6.84348 1.16461 5.8281 -0.0654458 4.04947 0.00270094C3.26598 0.0439705 2.51145 0.312422 1.87796 0.775289C1.24446 1.23816 0.759406 1.87542 0.481988 2.60931ZM4.63894 2.55479C5.12278 2.93301 5.2693 4.10853 5.43967 4.6503C5.69522 5.46806 5.95417 6.28582 6.20972 7.10359C7.06155 9.81582 7.91112 12.5281 8.75841 15.2403C5.01034 13.0494 1.99144 8.74933 2.49231 4.43565C2.5809 3.64174 3.51452 1.67229 4.62531 2.55479H4.63894Z" fill="url(#paint0_linear_2234_52523)"/>
<path d="M14.9836 6.53459C13.2424 7.95545 12.8199 10.804 12.9869 12.9097C13.1826 15.2542 14.1942 17.4559 15.8456 19.1315C16.4589 19.7584 17.2869 18.9509 17.0723 18.2456V18.2013C17.6924 15.0631 18.3773 11.9318 18.9361 8.78002C19.1235 7.71694 18.9361 6.6811 17.8696 6.15637C17.4032 5.93488 16.8827 5.85274 16.3708 5.91983C15.8588 5.98692 15.3771 6.2004 14.9836 6.53459ZM17.4164 7.82256C17.5766 8.19396 17.2903 8.92313 17.2188 9.29452C17.1097 9.84992 16.9973 10.4087 16.878 10.9641L15.7843 16.501C14.3055 14.0444 13.9034 10.5859 15.5628 8.23485C15.8695 7.80212 17.0416 6.95369 17.4164 7.82256Z" fill="url(#paint1_linear_2234_52523)"/>
<defs>
<linearGradient id="paint0_linear_2234_52523" x1="-0.000417046" y1="9.37124" x2="12.0958" y2="9.37124" gradientUnits="userSpaceOnUse">
<stop stop-color="#00DAFF"/>
<stop offset="0.16" stop-color="#31BAFD"/>
<stop offset="0.38" stop-color="#7190FA"/>
<stop offset="0.59" stop-color="#A46EF7"/>
<stop offset="0.76" stop-color="#C856F5"/>
<stop offset="0.91" stop-color="#DF47F4"/>
<stop offset="1" stop-color="#E742F4"/>
</linearGradient>
<linearGradient id="paint1_linear_2234_52523" x1="12.953" y1="12.6281" x2="19.0002" y2="12.6281" gradientUnits="userSpaceOnUse">
<stop stop-color="#00DAFF"/>
<stop offset="0.16" stop-color="#31BAFD"/>
<stop offset="0.38" stop-color="#7190FA"/>
<stop offset="0.59" stop-color="#A46EF7"/>
<stop offset="0.76" stop-color="#C856F5"/>
<stop offset="0.91" stop-color="#DF47F4"/>
<stop offset="1" stop-color="#E742F4"/>
</linearGradient>
</defs>
</svg>
