<svg width="54" height="41" viewBox="0 0 54 41" fill="none" xmlns="http://www.w3.org/2000/svg">
<path d="M15.8486 3.90178L17.2958 13.9219C12.4787 15.3939 7.6584 16.8665 2.83485 18.3396C2.30953 18.4446 1.83028 18.7122 1.46398 19.1049C1.09767 19.4977 0.862589 19.9961 0.791557 20.5305C0.733672 21.0732 0.856103 21.6204 1.1397 22.0864C1.42329 22.5525 1.85207 22.9112 2.35905 23.1065L19.2986 27.7024L20.876 38.5056C21.2085 40.8043 24.9912 41.4425 25.6018 38.987C26.3578 35.9891 27.4017 33.073 28.719 30.2798L48.7867 35.6631C49.3982 35.878 50.0676 35.8502 50.6584 35.5856C51.2492 35.3209 51.717 34.8393 51.9666 34.2388C52.194 33.6247 52.1723 32.9447 51.9063 32.3454C51.6403 31.7461 51.1512 31.2754 50.5444 31.0349L31.1525 25.7505C32.6727 23.2332 34.4225 20.8643 36.3794 18.6742C40.7639 21.9686 45.0259 25.4277 49.1654 29.0513C49.7005 29.428 50.3604 29.579 51.0037 29.472C51.6471 29.3649 52.2226 29.0084 52.6069 28.4787C52.9726 27.9386 53.1167 27.2768 53.0093 26.6312C52.9019 25.9856 52.5513 25.4061 52.0304 25.0135C48.1287 21.5783 44.0915 18.2898 39.9189 15.1479C41.9743 13.2966 44.1979 11.6435 46.5605 10.2102C47.0931 9.94971 47.5157 9.50656 47.7525 8.96022C47.9893 8.41389 48.0249 7.80008 47.8528 7.22883C47.688 6.65349 47.3174 6.15956 46.8126 5.84227C46.3078 5.52499 45.7046 5.40686 45.1193 5.51072L32.0872 9.44926C28.0661 6.65768 23.9587 3.98777 19.765 1.43953C19.3626 1.146 18.8826 0.979805 18.3864 0.962277C17.8903 0.944748 17.4005 1.07666 16.9799 1.3411C16.5593 1.60555 16.2269 1.9905 16.0254 2.44668C15.8239 2.90286 15.7623 3.40953 15.8486 3.90178ZM12.1545 20.6118C14.1132 20.0144 16.0638 19.4283 18.0128 18.8325L18.5261 22.3384C16.4049 21.7591 14.2816 21.1868 12.1562 20.6216L12.1545 20.6118ZM26.1538 24.4092L23.7047 23.7403L22.7791 17.3957C25.5657 16.5499 28.3425 15.7056 31.1307 14.8696L32.3776 15.7587C30.012 18.4212 27.9269 21.3234 26.1555 24.419L26.1538 24.4092ZM22.0686 12.4639L21.4673 8.3691C22.9589 9.32811 24.4533 10.3035 25.9503 11.2951C24.6575 11.6913 23.3646 12.0874 22.0702 12.4737L22.0686 12.4639Z" fill="#F489FD"/>
</svg>
