<svg width="12" height="19" viewBox="0 0 12 19" fill="none" xmlns="http://www.w3.org/2000/svg">
<g filter="url(#filter0_d_6193_31679)">
<path d="M11.169 6.1686C11.1405 6.1167 11.0985 6.07354 11.0473 6.0438C10.9962 6.01405 10.9379 5.99884 10.8787 5.9998L6.02367 6.10655L8.38793 0.446838C8.40891 0.397947 8.41719 0.34454 8.41199 0.291587C8.40678 0.238634 8.38826 0.187858 8.35816 0.143994C8.3291 0.0994833 8.28934 0.0629818 8.24253 0.0378281C8.19572 0.0126745 8.14335 -0.000327703 8.09022 1.90294e-05H1.83847C1.76116 -0.000823978 1.68616 0.0263673 1.62733 0.0765615C1.5685 0.126756 1.52981 0.19656 1.51842 0.273076L0.00262356 10.0485C-0.00310046 10.0928 0.000565564 10.1378 0.0133895 10.1805C0.0262134 10.2233 0.0479042 10.2629 0.0770463 10.2967C0.107421 10.3329 0.145418 10.3619 0.188309 10.3816C0.231201 10.4013 0.277923 10.4114 0.325132 10.4109H4.75594L3.37163 16.8649C3.36075 16.9122 3.36071 16.9612 3.37151 17.0084C3.38232 17.0557 3.40369 17.0998 3.43402 17.1376C3.46435 17.1753 3.50286 17.2057 3.54663 17.2264C3.5904 17.2471 3.63828 17.2576 3.68669 17.2572C3.73952 17.2573 3.79159 17.2445 3.83831 17.2198C3.88503 17.1952 3.92497 17.1594 3.95463 17.1157L11.1491 6.4913C11.1807 6.44411 11.1993 6.38935 11.2027 6.33264C11.2062 6.27593 11.1946 6.21932 11.169 6.1686Z" fill="#FCEDFE"/>
<path d="M3.37163 16.8649L4.6487 10.9109H4.75594V10.4109L4.26706 10.306L4.24457 10.4109L3.37163 16.8649ZM3.37163 16.8649C3.36075 16.9122 3.36071 16.9612 3.37151 17.0084C3.38232 17.0557 3.40369 17.0998 3.43402 17.1376L3.37163 16.8649ZM3.68378 16.9369L3.68695 16.9344L3.68378 16.9369ZM3.68378 16.9369L3.6837 16.937L3.68356 16.9371L3.68345 16.9372L3.68355 16.9371L3.68372 16.937L3.68378 16.9369ZM6.03466 6.60643L10.5343 6.50749L4.05103 16.0816L5.24482 10.5158L5.37456 9.9109H4.75594H0.529932L1.98921 0.500019H7.82384L5.56231 5.91382L5.26592 6.62333L6.03466 6.60643ZM0.300025 10.0946L0.317789 10.0893L0.300025 10.0946ZM7.92708 0.252868C7.92752 0.25179 7.92799 0.250716 7.92845 0.249646L7.92708 0.252868Z" stroke="#19154A"/>
</g>
<defs>
<filter id="filter0_d_6193_31679" x="0" y="0" width="11.756" height="18.3875" filterUnits="userSpaceOnUse" color-interpolation-filters="sRGB">
<feFlood flood-opacity="0" result="BackgroundImageFix"/>
<feColorMatrix in="SourceAlpha" type="matrix" values="0 0 0 0 0 0 0 0 0 0 0 0 0 0 0 0 0 0 127 0" result="hardAlpha"/>
<feOffset dx="0.552631" dy="1.13038"/>
<feComposite in2="hardAlpha" operator="out"/>
<feColorMatrix type="matrix" values="0 0 0 0 0.458824 0 0 0 0 0 0 0 0 0 0.494118 0 0 0 1 0"/>
<feBlend mode="normal" in2="BackgroundImageFix" result="effect1_dropShadow_6193_31679"/>
<feBlend mode="normal" in="SourceGraphic" in2="effect1_dropShadow_6193_31679" result="shape"/>
</filter>
</defs>
</svg>
