<svg width="421" height="23" viewBox="0 0 421 23" fill="none" xmlns="http://www.w3.org/2000/svg">
<path d="M7.68459 18.3261C6.35659 18.3261 5.17259 18.0381 4.13259 17.4621C3.10859 16.8701 2.30059 16.0621 1.70859 15.0381C1.11659 14.0141 0.820594 12.8541 0.820594 11.5581V1.21412H4.08459V11.6541C4.08459 12.4061 4.23659 13.0541 4.54059 13.5981C4.86059 14.1421 5.29259 14.5661 5.83659 14.8701C6.39659 15.1581 7.01259 15.3021 7.68459 15.3021C8.37259 15.3021 8.98059 15.1581 9.50859 14.8701C10.0366 14.5661 10.4526 14.1421 10.7566 13.5981C11.0766 13.0541 11.2366 12.4141 11.2366 11.6781V1.21412H14.5246V11.5821C14.5246 12.8781 14.2286 14.0381 13.6366 15.0621C13.0446 16.0701 12.2366 16.8701 11.2126 17.4621C10.2046 18.0381 9.02859 18.3261 7.68459 18.3261ZM21.3955 18.3501C20.7395 18.3501 20.0915 18.2621 19.4515 18.0861C18.8275 17.9101 18.2515 17.6701 17.7235 17.3661C17.1955 17.0461 16.7395 16.6621 16.3555 16.2141L18.2275 14.3181C18.6275 14.7661 19.0915 15.1021 19.6195 15.3261C20.1475 15.5501 20.7315 15.6621 21.3715 15.6621C21.8835 15.6621 22.2675 15.5901 22.5235 15.4461C22.7955 15.3021 22.9315 15.0861 22.9315 14.7981C22.9315 14.4781 22.7875 14.2301 22.4995 14.0541C22.2275 13.8781 21.8675 13.7341 21.4195 13.6221C20.9715 13.4941 20.4995 13.3581 20.0035 13.2141C19.5235 13.0541 19.0595 12.8541 18.6115 12.6141C18.1635 12.3581 17.7955 12.0141 17.5075 11.5821C17.2355 11.1341 17.0995 10.5581 17.0995 9.85412C17.0995 9.11812 17.2755 8.47812 17.6275 7.93412C17.9955 7.39012 18.5155 6.96612 19.1875 6.66212C19.8595 6.35812 20.6515 6.20612 21.5635 6.20612C22.5235 6.20612 23.3875 6.37412 24.1555 6.71012C24.9395 7.04612 25.5875 7.55012 26.0995 8.22212L24.2035 10.1181C23.8515 9.68612 23.4515 9.37412 23.0035 9.18212C22.5715 8.99012 22.0995 8.89412 21.5875 8.89412C21.1235 8.89412 20.7635 8.96612 20.5075 9.11012C20.2675 9.25412 20.1475 9.45412 20.1475 9.71012C20.1475 9.99812 20.2835 10.2221 20.5555 10.3821C20.8435 10.5421 21.2115 10.6861 21.6595 10.8141C22.1075 10.9261 22.5715 11.0621 23.0515 11.2221C23.5475 11.3661 24.0115 11.5741 24.4435 11.8461C24.8915 12.1181 25.2515 12.4781 25.5235 12.9261C25.8115 13.3741 25.9555 13.9501 25.9555 14.6541C25.9555 15.7901 25.5475 16.6941 24.7315 17.3661C23.9155 18.0221 22.8035 18.3501 21.3955 18.3501ZM33.6196 18.3261C32.4036 18.3261 31.3236 18.0701 30.3796 17.5581C29.4356 17.0301 28.6836 16.3101 28.1236 15.3981C27.5796 14.4861 27.3076 13.4461 27.3076 12.2781C27.3076 11.1261 27.5716 10.1021 28.0996 9.20612C28.6436 8.29412 29.3796 7.57412 30.3076 7.04612C31.2356 6.50212 32.2676 6.23012 33.4036 6.23012C34.5236 6.23012 35.5076 6.48612 36.3556 6.99812C37.2196 7.49412 37.8916 8.18212 38.3716 9.06212C38.8676 9.92612 39.1156 10.9101 39.1156 12.0141C39.1156 12.2221 39.0996 12.4381 39.0676 12.6621C39.0516 12.8701 39.0116 13.1101 38.9476 13.3821L29.2036 13.4061V11.0541L37.4836 11.0301L36.2116 12.0141C36.1796 11.3261 36.0516 10.7501 35.8276 10.2861C35.6196 9.82212 35.3076 9.47012 34.8916 9.23012C34.4916 8.97412 33.9956 8.84612 33.4036 8.84612C32.7796 8.84612 32.2356 8.99012 31.7716 9.27812C31.3076 9.55012 30.9476 9.94212 30.6916 10.4541C30.4516 10.9501 30.3316 11.5421 30.3316 12.2301C30.3316 12.9341 30.4596 13.5501 30.7156 14.0781C30.9876 14.5901 31.3716 14.9901 31.8676 15.2781C32.3636 15.5501 32.9396 15.6861 33.5956 15.6861C34.1876 15.6861 34.7236 15.5901 35.2036 15.3981C35.6836 15.1901 36.0996 14.8861 36.4516 14.4861L38.2996 16.3341C37.7396 16.9901 37.0516 17.4861 36.2356 17.8221C35.4356 18.1581 34.5636 18.3261 33.6196 18.3261ZM51.4835 18.0861L44.8355 1.21412H48.3635L53.4995 14.8701H52.1315L57.3155 1.21412H60.7955L54.0755 18.0861H51.4835ZM62.6693 18.0861V6.49412H65.8373V18.0861H62.6693ZM64.2533 4.62212C63.7413 4.62212 63.3173 4.45412 62.9813 4.11812C62.6453 3.76612 62.4773 3.33412 62.4773 2.82212C62.4773 2.32612 62.6453 1.90212 62.9813 1.55012C63.3173 1.19812 63.7413 1.02212 64.2533 1.02212C64.7813 1.02212 65.2053 1.19812 65.5253 1.55012C65.8613 1.90212 66.0293 2.32612 66.0293 2.82212C66.0293 3.33412 65.8613 3.76612 65.5253 4.11812C65.2053 4.45412 64.7813 4.62212 64.2533 4.62212ZM75.0545 18.3261C74.2225 18.3261 73.4705 18.1501 72.7985 17.7981C72.1265 17.4461 71.5905 16.9661 71.1905 16.3581C70.7905 15.7501 70.5745 15.0701 70.5425 14.3181V10.1901C70.5745 9.43812 70.7905 8.76612 71.1905 8.17412C71.6065 7.56612 72.1505 7.09412 72.8225 6.75812C73.4945 6.42212 74.2385 6.25412 75.0545 6.25412C76.1265 6.25412 77.0865 6.51812 77.9345 7.04612C78.7825 7.57412 79.4465 8.29412 79.9265 9.20612C80.4225 10.1181 80.6705 11.1501 80.6705 12.3021C80.6705 13.4381 80.4225 14.4621 79.9265 15.3741C79.4465 16.2861 78.7825 17.0061 77.9345 17.5341C77.0865 18.0621 76.1265 18.3261 75.0545 18.3261ZM74.5265 15.4221C75.1025 15.4221 75.6065 15.2941 76.0385 15.0381C76.4865 14.7661 76.8305 14.3981 77.0705 13.9341C77.3265 13.4541 77.4545 12.9021 77.4545 12.2781C77.4545 11.6701 77.3265 11.1341 77.0705 10.6701C76.8305 10.1901 76.4865 9.82212 76.0385 9.56612C75.5905 9.29412 75.0785 9.15812 74.5025 9.15812C73.9265 9.15812 73.4145 9.29412 72.9665 9.56612C72.5345 9.82212 72.1905 10.1901 71.9345 10.6701C71.6945 11.1341 71.5745 11.6701 71.5745 12.2781C71.5745 12.9021 71.6945 13.4541 71.9345 13.9341C72.1905 14.3981 72.5425 14.7661 72.9905 15.0381C73.4385 15.2941 73.9505 15.4221 74.5265 15.4221ZM68.6225 18.0861V0.734119H71.7665V9.35012L71.2385 12.1341L71.7425 14.9661V18.0861H68.6225ZM88.2758 18.3261C87.0598 18.3261 85.9798 18.0701 85.0358 17.5581C84.0918 17.0301 83.3398 16.3101 82.7798 15.3981C82.2358 14.4861 81.9638 13.4461 81.9638 12.2781C81.9638 11.1261 82.2278 10.1021 82.7558 9.20612C83.2998 8.29412 84.0358 7.57412 84.9638 7.04612C85.8918 6.50212 86.9238 6.23012 88.0598 6.23012C89.1798 6.23012 90.1638 6.48612 91.0118 6.99812C91.8758 7.49412 92.5478 8.18212 93.0278 9.06212C93.5238 9.92612 93.7718 10.9101 93.7718 12.0141C93.7718 12.2221 93.7558 12.4381 93.7238 12.6621C93.7078 12.8701 93.6678 13.1101 93.6038 13.3821L83.8598 13.4061V11.0541L92.1398 11.0301L90.8678 12.0141C90.8358 11.3261 90.7078 10.7501 90.4838 10.2861C90.2758 9.82212 89.9638 9.47012 89.5478 9.23012C89.1478 8.97412 88.6518 8.84612 88.0598 8.84612C87.4358 8.84612 86.8918 8.99012 86.4278 9.27812C85.9638 9.55012 85.6038 9.94212 85.3478 10.4541C85.1078 10.9501 84.9878 11.5421 84.9878 12.2301C84.9878 12.9341 85.1158 13.5501 85.3718 14.0781C85.6438 14.5901 86.0278 14.9901 86.5238 15.2781C87.0198 15.5501 87.5958 15.6861 88.2518 15.6861C88.8438 15.6861 89.3798 15.5901 89.8598 15.3981C90.3398 15.1901 90.7558 14.8861 91.1078 14.4861L92.9558 16.3341C92.3958 16.9901 91.7078 17.4861 90.8918 17.8221C90.0918 18.1581 89.2198 18.3261 88.2758 18.3261ZM94.9002 16.2861L101.044 8.29412H104.836L98.6922 16.2861H94.9002ZM94.9002 18.0861V16.2861L97.3962 15.3501H104.692V18.0861H94.9002ZM95.3322 9.23012V6.49412H104.836V8.29412L102.316 9.23012H95.3322ZM110.88 18.3501C110.224 18.3501 109.576 18.2621 108.936 18.0861C108.312 17.9101 107.736 17.6701 107.208 17.3661C106.68 17.0461 106.224 16.6621 105.84 16.2141L107.712 14.3181C108.112 14.7661 108.576 15.1021 109.104 15.3261C109.632 15.5501 110.216 15.6621 110.856 15.6621C111.368 15.6621 111.752 15.5901 112.008 15.4461C112.28 15.3021 112.416 15.0861 112.416 14.7981C112.416 14.4781 112.272 14.2301 111.984 14.0541C111.712 13.8781 111.352 13.7341 110.904 13.6221C110.456 13.4941 109.984 13.3581 109.488 13.2141C109.008 13.0541 108.544 12.8541 108.096 12.6141C107.648 12.3581 107.28 12.0141 106.992 11.5821C106.72 11.1341 106.584 10.5581 106.584 9.85412C106.584 9.11812 106.76 8.47812 107.112 7.93412C107.48 7.39012 108 6.96612 108.672 6.66212C109.344 6.35812 110.136 6.20612 111.048 6.20612C112.008 6.20612 112.872 6.37412 113.64 6.71012C114.424 7.04612 115.072 7.55012 115.584 8.22212L113.688 10.1181C113.336 9.68612 112.936 9.37412 112.488 9.18212C112.056 8.99012 111.584 8.89412 111.072 8.89412C110.608 8.89412 110.248 8.96612 109.992 9.11012C109.752 9.25412 109.632 9.45412 109.632 9.71012C109.632 9.99812 109.768 10.2221 110.04 10.3821C110.328 10.5421 110.696 10.6861 111.144 10.8141C111.592 10.9261 112.056 11.0621 112.536 11.2221C113.032 11.3661 113.496 11.5741 113.928 11.8461C114.376 12.1181 114.736 12.4781 115.008 12.9261C115.296 13.3741 115.44 13.9501 115.44 14.6541C115.44 15.7901 115.032 16.6941 114.216 17.3661C113.4 18.0221 112.288 18.3501 110.88 18.3501ZM124.544 18.3261C123.216 18.3261 122.032 18.0381 120.992 17.4621C119.968 16.8701 119.16 16.0621 118.568 15.0381C117.976 14.0141 117.68 12.8541 117.68 11.5581V1.21412H120.944V11.6541C120.944 12.4061 121.096 13.0541 121.4 13.5981C121.72 14.1421 122.152 14.5661 122.696 14.8701C123.256 15.1581 123.872 15.3021 124.544 15.3021C125.232 15.3021 125.84 15.1581 126.368 14.8701C126.896 14.5661 127.312 14.1421 127.616 13.5981C127.936 13.0541 128.096 12.4141 128.096 11.6781V1.21412H131.384V11.5821C131.384 12.8781 131.088 14.0381 130.496 15.0621C129.904 16.0701 129.096 16.8701 128.072 17.4621C127.064 18.0381 125.888 18.3261 124.544 18.3261ZM140.703 18.3261C139.871 18.3261 139.119 18.1581 138.447 17.8221C137.775 17.4701 137.239 16.9981 136.839 16.4061C136.439 15.8141 136.223 15.1341 136.191 14.3661V10.2621C136.223 9.49412 136.439 8.81412 136.839 8.22212C137.255 7.61412 137.791 7.13412 138.447 6.78212C139.119 6.43012 139.871 6.25412 140.703 6.25412C141.775 6.25412 142.735 6.51812 143.583 7.04612C144.431 7.57412 145.095 8.29412 145.575 9.20612C146.071 10.1181 146.319 11.1501 146.319 12.3021C146.319 13.4381 146.071 14.4621 145.575 15.3741C145.095 16.2861 144.431 17.0061 143.583 17.5341C142.735 18.0621 141.775 18.3261 140.703 18.3261ZM140.151 15.4221C140.727 15.4221 141.239 15.2941 141.687 15.0381C142.135 14.7661 142.479 14.3981 142.719 13.9341C142.975 13.4541 143.103 12.9021 143.103 12.2781C143.103 11.6701 142.975 11.1341 142.719 10.6701C142.479 10.1901 142.135 9.82212 141.687 9.56612C141.239 9.29412 140.727 9.15812 140.151 9.15812C139.591 9.15812 139.087 9.29412 138.639 9.56612C138.191 9.82212 137.839 10.1901 137.583 10.6701C137.343 11.1341 137.223 11.6701 137.223 12.2781C137.223 12.9021 137.343 13.4541 137.583 13.9341C137.839 14.3981 138.183 14.7661 138.615 15.0381C139.063 15.2941 139.575 15.4221 140.151 15.4221ZM134.271 22.9341V6.49412H137.415V9.54212L136.887 12.3501L137.391 15.1581V22.9341H134.271ZM154.772 18.0861V1.67012H157.916V18.0861H154.772ZM152.06 9.25412V6.49412H160.628V9.25412H152.06ZM167.563 18.3261C166.395 18.3261 165.339 18.0621 164.395 17.5341C163.467 16.9901 162.723 16.2621 162.163 15.3501C161.619 14.4221 161.347 13.3901 161.347 12.2541C161.347 11.1181 161.619 10.1021 162.163 9.20612C162.707 8.29412 163.451 7.57412 164.395 7.04612C165.339 6.50212 166.387 6.23012 167.539 6.23012C168.723 6.23012 169.779 6.50212 170.707 7.04612C171.651 7.57412 172.395 8.29412 172.939 9.20612C173.483 10.1021 173.755 11.1181 173.755 12.2541C173.755 13.3901 173.483 14.4221 172.939 15.3501C172.395 16.2621 171.651 16.9901 170.707 17.5341C169.779 18.0621 168.731 18.3261 167.563 18.3261ZM167.539 15.3981C168.131 15.3981 168.651 15.2701 169.099 15.0141C169.563 14.7421 169.915 14.3741 170.155 13.9101C170.411 13.4301 170.539 12.8861 170.539 12.2781C170.539 11.6701 170.411 11.1341 170.155 10.6701C169.899 10.2061 169.547 9.84612 169.099 9.59012C168.651 9.31812 168.131 9.18212 167.539 9.18212C166.963 9.18212 166.451 9.31812 166.003 9.59012C165.555 9.84612 165.203 10.2061 164.947 10.6701C164.691 11.1341 164.563 11.6701 164.563 12.2781C164.563 12.8861 164.691 13.4301 164.947 13.9101C165.203 14.3741 165.555 14.7421 166.003 15.0141C166.451 15.2701 166.963 15.3981 167.539 15.3981ZM180.802 18.0861V1.21412H184.066V18.0861H180.802ZM183.202 11.1741V8.27012H191.698V11.1741H183.202ZM183.202 4.09412V1.21412H192.106V4.09412H183.202ZM194.341 18.0861V6.49412H197.509V18.0861H194.341ZM195.925 4.62212C195.413 4.62212 194.989 4.45412 194.653 4.11812C194.317 3.76612 194.149 3.33412 194.149 2.82212C194.149 2.32612 194.317 1.90212 194.653 1.55012C194.989 1.19812 195.413 1.02212 195.925 1.02212C196.453 1.02212 196.877 1.19812 197.197 1.55012C197.533 1.90212 197.701 2.32612 197.701 2.82212C197.701 3.33412 197.533 3.76612 197.197 4.11812C196.877 4.45412 196.453 4.62212 195.925 4.62212ZM208.094 18.0861V11.4381C208.094 10.7501 207.878 10.1901 207.446 9.75812C207.014 9.32612 206.454 9.11012 205.766 9.11012C205.318 9.11012 204.918 9.20612 204.566 9.39812C204.214 9.59012 203.934 9.86212 203.726 10.2141C203.534 10.5661 203.438 10.9741 203.438 11.4381L202.214 10.8141C202.214 9.90212 202.406 9.11012 202.79 8.43812C203.19 7.75012 203.734 7.21412 204.422 6.83012C205.126 6.44612 205.918 6.25412 206.798 6.25412C207.646 6.25412 208.406 6.47012 209.078 6.90212C209.75 7.31812 210.278 7.87012 210.662 8.55812C211.046 9.23012 211.238 9.95812 211.238 10.7421V18.0861H208.094ZM200.294 18.0861V6.49412H203.438V18.0861H200.294ZM218.667 18.3261C217.595 18.3261 216.635 18.0621 215.787 17.5341C214.939 17.0061 214.267 16.2861 213.771 15.3741C213.291 14.4621 213.051 13.4381 213.051 12.3021C213.051 11.1501 213.291 10.1181 213.771 9.20612C214.267 8.29412 214.931 7.57412 215.763 7.04612C216.611 6.51812 217.579 6.25412 218.667 6.25412C219.499 6.25412 220.243 6.42212 220.899 6.75812C221.571 7.09412 222.107 7.56612 222.507 8.17412C222.923 8.76612 223.147 9.43812 223.179 10.1901V14.3181C223.147 15.0701 222.931 15.7501 222.531 16.3581C222.131 16.9661 221.595 17.4461 220.923 17.7981C220.251 18.1501 219.499 18.3261 218.667 18.3261ZM219.195 15.4221C219.787 15.4221 220.299 15.2941 220.731 15.0381C221.179 14.7661 221.523 14.3981 221.763 13.9341C222.019 13.4541 222.147 12.9021 222.147 12.2781C222.147 11.6701 222.019 11.1341 221.763 10.6701C221.523 10.1901 221.179 9.82212 220.731 9.56612C220.299 9.29412 219.795 9.15812 219.219 9.15812C218.627 9.15812 218.107 9.29412 217.659 9.56612C217.227 9.83812 216.883 10.2061 216.627 10.6701C216.387 11.1341 216.267 11.6701 216.267 12.2781C216.267 12.9021 216.387 13.4541 216.627 13.9341C216.883 14.3981 217.235 14.7661 217.683 15.0381C218.131 15.2941 218.635 15.4221 219.195 15.4221ZM225.099 18.0861H221.979V14.9661L222.483 12.1341L221.955 9.35012V0.734119H225.099V18.0861ZM236.216 18.1821L231.368 6.49412H234.776L237.992 15.4221H236.84L240.176 6.49412H243.608L238.448 18.1581L236.216 18.1821ZM233 22.9341L236.528 15.4701L238.448 18.1581L236.336 22.9341H233ZM250.133 18.3261C248.965 18.3261 247.909 18.0621 246.965 17.5341C246.037 16.9901 245.293 16.2621 244.733 15.3501C244.189 14.4221 243.917 13.3901 243.917 12.2541C243.917 11.1181 244.189 10.1021 244.733 9.20612C245.277 8.29412 246.021 7.57412 246.965 7.04612C247.909 6.50212 248.957 6.23012 250.109 6.23012C251.293 6.23012 252.349 6.50212 253.277 7.04612C254.221 7.57412 254.965 8.29412 255.509 9.20612C256.053 10.1021 256.325 11.1181 256.325 12.2541C256.325 13.3901 256.053 14.4221 255.509 15.3501C254.965 16.2621 254.221 16.9901 253.277 17.5341C252.349 18.0621 251.301 18.3261 250.133 18.3261ZM250.109 15.3981C250.701 15.3981 251.221 15.2701 251.669 15.0141C252.133 14.7421 252.485 14.3741 252.725 13.9101C252.981 13.4301 253.109 12.8861 253.109 12.2781C253.109 11.6701 252.981 11.1341 252.725 10.6701C252.469 10.2061 252.117 9.84612 251.669 9.59012C251.221 9.31812 250.701 9.18212 250.109 9.18212C249.533 9.18212 249.021 9.31812 248.573 9.59012C248.125 9.84612 247.773 10.2061 247.517 10.6701C247.261 11.1341 247.133 11.6701 247.133 12.2781C247.133 12.8861 247.261 13.4301 247.517 13.9101C247.773 14.3741 248.125 14.7421 248.573 15.0141C249.021 15.2701 249.533 15.3981 250.109 15.3981ZM263.293 18.3261C262.269 18.3261 261.357 18.1101 260.557 17.6781C259.773 17.2461 259.157 16.6461 258.709 15.8781C258.261 15.1101 258.037 14.2221 258.037 13.2141V6.49412H261.205V13.1421C261.205 13.6221 261.285 14.0381 261.445 14.3901C261.605 14.7261 261.845 14.9821 262.165 15.1581C262.485 15.3341 262.861 15.4221 263.293 15.4221C263.949 15.4221 264.461 15.2221 264.829 14.8221C265.197 14.4221 265.381 13.8621 265.381 13.1421V6.49412H268.525V13.2141C268.525 14.2381 268.301 15.1341 267.853 15.9021C267.421 16.6701 266.805 17.2701 266.005 17.7021C265.221 18.1181 264.317 18.3261 263.293 18.3261ZM271.029 18.0861V6.49412H274.173V18.0861H271.029ZM274.173 11.6781L272.949 10.8621C273.093 9.43812 273.509 8.31812 274.197 7.50212C274.885 6.67012 275.877 6.25412 277.173 6.25412C277.733 6.25412 278.237 6.35012 278.685 6.54212C279.133 6.71812 279.541 7.01412 279.909 7.43012L277.941 9.68612C277.765 9.49412 277.549 9.35012 277.293 9.25412C277.053 9.15812 276.773 9.11012 276.453 9.11012C275.781 9.11012 275.229 9.32612 274.797 9.75812C274.381 10.1741 274.173 10.8141 274.173 11.6781ZM286.458 18.0861V1.21412H289.722V18.0861H286.458ZM297.042 18.0861V1.21412H300.306V18.0861H297.042ZM288.522 10.8141V7.93412H297.954V10.8141H288.522ZM308.267 18.3261C307.211 18.3261 306.259 18.0621 305.411 17.5341C304.563 17.0061 303.899 16.2861 303.419 15.3741C302.939 14.4621 302.699 13.4381 302.699 12.3021C302.699 11.1501 302.939 10.1181 303.419 9.20612C303.899 8.29412 304.563 7.57412 305.411 7.04612C306.259 6.51812 307.211 6.25412 308.267 6.25412C309.099 6.25412 309.843 6.42212 310.499 6.75812C311.155 7.09412 311.675 7.56612 312.059 8.17412C312.459 8.76612 312.675 9.43812 312.707 10.1901V14.3661C312.675 15.1341 312.459 15.8141 312.059 16.4061C311.675 16.9981 311.155 17.4701 310.499 17.8221C309.843 18.1581 309.099 18.3261 308.267 18.3261ZM308.843 15.4221C309.723 15.4221 310.435 15.1341 310.979 14.5581C311.523 13.9661 311.795 13.2061 311.795 12.2781C311.795 11.6701 311.667 11.1341 311.411 10.6701C311.171 10.1901 310.827 9.82212 310.379 9.56612C309.947 9.29412 309.435 9.15812 308.843 9.15812C308.267 9.15812 307.755 9.29412 307.307 9.56612C306.875 9.82212 306.531 10.1901 306.275 10.6701C306.035 11.1341 305.915 11.6701 305.915 12.2781C305.915 12.9021 306.035 13.4541 306.275 13.9341C306.531 14.3981 306.875 14.7661 307.307 15.0381C307.755 15.2941 308.267 15.4221 308.843 15.4221ZM311.627 18.0861V14.9661L312.131 12.1341L311.627 9.35012V6.49412H314.747V18.0861H311.627ZM323.961 18.3261C323.129 18.3261 322.377 18.1581 321.705 17.8221C321.033 17.4701 320.497 16.9981 320.097 16.4061C319.697 15.8141 319.481 15.1341 319.449 14.3661V10.2621C319.481 9.49412 319.697 8.81412 320.097 8.22212C320.513 7.61412 321.049 7.13412 321.705 6.78212C322.377 6.43012 323.129 6.25412 323.961 6.25412C325.033 6.25412 325.993 6.51812 326.841 7.04612C327.689 7.57412 328.353 8.29412 328.833 9.20612C329.329 10.1181 329.577 11.1501 329.577 12.3021C329.577 13.4381 329.329 14.4621 328.833 15.3741C328.353 16.2861 327.689 17.0061 326.841 17.5341C325.993 18.0621 325.033 18.3261 323.961 18.3261ZM323.409 15.4221C323.985 15.4221 324.497 15.2941 324.945 15.0381C325.393 14.7661 325.737 14.3981 325.977 13.9341C326.233 13.4541 326.361 12.9021 326.361 12.2781C326.361 11.6701 326.233 11.1341 325.977 10.6701C325.737 10.1901 325.393 9.82212 324.945 9.56612C324.497 9.29412 323.985 9.15812 323.409 9.15812C322.849 9.15812 322.345 9.29412 321.897 9.56612C321.449 9.82212 321.097 10.1901 320.841 10.6701C320.601 11.1341 320.481 11.6701 320.481 12.2781C320.481 12.9021 320.601 13.4541 320.841 13.9341C321.097 14.3981 321.441 14.7661 321.873 15.0381C322.321 15.2941 322.833 15.4221 323.409 15.4221ZM317.529 22.9341V6.49412H320.673V9.54212L320.145 12.3501L320.649 15.1581V22.9341H317.529ZM338.07 18.3261C337.238 18.3261 336.486 18.1581 335.814 17.8221C335.142 17.4701 334.606 16.9981 334.206 16.4061C333.806 15.8141 333.59 15.1341 333.558 14.3661V10.2621C333.59 9.49412 333.806 8.81412 334.206 8.22212C334.622 7.61412 335.158 7.13412 335.814 6.78212C336.486 6.43012 337.238 6.25412 338.07 6.25412C339.142 6.25412 340.102 6.51812 340.95 7.04612C341.798 7.57412 342.462 8.29412 342.942 9.20612C343.438 10.1181 343.686 11.1501 343.686 12.3021C343.686 13.4381 343.438 14.4621 342.942 15.3741C342.462 16.2861 341.798 17.0061 340.95 17.5341C340.102 18.0621 339.142 18.3261 338.07 18.3261ZM337.518 15.4221C338.094 15.4221 338.606 15.2941 339.054 15.0381C339.502 14.7661 339.846 14.3981 340.086 13.9341C340.342 13.4541 340.47 12.9021 340.47 12.2781C340.47 11.6701 340.342 11.1341 340.086 10.6701C339.846 10.1901 339.502 9.82212 339.054 9.56612C338.606 9.29412 338.094 9.15812 337.518 9.15812C336.958 9.15812 336.454 9.29412 336.006 9.56612C335.558 9.82212 335.206 10.1901 334.95 10.6701C334.71 11.1341 334.59 11.6701 334.59 12.2781C334.59 12.9021 334.71 13.4541 334.95 13.9341C335.206 14.3981 335.55 14.7661 335.982 15.0381C336.43 15.2941 336.942 15.4221 337.518 15.4221ZM331.638 22.9341V6.49412H334.782V9.54212L334.254 12.3501L334.758 15.1581V22.9341H331.638ZM349.044 18.1821L344.196 6.49412H347.604L350.82 15.4221H349.668L353.004 6.49412H356.436L351.276 18.1581L349.044 18.1821ZM345.828 22.9341L349.356 15.4701L351.276 18.1581L349.164 22.9341H345.828ZM365.452 11.8221V9.15812H369.364C369.876 9.15812 370.34 9.05412 370.756 8.84612C371.172 8.63812 371.5 8.34212 371.74 7.95812C371.98 7.55812 372.1 7.07812 372.1 6.51812C372.1 5.97412 371.98 5.50212 371.74 5.10212C371.5 4.70212 371.172 4.39812 370.756 4.19012C370.34 3.98212 369.876 3.87812 369.364 3.87812H365.452V1.21412H369.7C370.772 1.21412 371.732 1.43012 372.58 1.86212C373.444 2.29412 374.124 2.91012 374.62 3.71012C375.116 4.49412 375.364 5.43012 375.364 6.51812C375.364 7.60612 375.116 8.55012 374.62 9.35012C374.124 10.1341 373.444 10.7421 372.58 11.1741C371.732 11.6061 370.772 11.8221 369.7 11.8221H365.452ZM363.052 18.0861V1.21412H366.316V18.0861H363.052ZM377.505 18.0861V0.734119H380.649V18.0861H377.505ZM388.283 18.3261C387.227 18.3261 386.275 18.0621 385.427 17.5341C384.579 17.0061 383.915 16.2861 383.435 15.3741C382.955 14.4621 382.715 13.4381 382.715 12.3021C382.715 11.1501 382.955 10.1181 383.435 9.20612C383.915 8.29412 384.579 7.57412 385.427 7.04612C386.275 6.51812 387.227 6.25412 388.283 6.25412C389.115 6.25412 389.859 6.42212 390.515 6.75812C391.171 7.09412 391.691 7.56612 392.075 8.17412C392.475 8.76612 392.691 9.43812 392.723 10.1901V14.3661C392.691 15.1341 392.475 15.8141 392.075 16.4061C391.691 16.9981 391.171 17.4701 390.515 17.8221C389.859 18.1581 389.115 18.3261 388.283 18.3261ZM388.859 15.4221C389.739 15.4221 390.451 15.1341 390.995 14.5581C391.539 13.9661 391.811 13.2061 391.811 12.2781C391.811 11.6701 391.683 11.1341 391.427 10.6701C391.187 10.1901 390.843 9.82212 390.395 9.56612C389.963 9.29412 389.451 9.15812 388.859 9.15812C388.283 9.15812 387.771 9.29412 387.323 9.56612C386.891 9.82212 386.547 10.1901 386.291 10.6701C386.051 11.1341 385.931 11.6701 385.931 12.2781C385.931 12.9021 386.051 13.4541 386.291 13.9341C386.547 14.3981 386.891 14.7661 387.323 15.0381C387.771 15.2941 388.283 15.4221 388.859 15.4221ZM391.643 18.0861V14.9661L392.147 12.1341L391.643 9.35012V6.49412H394.763V18.0861H391.643ZM403.016 18.3261C401.832 18.3261 400.768 18.0621 399.824 17.5341C398.88 17.0061 398.136 16.2861 397.592 15.3741C397.048 14.4621 396.776 13.4381 396.776 12.3021C396.776 11.1501 397.048 10.1181 397.592 9.20612C398.136 8.29412 398.88 7.57412 399.824 7.04612C400.784 6.50212 401.848 6.23012 403.016 6.23012C403.928 6.23012 404.768 6.39812 405.536 6.73412C406.304 7.07012 406.968 7.55012 407.528 8.17412L405.512 10.2141C405.208 9.87812 404.84 9.62212 404.408 9.44612C403.992 9.27012 403.528 9.18212 403.016 9.18212C402.44 9.18212 401.92 9.31812 401.456 9.59012C401.008 9.84612 400.648 10.2061 400.376 10.6701C400.12 11.1181 399.992 11.6541 399.992 12.2781C399.992 12.8861 400.12 13.4301 400.376 13.9101C400.648 14.3741 401.008 14.7421 401.456 15.0141C401.92 15.2701 402.44 15.3981 403.016 15.3981C403.544 15.3981 404.016 15.3101 404.432 15.1341C404.864 14.9421 405.232 14.6701 405.536 14.3181L407.576 16.3581C406.984 16.9981 406.304 17.4861 405.536 17.8221C404.768 18.1581 403.928 18.3261 403.016 18.3261ZM414.643 18.3261C413.427 18.3261 412.347 18.0701 411.403 17.5581C410.459 17.0301 409.707 16.3101 409.147 15.3981C408.603 14.4861 408.331 13.4461 408.331 12.2781C408.331 11.1261 408.595 10.1021 409.123 9.20612C409.667 8.29412 410.403 7.57412 411.331 7.04612C412.259 6.50212 413.291 6.23012 414.427 6.23012C415.547 6.23012 416.531 6.48612 417.379 6.99812C418.243 7.49412 418.915 8.18212 419.395 9.06212C419.891 9.92612 420.139 10.9101 420.139 12.0141C420.139 12.2221 420.123 12.4381 420.091 12.6621C420.075 12.8701 420.035 13.1101 419.971 13.3821L410.227 13.4061V11.0541L418.507 11.0301L417.235 12.0141C417.203 11.3261 417.075 10.7501 416.851 10.2861C416.643 9.82212 416.331 9.47012 415.915 9.23012C415.515 8.97412 415.019 8.84612 414.427 8.84612C413.803 8.84612 413.259 8.99012 412.795 9.27812C412.331 9.55012 411.971 9.94212 411.715 10.4541C411.475 10.9501 411.355 11.5421 411.355 12.2301C411.355 12.9341 411.483 13.5501 411.739 14.0781C412.011 14.5901 412.395 14.9901 412.891 15.2781C413.387 15.5501 413.963 15.6861 414.619 15.6861C415.211 15.6861 415.747 15.5901 416.227 15.3981C416.707 15.1901 417.123 14.8861 417.475 14.4861L419.323 16.3341C418.763 16.9901 418.075 17.4861 417.259 17.8221C416.459 18.1581 415.587 18.3261 414.643 18.3261Z" fill="#8F8F8F"/>
<path d="M7.68459 18.3261C6.35659 18.3261 5.17259 18.0381 4.13259 17.4621C3.10859 16.8701 2.30059 16.0621 1.70859 15.0381C1.11659 14.0141 0.820594 12.8541 0.820594 11.5581V1.21412H4.08459V11.6541C4.08459 12.4061 4.23659 13.0541 4.54059 13.5981C4.86059 14.1421 5.29259 14.5661 5.83659 14.8701C6.39659 15.1581 7.01259 15.3021 7.68459 15.3021C8.37259 15.3021 8.98059 15.1581 9.50859 14.8701C10.0366 14.5661 10.4526 14.1421 10.7566 13.5981C11.0766 13.0541 11.2366 12.4141 11.2366 11.6781V1.21412H14.5246V11.5821C14.5246 12.8781 14.2286 14.0381 13.6366 15.0621C13.0446 16.0701 12.2366 16.8701 11.2126 17.4621C10.2046 18.0381 9.02859 18.3261 7.68459 18.3261ZM21.3955 18.3501C20.7395 18.3501 20.0915 18.2621 19.4515 18.0861C18.8275 17.9101 18.2515 17.6701 17.7235 17.3661C17.1955 17.0461 16.7395 16.6621 16.3555 16.2141L18.2275 14.3181C18.6275 14.7661 19.0915 15.1021 19.6195 15.3261C20.1475 15.5501 20.7315 15.6621 21.3715 15.6621C21.8835 15.6621 22.2675 15.5901 22.5235 15.4461C22.7955 15.3021 22.9315 15.0861 22.9315 14.7981C22.9315 14.4781 22.7875 14.2301 22.4995 14.0541C22.2275 13.8781 21.8675 13.7341 21.4195 13.6221C20.9715 13.4941 20.4995 13.3581 20.0035 13.2141C19.5235 13.0541 19.0595 12.8541 18.6115 12.6141C18.1635 12.3581 17.7955 12.0141 17.5075 11.5821C17.2355 11.1341 17.0995 10.5581 17.0995 9.85412C17.0995 9.11812 17.2755 8.47812 17.6275 7.93412C17.9955 7.39012 18.5155 6.96612 19.1875 6.66212C19.8595 6.35812 20.6515 6.20612 21.5635 6.20612C22.5235 6.20612 23.3875 6.37412 24.1555 6.71012C24.9395 7.04612 25.5875 7.55012 26.0995 8.22212L24.2035 10.1181C23.8515 9.68612 23.4515 9.37412 23.0035 9.18212C22.5715 8.99012 22.0995 8.89412 21.5875 8.89412C21.1235 8.89412 20.7635 8.96612 20.5075 9.11012C20.2675 9.25412 20.1475 9.45412 20.1475 9.71012C20.1475 9.99812 20.2835 10.2221 20.5555 10.3821C20.8435 10.5421 21.2115 10.6861 21.6595 10.8141C22.1075 10.9261 22.5715 11.0621 23.0515 11.2221C23.5475 11.3661 24.0115 11.5741 24.4435 11.8461C24.8915 12.1181 25.2515 12.4781 25.5235 12.9261C25.8115 13.3741 25.9555 13.9501 25.9555 14.6541C25.9555 15.7901 25.5475 16.6941 24.7315 17.3661C23.9155 18.0221 22.8035 18.3501 21.3955 18.3501ZM33.6196 18.3261C32.4036 18.3261 31.3236 18.0701 30.3796 17.5581C29.4356 17.0301 28.6836 16.3101 28.1236 15.3981C27.5796 14.4861 27.3076 13.4461 27.3076 12.2781C27.3076 11.1261 27.5716 10.1021 28.0996 9.20612C28.6436 8.29412 29.3796 7.57412 30.3076 7.04612C31.2356 6.50212 32.2676 6.23012 33.4036 6.23012C34.5236 6.23012 35.5076 6.48612 36.3556 6.99812C37.2196 7.49412 37.8916 8.18212 38.3716 9.06212C38.8676 9.92612 39.1156 10.9101 39.1156 12.0141C39.1156 12.2221 39.0996 12.4381 39.0676 12.6621C39.0516 12.8701 39.0116 13.1101 38.9476 13.3821L29.2036 13.4061V11.0541L37.4836 11.0301L36.2116 12.0141C36.1796 11.3261 36.0516 10.7501 35.8276 10.2861C35.6196 9.82212 35.3076 9.47012 34.8916 9.23012C34.4916 8.97412 33.9956 8.84612 33.4036 8.84612C32.7796 8.84612 32.2356 8.99012 31.7716 9.27812C31.3076 9.55012 30.9476 9.94212 30.6916 10.4541C30.4516 10.9501 30.3316 11.5421 30.3316 12.2301C30.3316 12.9341 30.4596 13.5501 30.7156 14.0781C30.9876 14.5901 31.3716 14.9901 31.8676 15.2781C32.3636 15.5501 32.9396 15.6861 33.5956 15.6861C34.1876 15.6861 34.7236 15.5901 35.2036 15.3981C35.6836 15.1901 36.0996 14.8861 36.4516 14.4861L38.2996 16.3341C37.7396 16.9901 37.0516 17.4861 36.2356 17.8221C35.4356 18.1581 34.5636 18.3261 33.6196 18.3261ZM51.4835 18.0861L44.8355 1.21412H48.3635L53.4995 14.8701H52.1315L57.3155 1.21412H60.7955L54.0755 18.0861H51.4835ZM62.6693 18.0861V6.49412H65.8373V18.0861H62.6693ZM64.2533 4.62212C63.7413 4.62212 63.3173 4.45412 62.9813 4.11812C62.6453 3.76612 62.4773 3.33412 62.4773 2.82212C62.4773 2.32612 62.6453 1.90212 62.9813 1.55012C63.3173 1.19812 63.7413 1.02212 64.2533 1.02212C64.7813 1.02212 65.2053 1.19812 65.5253 1.55012C65.8613 1.90212 66.0293 2.32612 66.0293 2.82212C66.0293 3.33412 65.8613 3.76612 65.5253 4.11812C65.2053 4.45412 64.7813 4.62212 64.2533 4.62212ZM75.0545 18.3261C74.2225 18.3261 73.4705 18.1501 72.7985 17.7981C72.1265 17.4461 71.5905 16.9661 71.1905 16.3581C70.7905 15.7501 70.5745 15.0701 70.5425 14.3181V10.1901C70.5745 9.43812 70.7905 8.76612 71.1905 8.17412C71.6065 7.56612 72.1505 7.09412 72.8225 6.75812C73.4945 6.42212 74.2385 6.25412 75.0545 6.25412C76.1265 6.25412 77.0865 6.51812 77.9345 7.04612C78.7825 7.57412 79.4465 8.29412 79.9265 9.20612C80.4225 10.1181 80.6705 11.1501 80.6705 12.3021C80.6705 13.4381 80.4225 14.4621 79.9265 15.3741C79.4465 16.2861 78.7825 17.0061 77.9345 17.5341C77.0865 18.0621 76.1265 18.3261 75.0545 18.3261ZM74.5265 15.4221C75.1025 15.4221 75.6065 15.2941 76.0385 15.0381C76.4865 14.7661 76.8305 14.3981 77.0705 13.9341C77.3265 13.4541 77.4545 12.9021 77.4545 12.2781C77.4545 11.6701 77.3265 11.1341 77.0705 10.6701C76.8305 10.1901 76.4865 9.82212 76.0385 9.56612C75.5905 9.29412 75.0785 9.15812 74.5025 9.15812C73.9265 9.15812 73.4145 9.29412 72.9665 9.56612C72.5345 9.82212 72.1905 10.1901 71.9345 10.6701C71.6945 11.1341 71.5745 11.6701 71.5745 12.2781C71.5745 12.9021 71.6945 13.4541 71.9345 13.9341C72.1905 14.3981 72.5425 14.7661 72.9905 15.0381C73.4385 15.2941 73.9505 15.4221 74.5265 15.4221ZM68.6225 18.0861V0.734119H71.7665V9.35012L71.2385 12.1341L71.7425 14.9661V18.0861H68.6225ZM88.2758 18.3261C87.0598 18.3261 85.9798 18.0701 85.0358 17.5581C84.0918 17.0301 83.3398 16.3101 82.7798 15.3981C82.2358 14.4861 81.9638 13.4461 81.9638 12.2781C81.9638 11.1261 82.2278 10.1021 82.7558 9.20612C83.2998 8.29412 84.0358 7.57412 84.9638 7.04612C85.8918 6.50212 86.9238 6.23012 88.0598 6.23012C89.1798 6.23012 90.1638 6.48612 91.0118 6.99812C91.8758 7.49412 92.5478 8.18212 93.0278 9.06212C93.5238 9.92612 93.7718 10.9101 93.7718 12.0141C93.7718 12.2221 93.7558 12.4381 93.7238 12.6621C93.7078 12.8701 93.6678 13.1101 93.6038 13.3821L83.8598 13.4061V11.0541L92.1398 11.0301L90.8678 12.0141C90.8358 11.3261 90.7078 10.7501 90.4838 10.2861C90.2758 9.82212 89.9638 9.47012 89.5478 9.23012C89.1478 8.97412 88.6518 8.84612 88.0598 8.84612C87.4358 8.84612 86.8918 8.99012 86.4278 9.27812C85.9638 9.55012 85.6038 9.94212 85.3478 10.4541C85.1078 10.9501 84.9878 11.5421 84.9878 12.2301C84.9878 12.9341 85.1158 13.5501 85.3718 14.0781C85.6438 14.5901 86.0278 14.9901 86.5238 15.2781C87.0198 15.5501 87.5958 15.6861 88.2518 15.6861C88.8438 15.6861 89.3798 15.5901 89.8598 15.3981C90.3398 15.1901 90.7558 14.8861 91.1078 14.4861L92.9558 16.3341C92.3958 16.9901 91.7078 17.4861 90.8918 17.8221C90.0918 18.1581 89.2198 18.3261 88.2758 18.3261ZM94.9002 16.2861L101.044 8.29412H104.836L98.6922 16.2861H94.9002ZM94.9002 18.0861V16.2861L97.3962 15.3501H104.692V18.0861H94.9002ZM95.3322 9.23012V6.49412H104.836V8.29412L102.316 9.23012H95.3322ZM110.88 18.3501C110.224 18.3501 109.576 18.2621 108.936 18.0861C108.312 17.9101 107.736 17.6701 107.208 17.3661C106.68 17.0461 106.224 16.6621 105.84 16.2141L107.712 14.3181C108.112 14.7661 108.576 15.1021 109.104 15.3261C109.632 15.5501 110.216 15.6621 110.856 15.6621C111.368 15.6621 111.752 15.5901 112.008 15.4461C112.28 15.3021 112.416 15.0861 112.416 14.7981C112.416 14.4781 112.272 14.2301 111.984 14.0541C111.712 13.8781 111.352 13.7341 110.904 13.6221C110.456 13.4941 109.984 13.3581 109.488 13.2141C109.008 13.0541 108.544 12.8541 108.096 12.6141C107.648 12.3581 107.28 12.0141 106.992 11.5821C106.72 11.1341 106.584 10.5581 106.584 9.85412C106.584 9.11812 106.76 8.47812 107.112 7.93412C107.48 7.39012 108 6.96612 108.672 6.66212C109.344 6.35812 110.136 6.20612 111.048 6.20612C112.008 6.20612 112.872 6.37412 113.64 6.71012C114.424 7.04612 115.072 7.55012 115.584 8.22212L113.688 10.1181C113.336 9.68612 112.936 9.37412 112.488 9.18212C112.056 8.99012 111.584 8.89412 111.072 8.89412C110.608 8.89412 110.248 8.96612 109.992 9.11012C109.752 9.25412 109.632 9.45412 109.632 9.71012C109.632 9.99812 109.768 10.2221 110.04 10.3821C110.328 10.5421 110.696 10.6861 111.144 10.8141C111.592 10.9261 112.056 11.0621 112.536 11.2221C113.032 11.3661 113.496 11.5741 113.928 11.8461C114.376 12.1181 114.736 12.4781 115.008 12.9261C115.296 13.3741 115.44 13.9501 115.44 14.6541C115.44 15.7901 115.032 16.6941 114.216 17.3661C113.4 18.0221 112.288 18.3501 110.88 18.3501ZM124.544 18.3261C123.216 18.3261 122.032 18.0381 120.992 17.4621C119.968 16.8701 119.16 16.0621 118.568 15.0381C117.976 14.0141 117.68 12.8541 117.68 11.5581V1.21412H120.944V11.6541C120.944 12.4061 121.096 13.0541 121.4 13.5981C121.72 14.1421 122.152 14.5661 122.696 14.8701C123.256 15.1581 123.872 15.3021 124.544 15.3021C125.232 15.3021 125.84 15.1581 126.368 14.8701C126.896 14.5661 127.312 14.1421 127.616 13.5981C127.936 13.0541 128.096 12.4141 128.096 11.6781V1.21412H131.384V11.5821C131.384 12.8781 131.088 14.0381 130.496 15.0621C129.904 16.0701 129.096 16.8701 128.072 17.4621C127.064 18.0381 125.888 18.3261 124.544 18.3261ZM140.703 18.3261C139.871 18.3261 139.119 18.1581 138.447 17.8221C137.775 17.4701 137.239 16.9981 136.839 16.4061C136.439 15.8141 136.223 15.1341 136.191 14.3661V10.2621C136.223 9.49412 136.439 8.81412 136.839 8.22212C137.255 7.61412 137.791 7.13412 138.447 6.78212C139.119 6.43012 139.871 6.25412 140.703 6.25412C141.775 6.25412 142.735 6.51812 143.583 7.04612C144.431 7.57412 145.095 8.29412 145.575 9.20612C146.071 10.1181 146.319 11.1501 146.319 12.3021C146.319 13.4381 146.071 14.4621 145.575 15.3741C145.095 16.2861 144.431 17.0061 143.583 17.5341C142.735 18.0621 141.775 18.3261 140.703 18.3261ZM140.151 15.4221C140.727 15.4221 141.239 15.2941 141.687 15.0381C142.135 14.7661 142.479 14.3981 142.719 13.9341C142.975 13.4541 143.103 12.9021 143.103 12.2781C143.103 11.6701 142.975 11.1341 142.719 10.6701C142.479 10.1901 142.135 9.82212 141.687 9.56612C141.239 9.29412 140.727 9.15812 140.151 9.15812C139.591 9.15812 139.087 9.29412 138.639 9.56612C138.191 9.82212 137.839 10.1901 137.583 10.6701C137.343 11.1341 137.223 11.6701 137.223 12.2781C137.223 12.9021 137.343 13.4541 137.583 13.9341C137.839 14.3981 138.183 14.7661 138.615 15.0381C139.063 15.2941 139.575 15.4221 140.151 15.4221ZM134.271 22.9341V6.49412H137.415V9.54212L136.887 12.3501L137.391 15.1581V22.9341H134.271ZM154.772 18.0861V1.67012H157.916V18.0861H154.772ZM152.06 9.25412V6.49412H160.628V9.25412H152.06ZM167.563 18.3261C166.395 18.3261 165.339 18.0621 164.395 17.5341C163.467 16.9901 162.723 16.2621 162.163 15.3501C161.619 14.4221 161.347 13.3901 161.347 12.2541C161.347 11.1181 161.619 10.1021 162.163 9.20612C162.707 8.29412 163.451 7.57412 164.395 7.04612C165.339 6.50212 166.387 6.23012 167.539 6.23012C168.723 6.23012 169.779 6.50212 170.707 7.04612C171.651 7.57412 172.395 8.29412 172.939 9.20612C173.483 10.1021 173.755 11.1181 173.755 12.2541C173.755 13.3901 173.483 14.4221 172.939 15.3501C172.395 16.2621 171.651 16.9901 170.707 17.5341C169.779 18.0621 168.731 18.3261 167.563 18.3261ZM167.539 15.3981C168.131 15.3981 168.651 15.2701 169.099 15.0141C169.563 14.7421 169.915 14.3741 170.155 13.9101C170.411 13.4301 170.539 12.8861 170.539 12.2781C170.539 11.6701 170.411 11.1341 170.155 10.6701C169.899 10.2061 169.547 9.84612 169.099 9.59012C168.651 9.31812 168.131 9.18212 167.539 9.18212C166.963 9.18212 166.451 9.31812 166.003 9.59012C165.555 9.84612 165.203 10.2061 164.947 10.6701C164.691 11.1341 164.563 11.6701 164.563 12.2781C164.563 12.8861 164.691 13.4301 164.947 13.9101C165.203 14.3741 165.555 14.7421 166.003 15.0141C166.451 15.2701 166.963 15.3981 167.539 15.3981ZM180.802 18.0861V1.21412H184.066V18.0861H180.802ZM183.202 11.1741V8.27012H191.698V11.1741H183.202ZM183.202 4.09412V1.21412H192.106V4.09412H183.202ZM194.341 18.0861V6.49412H197.509V18.0861H194.341ZM195.925 4.62212C195.413 4.62212 194.989 4.45412 194.653 4.11812C194.317 3.76612 194.149 3.33412 194.149 2.82212C194.149 2.32612 194.317 1.90212 194.653 1.55012C194.989 1.19812 195.413 1.02212 195.925 1.02212C196.453 1.02212 196.877 1.19812 197.197 1.55012C197.533 1.90212 197.701 2.32612 197.701 2.82212C197.701 3.33412 197.533 3.76612 197.197 4.11812C196.877 4.45412 196.453 4.62212 195.925 4.62212ZM208.094 18.0861V11.4381C208.094 10.7501 207.878 10.1901 207.446 9.75812C207.014 9.32612 206.454 9.11012 205.766 9.11012C205.318 9.11012 204.918 9.20612 204.566 9.39812C204.214 9.59012 203.934 9.86212 203.726 10.2141C203.534 10.5661 203.438 10.9741 203.438 11.4381L202.214 10.8141C202.214 9.90212 202.406 9.11012 202.79 8.43812C203.19 7.75012 203.734 7.21412 204.422 6.83012C205.126 6.44612 205.918 6.25412 206.798 6.25412C207.646 6.25412 208.406 6.47012 209.078 6.90212C209.75 7.31812 210.278 7.87012 210.662 8.55812C211.046 9.23012 211.238 9.95812 211.238 10.7421V18.0861H208.094ZM200.294 18.0861V6.49412H203.438V18.0861H200.294ZM218.667 18.3261C217.595 18.3261 216.635 18.0621 215.787 17.5341C214.939 17.0061 214.267 16.2861 213.771 15.3741C213.291 14.4621 213.051 13.4381 213.051 12.3021C213.051 11.1501 213.291 10.1181 213.771 9.20612C214.267 8.29412 214.931 7.57412 215.763 7.04612C216.611 6.51812 217.579 6.25412 218.667 6.25412C219.499 6.25412 220.243 6.42212 220.899 6.75812C221.571 7.09412 222.107 7.56612 222.507 8.17412C222.923 8.76612 223.147 9.43812 223.179 10.1901V14.3181C223.147 15.0701 222.931 15.7501 222.531 16.3581C222.131 16.9661 221.595 17.4461 220.923 17.7981C220.251 18.1501 219.499 18.3261 218.667 18.3261ZM219.195 15.4221C219.787 15.4221 220.299 15.2941 220.731 15.0381C221.179 14.7661 221.523 14.3981 221.763 13.9341C222.019 13.4541 222.147 12.9021 222.147 12.2781C222.147 11.6701 222.019 11.1341 221.763 10.6701C221.523 10.1901 221.179 9.82212 220.731 9.56612C220.299 9.29412 219.795 9.15812 219.219 9.15812C218.627 9.15812 218.107 9.29412 217.659 9.56612C217.227 9.83812 216.883 10.2061 216.627 10.6701C216.387 11.1341 216.267 11.6701 216.267 12.2781C216.267 12.9021 216.387 13.4541 216.627 13.9341C216.883 14.3981 217.235 14.7661 217.683 15.0381C218.131 15.2941 218.635 15.4221 219.195 15.4221ZM225.099 18.0861H221.979V14.9661L222.483 12.1341L221.955 9.35012V0.734119H225.099V18.0861ZM236.216 18.1821L231.368 6.49412H234.776L237.992 15.4221H236.84L240.176 6.49412H243.608L238.448 18.1581L236.216 18.1821ZM233 22.9341L236.528 15.4701L238.448 18.1581L236.336 22.9341H233ZM250.133 18.3261C248.965 18.3261 247.909 18.0621 246.965 17.5341C246.037 16.9901 245.293 16.2621 244.733 15.3501C244.189 14.4221 243.917 13.3901 243.917 12.2541C243.917 11.1181 244.189 10.1021 244.733 9.20612C245.277 8.29412 246.021 7.57412 246.965 7.04612C247.909 6.50212 248.957 6.23012 250.109 6.23012C251.293 6.23012 252.349 6.50212 253.277 7.04612C254.221 7.57412 254.965 8.29412 255.509 9.20612C256.053 10.1021 256.325 11.1181 256.325 12.2541C256.325 13.3901 256.053 14.4221 255.509 15.3501C254.965 16.2621 254.221 16.9901 253.277 17.5341C252.349 18.0621 251.301 18.3261 250.133 18.3261ZM250.109 15.3981C250.701 15.3981 251.221 15.2701 251.669 15.0141C252.133 14.7421 252.485 14.3741 252.725 13.9101C252.981 13.4301 253.109 12.8861 253.109 12.2781C253.109 11.6701 252.981 11.1341 252.725 10.6701C252.469 10.2061 252.117 9.84612 251.669 9.59012C251.221 9.31812 250.701 9.18212 250.109 9.18212C249.533 9.18212 249.021 9.31812 248.573 9.59012C248.125 9.84612 247.773 10.2061 247.517 10.6701C247.261 11.1341 247.133 11.6701 247.133 12.2781C247.133 12.8861 247.261 13.4301 247.517 13.9101C247.773 14.3741 248.125 14.7421 248.573 15.0141C249.021 15.2701 249.533 15.3981 250.109 15.3981ZM263.293 18.3261C262.269 18.3261 261.357 18.1101 260.557 17.6781C259.773 17.2461 259.157 16.6461 258.709 15.8781C258.261 15.1101 258.037 14.2221 258.037 13.2141V6.49412H261.205V13.1421C261.205 13.6221 261.285 14.0381 261.445 14.3901C261.605 14.7261 261.845 14.9821 262.165 15.1581C262.485 15.3341 262.861 15.4221 263.293 15.4221C263.949 15.4221 264.461 15.2221 264.829 14.8221C265.197 14.4221 265.381 13.8621 265.381 13.1421V6.49412H268.525V13.2141C268.525 14.2381 268.301 15.1341 267.853 15.9021C267.421 16.6701 266.805 17.2701 266.005 17.7021C265.221 18.1181 264.317 18.3261 263.293 18.3261ZM271.029 18.0861V6.49412H274.173V18.0861H271.029ZM274.173 11.6781L272.949 10.8621C273.093 9.43812 273.509 8.31812 274.197 7.50212C274.885 6.67012 275.877 6.25412 277.173 6.25412C277.733 6.25412 278.237 6.35012 278.685 6.54212C279.133 6.71812 279.541 7.01412 279.909 7.43012L277.941 9.68612C277.765 9.49412 277.549 9.35012 277.293 9.25412C277.053 9.15812 276.773 9.11012 276.453 9.11012C275.781 9.11012 275.229 9.32612 274.797 9.75812C274.381 10.1741 274.173 10.8141 274.173 11.6781ZM286.458 18.0861V1.21412H289.722V18.0861H286.458ZM297.042 18.0861V1.21412H300.306V18.0861H297.042ZM288.522 10.8141V7.93412H297.954V10.8141H288.522ZM308.267 18.3261C307.211 18.3261 306.259 18.0621 305.411 17.5341C304.563 17.0061 303.899 16.2861 303.419 15.3741C302.939 14.4621 302.699 13.4381 302.699 12.3021C302.699 11.1501 302.939 10.1181 303.419 9.20612C303.899 8.29412 304.563 7.57412 305.411 7.04612C306.259 6.51812 307.211 6.25412 308.267 6.25412C309.099 6.25412 309.843 6.42212 310.499 6.75812C311.155 7.09412 311.675 7.56612 312.059 8.17412C312.459 8.76612 312.675 9.43812 312.707 10.1901V14.3661C312.675 15.1341 312.459 15.8141 312.059 16.4061C311.675 16.9981 311.155 17.4701 310.499 17.8221C309.843 18.1581 309.099 18.3261 308.267 18.3261ZM308.843 15.4221C309.723 15.4221 310.435 15.1341 310.979 14.5581C311.523 13.9661 311.795 13.2061 311.795 12.2781C311.795 11.6701 311.667 11.1341 311.411 10.6701C311.171 10.1901 310.827 9.82212 310.379 9.56612C309.947 9.29412 309.435 9.15812 308.843 9.15812C308.267 9.15812 307.755 9.29412 307.307 9.56612C306.875 9.82212 306.531 10.1901 306.275 10.6701C306.035 11.1341 305.915 11.6701 305.915 12.2781C305.915 12.9021 306.035 13.4541 306.275 13.9341C306.531 14.3981 306.875 14.7661 307.307 15.0381C307.755 15.2941 308.267 15.4221 308.843 15.4221ZM311.627 18.0861V14.9661L312.131 12.1341L311.627 9.35012V6.49412H314.747V18.0861H311.627ZM323.961 18.3261C323.129 18.3261 322.377 18.1581 321.705 17.8221C321.033 17.4701 320.497 16.9981 320.097 16.4061C319.697 15.8141 319.481 15.1341 319.449 14.3661V10.2621C319.481 9.49412 319.697 8.81412 320.097 8.22212C320.513 7.61412 321.049 7.13412 321.705 6.78212C322.377 6.43012 323.129 6.25412 323.961 6.25412C325.033 6.25412 325.993 6.51812 326.841 7.04612C327.689 7.57412 328.353 8.29412 328.833 9.20612C329.329 10.1181 329.577 11.1501 329.577 12.3021C329.577 13.4381 329.329 14.4621 328.833 15.3741C328.353 16.2861 327.689 17.0061 326.841 17.5341C325.993 18.0621 325.033 18.3261 323.961 18.3261ZM323.409 15.4221C323.985 15.4221 324.497 15.2941 324.945 15.0381C325.393 14.7661 325.737 14.3981 325.977 13.9341C326.233 13.4541 326.361 12.9021 326.361 12.2781C326.361 11.6701 326.233 11.1341 325.977 10.6701C325.737 10.1901 325.393 9.82212 324.945 9.56612C324.497 9.29412 323.985 9.15812 323.409 9.15812C322.849 9.15812 322.345 9.29412 321.897 9.56612C321.449 9.82212 321.097 10.1901 320.841 10.6701C320.601 11.1341 320.481 11.6701 320.481 12.2781C320.481 12.9021 320.601 13.4541 320.841 13.9341C321.097 14.3981 321.441 14.7661 321.873 15.0381C322.321 15.2941 322.833 15.4221 323.409 15.4221ZM317.529 22.9341V6.49412H320.673V9.54212L320.145 12.3501L320.649 15.1581V22.9341H317.529ZM338.07 18.3261C337.238 18.3261 336.486 18.1581 335.814 17.8221C335.142 17.4701 334.606 16.9981 334.206 16.4061C333.806 15.8141 333.59 15.1341 333.558 14.3661V10.2621C333.59 9.49412 333.806 8.81412 334.206 8.22212C334.622 7.61412 335.158 7.13412 335.814 6.78212C336.486 6.43012 337.238 6.25412 338.07 6.25412C339.142 6.25412 340.102 6.51812 340.95 7.04612C341.798 7.57412 342.462 8.29412 342.942 9.20612C343.438 10.1181 343.686 11.1501 343.686 12.3021C343.686 13.4381 343.438 14.4621 342.942 15.3741C342.462 16.2861 341.798 17.0061 340.95 17.5341C340.102 18.0621 339.142 18.3261 338.07 18.3261ZM337.518 15.4221C338.094 15.4221 338.606 15.2941 339.054 15.0381C339.502 14.7661 339.846 14.3981 340.086 13.9341C340.342 13.4541 340.47 12.9021 340.47 12.2781C340.47 11.6701 340.342 11.1341 340.086 10.6701C339.846 10.1901 339.502 9.82212 339.054 9.56612C338.606 9.29412 338.094 9.15812 337.518 9.15812C336.958 9.15812 336.454 9.29412 336.006 9.56612C335.558 9.82212 335.206 10.1901 334.95 10.6701C334.71 11.1341 334.59 11.6701 334.59 12.2781C334.59 12.9021 334.71 13.4541 334.95 13.9341C335.206 14.3981 335.55 14.7661 335.982 15.0381C336.43 15.2941 336.942 15.4221 337.518 15.4221ZM331.638 22.9341V6.49412H334.782V9.54212L334.254 12.3501L334.758 15.1581V22.9341H331.638ZM349.044 18.1821L344.196 6.49412H347.604L350.82 15.4221H349.668L353.004 6.49412H356.436L351.276 18.1581L349.044 18.1821ZM345.828 22.9341L349.356 15.4701L351.276 18.1581L349.164 22.9341H345.828ZM365.452 11.8221V9.15812H369.364C369.876 9.15812 370.34 9.05412 370.756 8.84612C371.172 8.63812 371.5 8.34212 371.74 7.95812C371.98 7.55812 372.1 7.07812 372.1 6.51812C372.1 5.97412 371.98 5.50212 371.74 5.10212C371.5 4.70212 371.172 4.39812 370.756 4.19012C370.34 3.98212 369.876 3.87812 369.364 3.87812H365.452V1.21412H369.7C370.772 1.21412 371.732 1.43012 372.58 1.86212C373.444 2.29412 374.124 2.91012 374.62 3.71012C375.116 4.49412 375.364 5.43012 375.364 6.51812C375.364 7.60612 375.116 8.55012 374.62 9.35012C374.124 10.1341 373.444 10.7421 372.58 11.1741C371.732 11.6061 370.772 11.8221 369.7 11.8221H365.452ZM363.052 18.0861V1.21412H366.316V18.0861H363.052ZM377.505 18.0861V0.734119H380.649V18.0861H377.505ZM388.283 18.3261C387.227 18.3261 386.275 18.0621 385.427 17.5341C384.579 17.0061 383.915 16.2861 383.435 15.3741C382.955 14.4621 382.715 13.4381 382.715 12.3021C382.715 11.1501 382.955 10.1181 383.435 9.20612C383.915 8.29412 384.579 7.57412 385.427 7.04612C386.275 6.51812 387.227 6.25412 388.283 6.25412C389.115 6.25412 389.859 6.42212 390.515 6.75812C391.171 7.09412 391.691 7.56612 392.075 8.17412C392.475 8.76612 392.691 9.43812 392.723 10.1901V14.3661C392.691 15.1341 392.475 15.8141 392.075 16.4061C391.691 16.9981 391.171 17.4701 390.515 17.8221C389.859 18.1581 389.115 18.3261 388.283 18.3261ZM388.859 15.4221C389.739 15.4221 390.451 15.1341 390.995 14.5581C391.539 13.9661 391.811 13.2061 391.811 12.2781C391.811 11.6701 391.683 11.1341 391.427 10.6701C391.187 10.1901 390.843 9.82212 390.395 9.56612C389.963 9.29412 389.451 9.15812 388.859 9.15812C388.283 9.15812 387.771 9.29412 387.323 9.56612C386.891 9.82212 386.547 10.1901 386.291 10.6701C386.051 11.1341 385.931 11.6701 385.931 12.2781C385.931 12.9021 386.051 13.4541 386.291 13.9341C386.547 14.3981 386.891 14.7661 387.323 15.0381C387.771 15.2941 388.283 15.4221 388.859 15.4221ZM391.643 18.0861V14.9661L392.147 12.1341L391.643 9.35012V6.49412H394.763V18.0861H391.643ZM403.016 18.3261C401.832 18.3261 400.768 18.0621 399.824 17.5341C398.88 17.0061 398.136 16.2861 397.592 15.3741C397.048 14.4621 396.776 13.4381 396.776 12.3021C396.776 11.1501 397.048 10.1181 397.592 9.20612C398.136 8.29412 398.88 7.57412 399.824 7.04612C400.784 6.50212 401.848 6.23012 403.016 6.23012C403.928 6.23012 404.768 6.39812 405.536 6.73412C406.304 7.07012 406.968 7.55012 407.528 8.17412L405.512 10.2141C405.208 9.87812 404.84 9.62212 404.408 9.44612C403.992 9.27012 403.528 9.18212 403.016 9.18212C402.44 9.18212 401.92 9.31812 401.456 9.59012C401.008 9.84612 400.648 10.2061 400.376 10.6701C400.12 11.1181 399.992 11.6541 399.992 12.2781C399.992 12.8861 400.12 13.4301 400.376 13.9101C400.648 14.3741 401.008 14.7421 401.456 15.0141C401.92 15.2701 402.44 15.3981 403.016 15.3981C403.544 15.3981 404.016 15.3101 404.432 15.1341C404.864 14.9421 405.232 14.6701 405.536 14.3181L407.576 16.3581C406.984 16.9981 406.304 17.4861 405.536 17.8221C404.768 18.1581 403.928 18.3261 403.016 18.3261ZM414.643 18.3261C413.427 18.3261 412.347 18.0701 411.403 17.5581C410.459 17.0301 409.707 16.3101 409.147 15.3981C408.603 14.4861 408.331 13.4461 408.331 12.2781C408.331 11.1261 408.595 10.1021 409.123 9.20612C409.667 8.29412 410.403 7.57412 411.331 7.04612C412.259 6.50212 413.291 6.23012 414.427 6.23012C415.547 6.23012 416.531 6.48612 417.379 6.99812C418.243 7.49412 418.915 8.18212 419.395 9.06212C419.891 9.92612 420.139 10.9101 420.139 12.0141C420.139 12.2221 420.123 12.4381 420.091 12.6621C420.075 12.8701 420.035 13.1101 419.971 13.3821L410.227 13.4061V11.0541L418.507 11.0301L417.235 12.0141C417.203 11.3261 417.075 10.7501 416.851 10.2861C416.643 9.82212 416.331 9.47012 415.915 9.23012C415.515 8.97412 415.019 8.84612 414.427 8.84612C413.803 8.84612 413.259 8.99012 412.795 9.27812C412.331 9.55012 411.971 9.94212 411.715 10.4541C411.475 10.9501 411.355 11.5421 411.355 12.2301C411.355 12.9341 411.483 13.5501 411.739 14.0781C412.011 14.5901 412.395 14.9901 412.891 15.2781C413.387 15.5501 413.963 15.6861 414.619 15.6861C415.211 15.6861 415.747 15.5901 416.227 15.3981C416.707 15.1901 417.123 14.8861 417.475 14.4861L419.323 16.3341C418.763 16.9901 418.075 17.4861 417.259 17.8221C416.459 18.1581 415.587 18.3261 414.643 18.3261Z" fill="black" fill-opacity="0.2"/>
<path d="M7.68459 18.3261C6.35659 18.3261 5.17259 18.0381 4.13259 17.4621C3.10859 16.8701 2.30059 16.0621 1.70859 15.0381C1.11659 14.0141 0.820594 12.8541 0.820594 11.5581V1.21412H4.08459V11.6541C4.08459 12.4061 4.23659 13.0541 4.54059 13.5981C4.86059 14.1421 5.29259 14.5661 5.83659 14.8701C6.39659 15.1581 7.01259 15.3021 7.68459 15.3021C8.37259 15.3021 8.98059 15.1581 9.50859 14.8701C10.0366 14.5661 10.4526 14.1421 10.7566 13.5981C11.0766 13.0541 11.2366 12.4141 11.2366 11.6781V1.21412H14.5246V11.5821C14.5246 12.8781 14.2286 14.0381 13.6366 15.0621C13.0446 16.0701 12.2366 16.8701 11.2126 17.4621C10.2046 18.0381 9.02859 18.3261 7.68459 18.3261ZM21.3955 18.3501C20.7395 18.3501 20.0915 18.2621 19.4515 18.0861C18.8275 17.9101 18.2515 17.6701 17.7235 17.3661C17.1955 17.0461 16.7395 16.6621 16.3555 16.2141L18.2275 14.3181C18.6275 14.7661 19.0915 15.1021 19.6195 15.3261C20.1475 15.5501 20.7315 15.6621 21.3715 15.6621C21.8835 15.6621 22.2675 15.5901 22.5235 15.4461C22.7955 15.3021 22.9315 15.0861 22.9315 14.7981C22.9315 14.4781 22.7875 14.2301 22.4995 14.0541C22.2275 13.8781 21.8675 13.7341 21.4195 13.6221C20.9715 13.4941 20.4995 13.3581 20.0035 13.2141C19.5235 13.0541 19.0595 12.8541 18.6115 12.6141C18.1635 12.3581 17.7955 12.0141 17.5075 11.5821C17.2355 11.1341 17.0995 10.5581 17.0995 9.85412C17.0995 9.11812 17.2755 8.47812 17.6275 7.93412C17.9955 7.39012 18.5155 6.96612 19.1875 6.66212C19.8595 6.35812 20.6515 6.20612 21.5635 6.20612C22.5235 6.20612 23.3875 6.37412 24.1555 6.71012C24.9395 7.04612 25.5875 7.55012 26.0995 8.22212L24.2035 10.1181C23.8515 9.68612 23.4515 9.37412 23.0035 9.18212C22.5715 8.99012 22.0995 8.89412 21.5875 8.89412C21.1235 8.89412 20.7635 8.96612 20.5075 9.11012C20.2675 9.25412 20.1475 9.45412 20.1475 9.71012C20.1475 9.99812 20.2835 10.2221 20.5555 10.3821C20.8435 10.5421 21.2115 10.6861 21.6595 10.8141C22.1075 10.9261 22.5715 11.0621 23.0515 11.2221C23.5475 11.3661 24.0115 11.5741 24.4435 11.8461C24.8915 12.1181 25.2515 12.4781 25.5235 12.9261C25.8115 13.3741 25.9555 13.9501 25.9555 14.6541C25.9555 15.7901 25.5475 16.6941 24.7315 17.3661C23.9155 18.0221 22.8035 18.3501 21.3955 18.3501ZM33.6196 18.3261C32.4036 18.3261 31.3236 18.0701 30.3796 17.5581C29.4356 17.0301 28.6836 16.3101 28.1236 15.3981C27.5796 14.4861 27.3076 13.4461 27.3076 12.2781C27.3076 11.1261 27.5716 10.1021 28.0996 9.20612C28.6436 8.29412 29.3796 7.57412 30.3076 7.04612C31.2356 6.50212 32.2676 6.23012 33.4036 6.23012C34.5236 6.23012 35.5076 6.48612 36.3556 6.99812C37.2196 7.49412 37.8916 8.18212 38.3716 9.06212C38.8676 9.92612 39.1156 10.9101 39.1156 12.0141C39.1156 12.2221 39.0996 12.4381 39.0676 12.6621C39.0516 12.8701 39.0116 13.1101 38.9476 13.3821L29.2036 13.4061V11.0541L37.4836 11.0301L36.2116 12.0141C36.1796 11.3261 36.0516 10.7501 35.8276 10.2861C35.6196 9.82212 35.3076 9.47012 34.8916 9.23012C34.4916 8.97412 33.9956 8.84612 33.4036 8.84612C32.7796 8.84612 32.2356 8.99012 31.7716 9.27812C31.3076 9.55012 30.9476 9.94212 30.6916 10.4541C30.4516 10.9501 30.3316 11.5421 30.3316 12.2301C30.3316 12.9341 30.4596 13.5501 30.7156 14.0781C30.9876 14.5901 31.3716 14.9901 31.8676 15.2781C32.3636 15.5501 32.9396 15.6861 33.5956 15.6861C34.1876 15.6861 34.7236 15.5901 35.2036 15.3981C35.6836 15.1901 36.0996 14.8861 36.4516 14.4861L38.2996 16.3341C37.7396 16.9901 37.0516 17.4861 36.2356 17.8221C35.4356 18.1581 34.5636 18.3261 33.6196 18.3261ZM51.4835 18.0861L44.8355 1.21412H48.3635L53.4995 14.8701H52.1315L57.3155 1.21412H60.7955L54.0755 18.0861H51.4835ZM62.6693 18.0861V6.49412H65.8373V18.0861H62.6693ZM64.2533 4.62212C63.7413 4.62212 63.3173 4.45412 62.9813 4.11812C62.6453 3.76612 62.4773 3.33412 62.4773 2.82212C62.4773 2.32612 62.6453 1.90212 62.9813 1.55012C63.3173 1.19812 63.7413 1.02212 64.2533 1.02212C64.7813 1.02212 65.2053 1.19812 65.5253 1.55012C65.8613 1.90212 66.0293 2.32612 66.0293 2.82212C66.0293 3.33412 65.8613 3.76612 65.5253 4.11812C65.2053 4.45412 64.7813 4.62212 64.2533 4.62212ZM75.0545 18.3261C74.2225 18.3261 73.4705 18.1501 72.7985 17.7981C72.1265 17.4461 71.5905 16.9661 71.1905 16.3581C70.7905 15.7501 70.5745 15.0701 70.5425 14.3181V10.1901C70.5745 9.43812 70.7905 8.76612 71.1905 8.17412C71.6065 7.56612 72.1505 7.09412 72.8225 6.75812C73.4945 6.42212 74.2385 6.25412 75.0545 6.25412C76.1265 6.25412 77.0865 6.51812 77.9345 7.04612C78.7825 7.57412 79.4465 8.29412 79.9265 9.20612C80.4225 10.1181 80.6705 11.1501 80.6705 12.3021C80.6705 13.4381 80.4225 14.4621 79.9265 15.3741C79.4465 16.2861 78.7825 17.0061 77.9345 17.5341C77.0865 18.0621 76.1265 18.3261 75.0545 18.3261ZM74.5265 15.4221C75.1025 15.4221 75.6065 15.2941 76.0385 15.0381C76.4865 14.7661 76.8305 14.3981 77.0705 13.9341C77.3265 13.4541 77.4545 12.9021 77.4545 12.2781C77.4545 11.6701 77.3265 11.1341 77.0705 10.6701C76.8305 10.1901 76.4865 9.82212 76.0385 9.56612C75.5905 9.29412 75.0785 9.15812 74.5025 9.15812C73.9265 9.15812 73.4145 9.29412 72.9665 9.56612C72.5345 9.82212 72.1905 10.1901 71.9345 10.6701C71.6945 11.1341 71.5745 11.6701 71.5745 12.2781C71.5745 12.9021 71.6945 13.4541 71.9345 13.9341C72.1905 14.3981 72.5425 14.7661 72.9905 15.0381C73.4385 15.2941 73.9505 15.4221 74.5265 15.4221ZM68.6225 18.0861V0.734119H71.7665V9.35012L71.2385 12.1341L71.7425 14.9661V18.0861H68.6225ZM88.2758 18.3261C87.0598 18.3261 85.9798 18.0701 85.0358 17.5581C84.0918 17.0301 83.3398 16.3101 82.7798 15.3981C82.2358 14.4861 81.9638 13.4461 81.9638 12.2781C81.9638 11.1261 82.2278 10.1021 82.7558 9.20612C83.2998 8.29412 84.0358 7.57412 84.9638 7.04612C85.8918 6.50212 86.9238 6.23012 88.0598 6.23012C89.1798 6.23012 90.1638 6.48612 91.0118 6.99812C91.8758 7.49412 92.5478 8.18212 93.0278 9.06212C93.5238 9.92612 93.7718 10.9101 93.7718 12.0141C93.7718 12.2221 93.7558 12.4381 93.7238 12.6621C93.7078 12.8701 93.6678 13.1101 93.6038 13.3821L83.8598 13.4061V11.0541L92.1398 11.0301L90.8678 12.0141C90.8358 11.3261 90.7078 10.7501 90.4838 10.2861C90.2758 9.82212 89.9638 9.47012 89.5478 9.23012C89.1478 8.97412 88.6518 8.84612 88.0598 8.84612C87.4358 8.84612 86.8918 8.99012 86.4278 9.27812C85.9638 9.55012 85.6038 9.94212 85.3478 10.4541C85.1078 10.9501 84.9878 11.5421 84.9878 12.2301C84.9878 12.9341 85.1158 13.5501 85.3718 14.0781C85.6438 14.5901 86.0278 14.9901 86.5238 15.2781C87.0198 15.5501 87.5958 15.6861 88.2518 15.6861C88.8438 15.6861 89.3798 15.5901 89.8598 15.3981C90.3398 15.1901 90.7558 14.8861 91.1078 14.4861L92.9558 16.3341C92.3958 16.9901 91.7078 17.4861 90.8918 17.8221C90.0918 18.1581 89.2198 18.3261 88.2758 18.3261ZM94.9002 16.2861L101.044 8.29412H104.836L98.6922 16.2861H94.9002ZM94.9002 18.0861V16.2861L97.3962 15.3501H104.692V18.0861H94.9002ZM95.3322 9.23012V6.49412H104.836V8.29412L102.316 9.23012H95.3322ZM110.88 18.3501C110.224 18.3501 109.576 18.2621 108.936 18.0861C108.312 17.9101 107.736 17.6701 107.208 17.3661C106.68 17.0461 106.224 16.6621 105.84 16.2141L107.712 14.3181C108.112 14.7661 108.576 15.1021 109.104 15.3261C109.632 15.5501 110.216 15.6621 110.856 15.6621C111.368 15.6621 111.752 15.5901 112.008 15.4461C112.28 15.3021 112.416 15.0861 112.416 14.7981C112.416 14.4781 112.272 14.2301 111.984 14.0541C111.712 13.8781 111.352 13.7341 110.904 13.6221C110.456 13.4941 109.984 13.3581 109.488 13.2141C109.008 13.0541 108.544 12.8541 108.096 12.6141C107.648 12.3581 107.28 12.0141 106.992 11.5821C106.72 11.1341 106.584 10.5581 106.584 9.85412C106.584 9.11812 106.76 8.47812 107.112 7.93412C107.48 7.39012 108 6.96612 108.672 6.66212C109.344 6.35812 110.136 6.20612 111.048 6.20612C112.008 6.20612 112.872 6.37412 113.64 6.71012C114.424 7.04612 115.072 7.55012 115.584 8.22212L113.688 10.1181C113.336 9.68612 112.936 9.37412 112.488 9.18212C112.056 8.99012 111.584 8.89412 111.072 8.89412C110.608 8.89412 110.248 8.96612 109.992 9.11012C109.752 9.25412 109.632 9.45412 109.632 9.71012C109.632 9.99812 109.768 10.2221 110.04 10.3821C110.328 10.5421 110.696 10.6861 111.144 10.8141C111.592 10.9261 112.056 11.0621 112.536 11.2221C113.032 11.3661 113.496 11.5741 113.928 11.8461C114.376 12.1181 114.736 12.4781 115.008 12.9261C115.296 13.3741 115.44 13.9501 115.44 14.6541C115.44 15.7901 115.032 16.6941 114.216 17.3661C113.4 18.0221 112.288 18.3501 110.88 18.3501ZM124.544 18.3261C123.216 18.3261 122.032 18.0381 120.992 17.4621C119.968 16.8701 119.16 16.0621 118.568 15.0381C117.976 14.0141 117.68 12.8541 117.68 11.5581V1.21412H120.944V11.6541C120.944 12.4061 121.096 13.0541 121.4 13.5981C121.72 14.1421 122.152 14.5661 122.696 14.8701C123.256 15.1581 123.872 15.3021 124.544 15.3021C125.232 15.3021 125.84 15.1581 126.368 14.8701C126.896 14.5661 127.312 14.1421 127.616 13.5981C127.936 13.0541 128.096 12.4141 128.096 11.6781V1.21412H131.384V11.5821C131.384 12.8781 131.088 14.0381 130.496 15.0621C129.904 16.0701 129.096 16.8701 128.072 17.4621C127.064 18.0381 125.888 18.3261 124.544 18.3261ZM140.703 18.3261C139.871 18.3261 139.119 18.1581 138.447 17.8221C137.775 17.4701 137.239 16.9981 136.839 16.4061C136.439 15.8141 136.223 15.1341 136.191 14.3661V10.2621C136.223 9.49412 136.439 8.81412 136.839 8.22212C137.255 7.61412 137.791 7.13412 138.447 6.78212C139.119 6.43012 139.871 6.25412 140.703 6.25412C141.775 6.25412 142.735 6.51812 143.583 7.04612C144.431 7.57412 145.095 8.29412 145.575 9.20612C146.071 10.1181 146.319 11.1501 146.319 12.3021C146.319 13.4381 146.071 14.4621 145.575 15.3741C145.095 16.2861 144.431 17.0061 143.583 17.5341C142.735 18.0621 141.775 18.3261 140.703 18.3261ZM140.151 15.4221C140.727 15.4221 141.239 15.2941 141.687 15.0381C142.135 14.7661 142.479 14.3981 142.719 13.9341C142.975 13.4541 143.103 12.9021 143.103 12.2781C143.103 11.6701 142.975 11.1341 142.719 10.6701C142.479 10.1901 142.135 9.82212 141.687 9.56612C141.239 9.29412 140.727 9.15812 140.151 9.15812C139.591 9.15812 139.087 9.29412 138.639 9.56612C138.191 9.82212 137.839 10.1901 137.583 10.6701C137.343 11.1341 137.223 11.6701 137.223 12.2781C137.223 12.9021 137.343 13.4541 137.583 13.9341C137.839 14.3981 138.183 14.7661 138.615 15.0381C139.063 15.2941 139.575 15.4221 140.151 15.4221ZM134.271 22.9341V6.49412H137.415V9.54212L136.887 12.3501L137.391 15.1581V22.9341H134.271ZM154.772 18.0861V1.67012H157.916V18.0861H154.772ZM152.06 9.25412V6.49412H160.628V9.25412H152.06ZM167.563 18.3261C166.395 18.3261 165.339 18.0621 164.395 17.5341C163.467 16.9901 162.723 16.2621 162.163 15.3501C161.619 14.4221 161.347 13.3901 161.347 12.2541C161.347 11.1181 161.619 10.1021 162.163 9.20612C162.707 8.29412 163.451 7.57412 164.395 7.04612C165.339 6.50212 166.387 6.23012 167.539 6.23012C168.723 6.23012 169.779 6.50212 170.707 7.04612C171.651 7.57412 172.395 8.29412 172.939 9.20612C173.483 10.1021 173.755 11.1181 173.755 12.2541C173.755 13.3901 173.483 14.4221 172.939 15.3501C172.395 16.2621 171.651 16.9901 170.707 17.5341C169.779 18.0621 168.731 18.3261 167.563 18.3261ZM167.539 15.3981C168.131 15.3981 168.651 15.2701 169.099 15.0141C169.563 14.7421 169.915 14.3741 170.155 13.9101C170.411 13.4301 170.539 12.8861 170.539 12.2781C170.539 11.6701 170.411 11.1341 170.155 10.6701C169.899 10.2061 169.547 9.84612 169.099 9.59012C168.651 9.31812 168.131 9.18212 167.539 9.18212C166.963 9.18212 166.451 9.31812 166.003 9.59012C165.555 9.84612 165.203 10.2061 164.947 10.6701C164.691 11.1341 164.563 11.6701 164.563 12.2781C164.563 12.8861 164.691 13.4301 164.947 13.9101C165.203 14.3741 165.555 14.7421 166.003 15.0141C166.451 15.2701 166.963 15.3981 167.539 15.3981ZM180.802 18.0861V1.21412H184.066V18.0861H180.802ZM183.202 11.1741V8.27012H191.698V11.1741H183.202ZM183.202 4.09412V1.21412H192.106V4.09412H183.202ZM194.341 18.0861V6.49412H197.509V18.0861H194.341ZM195.925 4.62212C195.413 4.62212 194.989 4.45412 194.653 4.11812C194.317 3.76612 194.149 3.33412 194.149 2.82212C194.149 2.32612 194.317 1.90212 194.653 1.55012C194.989 1.19812 195.413 1.02212 195.925 1.02212C196.453 1.02212 196.877 1.19812 197.197 1.55012C197.533 1.90212 197.701 2.32612 197.701 2.82212C197.701 3.33412 197.533 3.76612 197.197 4.11812C196.877 4.45412 196.453 4.62212 195.925 4.62212ZM208.094 18.0861V11.4381C208.094 10.7501 207.878 10.1901 207.446 9.75812C207.014 9.32612 206.454 9.11012 205.766 9.11012C205.318 9.11012 204.918 9.20612 204.566 9.39812C204.214 9.59012 203.934 9.86212 203.726 10.2141C203.534 10.5661 203.438 10.9741 203.438 11.4381L202.214 10.8141C202.214 9.90212 202.406 9.11012 202.79 8.43812C203.19 7.75012 203.734 7.21412 204.422 6.83012C205.126 6.44612 205.918 6.25412 206.798 6.25412C207.646 6.25412 208.406 6.47012 209.078 6.90212C209.75 7.31812 210.278 7.87012 210.662 8.55812C211.046 9.23012 211.238 9.95812 211.238 10.7421V18.0861H208.094ZM200.294 18.0861V6.49412H203.438V18.0861H200.294ZM218.667 18.3261C217.595 18.3261 216.635 18.0621 215.787 17.5341C214.939 17.0061 214.267 16.2861 213.771 15.3741C213.291 14.4621 213.051 13.4381 213.051 12.3021C213.051 11.1501 213.291 10.1181 213.771 9.20612C214.267 8.29412 214.931 7.57412 215.763 7.04612C216.611 6.51812 217.579 6.25412 218.667 6.25412C219.499 6.25412 220.243 6.42212 220.899 6.75812C221.571 7.09412 222.107 7.56612 222.507 8.17412C222.923 8.76612 223.147 9.43812 223.179 10.1901V14.3181C223.147 15.0701 222.931 15.7501 222.531 16.3581C222.131 16.9661 221.595 17.4461 220.923 17.7981C220.251 18.1501 219.499 18.3261 218.667 18.3261ZM219.195 15.4221C219.787 15.4221 220.299 15.2941 220.731 15.0381C221.179 14.7661 221.523 14.3981 221.763 13.9341C222.019 13.4541 222.147 12.9021 222.147 12.2781C222.147 11.6701 222.019 11.1341 221.763 10.6701C221.523 10.1901 221.179 9.82212 220.731 9.56612C220.299 9.29412 219.795 9.15812 219.219 9.15812C218.627 9.15812 218.107 9.29412 217.659 9.56612C217.227 9.83812 216.883 10.2061 216.627 10.6701C216.387 11.1341 216.267 11.6701 216.267 12.2781C216.267 12.9021 216.387 13.4541 216.627 13.9341C216.883 14.3981 217.235 14.7661 217.683 15.0381C218.131 15.2941 218.635 15.4221 219.195 15.4221ZM225.099 18.0861H221.979V14.9661L222.483 12.1341L221.955 9.35012V0.734119H225.099V18.0861ZM236.216 18.1821L231.368 6.49412H234.776L237.992 15.4221H236.84L240.176 6.49412H243.608L238.448 18.1581L236.216 18.1821ZM233 22.9341L236.528 15.4701L238.448 18.1581L236.336 22.9341H233ZM250.133 18.3261C248.965 18.3261 247.909 18.0621 246.965 17.5341C246.037 16.9901 245.293 16.2621 244.733 15.3501C244.189 14.4221 243.917 13.3901 243.917 12.2541C243.917 11.1181 244.189 10.1021 244.733 9.20612C245.277 8.29412 246.021 7.57412 246.965 7.04612C247.909 6.50212 248.957 6.23012 250.109 6.23012C251.293 6.23012 252.349 6.50212 253.277 7.04612C254.221 7.57412 254.965 8.29412 255.509 9.20612C256.053 10.1021 256.325 11.1181 256.325 12.2541C256.325 13.3901 256.053 14.4221 255.509 15.3501C254.965 16.2621 254.221 16.9901 253.277 17.5341C252.349 18.0621 251.301 18.3261 250.133 18.3261ZM250.109 15.3981C250.701 15.3981 251.221 15.2701 251.669 15.0141C252.133 14.7421 252.485 14.3741 252.725 13.9101C252.981 13.4301 253.109 12.8861 253.109 12.2781C253.109 11.6701 252.981 11.1341 252.725 10.6701C252.469 10.2061 252.117 9.84612 251.669 9.59012C251.221 9.31812 250.701 9.18212 250.109 9.18212C249.533 9.18212 249.021 9.31812 248.573 9.59012C248.125 9.84612 247.773 10.2061 247.517 10.6701C247.261 11.1341 247.133 11.6701 247.133 12.2781C247.133 12.8861 247.261 13.4301 247.517 13.9101C247.773 14.3741 248.125 14.7421 248.573 15.0141C249.021 15.2701 249.533 15.3981 250.109 15.3981ZM263.293 18.3261C262.269 18.3261 261.357 18.1101 260.557 17.6781C259.773 17.2461 259.157 16.6461 258.709 15.8781C258.261 15.1101 258.037 14.2221 258.037 13.2141V6.49412H261.205V13.1421C261.205 13.6221 261.285 14.0381 261.445 14.3901C261.605 14.7261 261.845 14.9821 262.165 15.1581C262.485 15.3341 262.861 15.4221 263.293 15.4221C263.949 15.4221 264.461 15.2221 264.829 14.8221C265.197 14.4221 265.381 13.8621 265.381 13.1421V6.49412H268.525V13.2141C268.525 14.2381 268.301 15.1341 267.853 15.9021C267.421 16.6701 266.805 17.2701 266.005 17.7021C265.221 18.1181 264.317 18.3261 263.293 18.3261ZM271.029 18.0861V6.49412H274.173V18.0861H271.029ZM274.173 11.6781L272.949 10.8621C273.093 9.43812 273.509 8.31812 274.197 7.50212C274.885 6.67012 275.877 6.25412 277.173 6.25412C277.733 6.25412 278.237 6.35012 278.685 6.54212C279.133 6.71812 279.541 7.01412 279.909 7.43012L277.941 9.68612C277.765 9.49412 277.549 9.35012 277.293 9.25412C277.053 9.15812 276.773 9.11012 276.453 9.11012C275.781 9.11012 275.229 9.32612 274.797 9.75812C274.381 10.1741 274.173 10.8141 274.173 11.6781ZM286.458 18.0861V1.21412H289.722V18.0861H286.458ZM297.042 18.0861V1.21412H300.306V18.0861H297.042ZM288.522 10.8141V7.93412H297.954V10.8141H288.522ZM308.267 18.3261C307.211 18.3261 306.259 18.0621 305.411 17.5341C304.563 17.0061 303.899 16.2861 303.419 15.3741C302.939 14.4621 302.699 13.4381 302.699 12.3021C302.699 11.1501 302.939 10.1181 303.419 9.20612C303.899 8.29412 304.563 7.57412 305.411 7.04612C306.259 6.51812 307.211 6.25412 308.267 6.25412C309.099 6.25412 309.843 6.42212 310.499 6.75812C311.155 7.09412 311.675 7.56612 312.059 8.17412C312.459 8.76612 312.675 9.43812 312.707 10.1901V14.3661C312.675 15.1341 312.459 15.8141 312.059 16.4061C311.675 16.9981 311.155 17.4701 310.499 17.8221C309.843 18.1581 309.099 18.3261 308.267 18.3261ZM308.843 15.4221C309.723 15.4221 310.435 15.1341 310.979 14.5581C311.523 13.9661 311.795 13.2061 311.795 12.2781C311.795 11.6701 311.667 11.1341 311.411 10.6701C311.171 10.1901 310.827 9.82212 310.379 9.56612C309.947 9.29412 309.435 9.15812 308.843 9.15812C308.267 9.15812 307.755 9.29412 307.307 9.56612C306.875 9.82212 306.531 10.1901 306.275 10.6701C306.035 11.1341 305.915 11.6701 305.915 12.2781C305.915 12.9021 306.035 13.4541 306.275 13.9341C306.531 14.3981 306.875 14.7661 307.307 15.0381C307.755 15.2941 308.267 15.4221 308.843 15.4221ZM311.627 18.0861V14.9661L312.131 12.1341L311.627 9.35012V6.49412H314.747V18.0861H311.627ZM323.961 18.3261C323.129 18.3261 322.377 18.1581 321.705 17.8221C321.033 17.4701 320.497 16.9981 320.097 16.4061C319.697 15.8141 319.481 15.1341 319.449 14.3661V10.2621C319.481 9.49412 319.697 8.81412 320.097 8.22212C320.513 7.61412 321.049 7.13412 321.705 6.78212C322.377 6.43012 323.129 6.25412 323.961 6.25412C325.033 6.25412 325.993 6.51812 326.841 7.04612C327.689 7.57412 328.353 8.29412 328.833 9.20612C329.329 10.1181 329.577 11.1501 329.577 12.3021C329.577 13.4381 329.329 14.4621 328.833 15.3741C328.353 16.2861 327.689 17.0061 326.841 17.5341C325.993 18.0621 325.033 18.3261 323.961 18.3261ZM323.409 15.4221C323.985 15.4221 324.497 15.2941 324.945 15.0381C325.393 14.7661 325.737 14.3981 325.977 13.9341C326.233 13.4541 326.361 12.9021 326.361 12.2781C326.361 11.6701 326.233 11.1341 325.977 10.6701C325.737 10.1901 325.393 9.82212 324.945 9.56612C324.497 9.29412 323.985 9.15812 323.409 9.15812C322.849 9.15812 322.345 9.29412 321.897 9.56612C321.449 9.82212 321.097 10.1901 320.841 10.6701C320.601 11.1341 320.481 11.6701 320.481 12.2781C320.481 12.9021 320.601 13.4541 320.841 13.9341C321.097 14.3981 321.441 14.7661 321.873 15.0381C322.321 15.2941 322.833 15.4221 323.409 15.4221ZM317.529 22.9341V6.49412H320.673V9.54212L320.145 12.3501L320.649 15.1581V22.9341H317.529ZM338.07 18.3261C337.238 18.3261 336.486 18.1581 335.814 17.8221C335.142 17.4701 334.606 16.9981 334.206 16.4061C333.806 15.8141 333.59 15.1341 333.558 14.3661V10.2621C333.59 9.49412 333.806 8.81412 334.206 8.22212C334.622 7.61412 335.158 7.13412 335.814 6.78212C336.486 6.43012 337.238 6.25412 338.07 6.25412C339.142 6.25412 340.102 6.51812 340.95 7.04612C341.798 7.57412 342.462 8.29412 342.942 9.20612C343.438 10.1181 343.686 11.1501 343.686 12.3021C343.686 13.4381 343.438 14.4621 342.942 15.3741C342.462 16.2861 341.798 17.0061 340.95 17.5341C340.102 18.0621 339.142 18.3261 338.07 18.3261ZM337.518 15.4221C338.094 15.4221 338.606 15.2941 339.054 15.0381C339.502 14.7661 339.846 14.3981 340.086 13.9341C340.342 13.4541 340.47 12.9021 340.47 12.2781C340.47 11.6701 340.342 11.1341 340.086 10.6701C339.846 10.1901 339.502 9.82212 339.054 9.56612C338.606 9.29412 338.094 9.15812 337.518 9.15812C336.958 9.15812 336.454 9.29412 336.006 9.56612C335.558 9.82212 335.206 10.1901 334.95 10.6701C334.71 11.1341 334.59 11.6701 334.59 12.2781C334.59 12.9021 334.71 13.4541 334.95 13.9341C335.206 14.3981 335.55 14.7661 335.982 15.0381C336.43 15.2941 336.942 15.4221 337.518 15.4221ZM331.638 22.9341V6.49412H334.782V9.54212L334.254 12.3501L334.758 15.1581V22.9341H331.638ZM349.044 18.1821L344.196 6.49412H347.604L350.82 15.4221H349.668L353.004 6.49412H356.436L351.276 18.1581L349.044 18.1821ZM345.828 22.9341L349.356 15.4701L351.276 18.1581L349.164 22.9341H345.828ZM365.452 11.8221V9.15812H369.364C369.876 9.15812 370.34 9.05412 370.756 8.84612C371.172 8.63812 371.5 8.34212 371.74 7.95812C371.98 7.55812 372.1 7.07812 372.1 6.51812C372.1 5.97412 371.98 5.50212 371.74 5.10212C371.5 4.70212 371.172 4.39812 370.756 4.19012C370.34 3.98212 369.876 3.87812 369.364 3.87812H365.452V1.21412H369.7C370.772 1.21412 371.732 1.43012 372.58 1.86212C373.444 2.29412 374.124 2.91012 374.62 3.71012C375.116 4.49412 375.364 5.43012 375.364 6.51812C375.364 7.60612 375.116 8.55012 374.62 9.35012C374.124 10.1341 373.444 10.7421 372.58 11.1741C371.732 11.6061 370.772 11.8221 369.7 11.8221H365.452ZM363.052 18.0861V1.21412H366.316V18.0861H363.052ZM377.505 18.0861V0.734119H380.649V18.0861H377.505ZM388.283 18.3261C387.227 18.3261 386.275 18.0621 385.427 17.5341C384.579 17.0061 383.915 16.2861 383.435 15.3741C382.955 14.4621 382.715 13.4381 382.715 12.3021C382.715 11.1501 382.955 10.1181 383.435 9.20612C383.915 8.29412 384.579 7.57412 385.427 7.04612C386.275 6.51812 387.227 6.25412 388.283 6.25412C389.115 6.25412 389.859 6.42212 390.515 6.75812C391.171 7.09412 391.691 7.56612 392.075 8.17412C392.475 8.76612 392.691 9.43812 392.723 10.1901V14.3661C392.691 15.1341 392.475 15.8141 392.075 16.4061C391.691 16.9981 391.171 17.4701 390.515 17.8221C389.859 18.1581 389.115 18.3261 388.283 18.3261ZM388.859 15.4221C389.739 15.4221 390.451 15.1341 390.995 14.5581C391.539 13.9661 391.811 13.2061 391.811 12.2781C391.811 11.6701 391.683 11.1341 391.427 10.6701C391.187 10.1901 390.843 9.82212 390.395 9.56612C389.963 9.29412 389.451 9.15812 388.859 9.15812C388.283 9.15812 387.771 9.29412 387.323 9.56612C386.891 9.82212 386.547 10.1901 386.291 10.6701C386.051 11.1341 385.931 11.6701 385.931 12.2781C385.931 12.9021 386.051 13.4541 386.291 13.9341C386.547 14.3981 386.891 14.7661 387.323 15.0381C387.771 15.2941 388.283 15.4221 388.859 15.4221ZM391.643 18.0861V14.9661L392.147 12.1341L391.643 9.35012V6.49412H394.763V18.0861H391.643ZM403.016 18.3261C401.832 18.3261 400.768 18.0621 399.824 17.5341C398.88 17.0061 398.136 16.2861 397.592 15.3741C397.048 14.4621 396.776 13.4381 396.776 12.3021C396.776 11.1501 397.048 10.1181 397.592 9.20612C398.136 8.29412 398.88 7.57412 399.824 7.04612C400.784 6.50212 401.848 6.23012 403.016 6.23012C403.928 6.23012 404.768 6.39812 405.536 6.73412C406.304 7.07012 406.968 7.55012 407.528 8.17412L405.512 10.2141C405.208 9.87812 404.84 9.62212 404.408 9.44612C403.992 9.27012 403.528 9.18212 403.016 9.18212C402.44 9.18212 401.92 9.31812 401.456 9.59012C401.008 9.84612 400.648 10.2061 400.376 10.6701C400.12 11.1181 399.992 11.6541 399.992 12.2781C399.992 12.8861 400.12 13.4301 400.376 13.9101C400.648 14.3741 401.008 14.7421 401.456 15.0141C401.92 15.2701 402.44 15.3981 403.016 15.3981C403.544 15.3981 404.016 15.3101 404.432 15.1341C404.864 14.9421 405.232 14.6701 405.536 14.3181L407.576 16.3581C406.984 16.9981 406.304 17.4861 405.536 17.8221C404.768 18.1581 403.928 18.3261 403.016 18.3261ZM414.643 18.3261C413.427 18.3261 412.347 18.0701 411.403 17.5581C410.459 17.0301 409.707 16.3101 409.147 15.3981C408.603 14.4861 408.331 13.4461 408.331 12.2781C408.331 11.1261 408.595 10.1021 409.123 9.20612C409.667 8.29412 410.403 7.57412 411.331 7.04612C412.259 6.50212 413.291 6.23012 414.427 6.23012C415.547 6.23012 416.531 6.48612 417.379 6.99812C418.243 7.49412 418.915 8.18212 419.395 9.06212C419.891 9.92612 420.139 10.9101 420.139 12.0141C420.139 12.2221 420.123 12.4381 420.091 12.6621C420.075 12.8701 420.035 13.1101 419.971 13.3821L410.227 13.4061V11.0541L418.507 11.0301L417.235 12.0141C417.203 11.3261 417.075 10.7501 416.851 10.2861C416.643 9.82212 416.331 9.47012 415.915 9.23012C415.515 8.97412 415.019 8.84612 414.427 8.84612C413.803 8.84612 413.259 8.99012 412.795 9.27812C412.331 9.55012 411.971 9.94212 411.715 10.4541C411.475 10.9501 411.355 11.5421 411.355 12.2301C411.355 12.9341 411.483 13.5501 411.739 14.0781C412.011 14.5901 412.395 14.9901 412.891 15.2781C413.387 15.5501 413.963 15.6861 414.619 15.6861C415.211 15.6861 415.747 15.5901 416.227 15.3981C416.707 15.1901 417.123 14.8861 417.475 14.4861L419.323 16.3341C418.763 16.9901 418.075 17.4861 417.259 17.8221C416.459 18.1581 415.587 18.3261 414.643 18.3261Z" fill="black" fill-opacity="0.2"/>
</svg>
