<svg width="1184" height="192" viewBox="0 0 1184 192" fill="none" xmlns="http://www.w3.org/2000/svg">
<g opacity="0.15">
<path d="M54.5078 149.437L0 4.69543H38.9925L79.8223 121.673H63.0821L104.524 4.69543H142.7L87.58 149.437H54.5078Z" fill="url(#paint0_linear_2418_40168)"/>
<path d="M196.122 149.437V49.6082H231.848V149.437H196.122ZM213.883 37.9717C208.575 37.9717 204.152 36.2025 200.613 32.6639C197.075 28.9892 195.305 24.4298 195.305 18.9859C195.305 13.678 197.075 9.18671 200.613 5.51203C204.152 1.83734 208.575 0 213.883 0C219.463 0 223.954 1.83734 227.357 5.51203C230.895 9.18671 232.665 13.678 232.665 18.9859C232.665 24.4298 230.895 28.9892 227.357 32.6639C223.954 36.2025 219.463 37.9717 213.883 37.9717Z" fill="url(#paint1_linear_2418_40168)"/>
<path d="M352.784 151.479C346.387 151.479 340.467 150.254 335.023 147.804C329.579 145.218 325.088 141.748 321.549 137.392C318.011 133.037 315.833 128.274 315.016 123.102V74.3103C315.833 69.1385 318.011 64.5111 321.549 60.4281C325.224 56.3452 329.783 53.2149 335.227 51.0373C340.671 48.7236 346.523 47.5668 352.784 47.5668C362.447 47.5668 370.953 49.8124 378.303 54.3037C385.652 58.6589 391.368 64.7833 395.451 72.6771C399.67 80.5709 401.78 89.5534 401.78 99.6248C401.78 109.56 399.67 118.475 395.451 126.368C391.368 134.126 385.652 140.25 378.303 144.742C370.953 149.233 362.447 151.479 352.784 151.479ZM346.455 119.836C350.266 119.836 353.601 118.951 356.459 117.182C359.453 115.412 361.767 113.031 363.4 110.036C365.033 106.906 365.85 103.368 365.85 99.4206C365.85 95.6098 365.033 92.2074 363.4 89.2132C361.767 86.0829 359.453 83.6331 356.459 81.8638C353.465 80.0945 350.062 79.2099 346.251 79.2099C342.441 79.2099 339.038 80.0945 336.044 81.8638C333.186 83.6331 330.94 86.0148 329.307 89.009C327.674 92.0032 326.857 95.4737 326.857 99.4206C326.857 103.504 327.674 107.11 329.307 110.241C330.94 113.235 333.254 115.616 336.248 117.386C339.242 119.019 342.645 119.836 346.455 119.836ZM293.377 149.437V0.612452H328.899V74.1061L322.978 98.1957L328.082 122.694V149.437H293.377Z" fill="url(#paint2_linear_2418_40168)"/>
<path d="M507.639 151.683C496.479 151.683 486.612 149.505 478.038 145.15C469.463 140.659 462.726 134.466 457.827 126.572C452.927 118.679 450.477 109.628 450.477 99.4206C450.477 89.3493 452.859 80.4348 457.623 72.6771C462.386 64.7833 468.851 58.5908 477.017 54.0995C485.319 49.4721 494.642 47.1584 504.985 47.1584C515.057 47.1584 523.971 49.336 531.729 53.6912C539.622 57.9103 545.747 63.8306 550.102 71.4522C554.593 78.9377 556.839 87.5119 556.839 97.175C556.839 99.2165 556.703 101.326 556.431 103.504C556.295 105.545 555.886 107.927 555.206 110.649L467.218 111.057V88.1924L541.12 87.58L525.196 97.5833C525.06 92.0032 524.243 87.4439 522.746 83.9053C521.249 80.2306 519.071 77.4406 516.213 75.5352C513.355 73.6298 509.749 72.6771 505.393 72.6771C500.902 72.6771 497.023 73.7659 493.757 75.9435C490.491 78.1211 487.973 81.1833 486.203 85.1302C484.434 89.0771 483.55 93.8406 483.55 99.4206C483.55 105.137 484.502 110.036 486.408 114.119C488.313 118.066 491.035 121.06 494.574 123.102C498.112 125.143 502.467 126.164 507.639 126.164C512.539 126.164 516.826 125.348 520.501 123.714C524.311 122.081 527.714 119.563 530.708 116.161L549.286 134.738C544.386 140.318 538.398 144.538 531.32 147.396C524.379 150.254 516.486 151.683 507.639 151.683Z" fill="url(#paint3_linear_2418_40168)"/>
<path d="M605.163 128.206L652.526 70.8398H696.418L649.055 128.206H605.163ZM605.163 149.437V128.206L628.232 120.448H695.193V149.437H605.163ZM608.634 78.5974V49.6082H696.418V70.8398L673.349 78.5974H608.634Z" fill="url(#paint4_linear_2418_40168)"/>
<path d="M790.963 152.295C784.839 152.295 778.782 151.479 772.794 149.845C766.942 148.212 761.43 146.035 756.258 143.313C751.222 140.455 746.935 137.188 743.396 133.514L762.791 113.711C766.057 117.114 769.936 119.768 774.427 121.673C779.054 123.578 783.954 124.531 789.126 124.531C792.12 124.531 794.366 124.123 795.863 123.306C797.496 122.489 798.312 121.333 798.312 119.836C798.312 117.658 797.156 116.025 794.842 114.936C792.664 113.711 789.738 112.69 786.063 111.874C782.525 110.921 778.782 109.832 774.835 108.607C770.888 107.246 767.078 105.477 763.403 103.299C759.728 101.122 756.734 98.0596 754.42 94.1128C752.243 90.1659 751.154 85.1302 751.154 79.0057C751.154 72.609 752.855 67.029 756.258 62.2655C759.796 57.3659 764.696 53.5551 770.956 50.8331C777.217 47.9751 784.566 46.546 793.005 46.546C801.579 46.546 809.745 48.0431 817.502 51.0373C825.26 53.8954 831.521 58.2506 836.284 64.1028L816.686 83.9053C813.42 80.2306 809.813 77.7128 805.866 76.3518C801.919 74.8547 798.312 74.1061 795.046 74.1061C791.916 74.1061 789.67 74.5825 788.309 75.5352C786.948 76.3518 786.268 77.5086 786.268 79.0057C786.268 80.775 787.356 82.2041 789.534 83.2929C791.848 84.3816 794.774 85.4024 798.312 86.3551C801.987 87.1717 805.73 88.2605 809.541 89.6215C813.488 90.9825 817.23 92.8879 820.769 95.3376C824.444 97.6513 827.37 100.782 829.547 104.729C831.861 108.675 833.018 113.779 833.018 120.04C833.018 129.975 829.207 137.869 821.585 143.721C813.964 149.437 803.756 152.295 790.963 152.295Z" fill="url(#paint5_linear_2418_40168)"/>
<path d="M951.976 151.683C939.727 151.683 928.907 149.165 919.516 144.129C910.262 138.958 903.048 131.812 897.877 122.694C892.705 113.575 890.119 103.231 890.119 91.663V4.69543H926.457V94.3169C926.457 99.4887 927.546 103.98 929.724 107.791C932.038 111.465 935.1 114.324 938.911 116.365C942.857 118.27 947.213 119.223 951.976 119.223C956.876 119.223 961.163 118.27 964.838 116.365C968.512 114.324 971.438 111.465 973.616 107.791C975.793 104.116 976.882 99.6928 976.882 94.521V4.69543H1013.63V91.8671C1013.63 103.436 1011.04 113.779 1005.87 122.898C1000.7 131.88 993.486 138.958 984.232 144.129C975.113 149.165 964.361 151.683 951.976 151.683Z" fill="url(#paint6_linear_2418_40168)"/>
<path d="M1134.69 151.479C1128.29 151.479 1122.37 150.322 1116.93 148.008C1111.49 145.694 1106.99 142.564 1103.46 138.617C1099.92 134.534 1097.74 129.839 1096.92 124.531V75.9435C1097.74 70.6356 1099.92 65.8721 1103.46 61.653C1107.13 57.2979 1111.62 53.8954 1116.93 51.4456C1122.37 48.8597 1128.29 47.5668 1134.69 47.5668C1144.35 47.5668 1152.86 49.8124 1160.21 54.3037C1167.56 58.6589 1173.28 64.7833 1177.36 72.6771C1181.58 80.5709 1183.69 89.5534 1183.69 99.6248C1183.69 109.56 1181.58 118.475 1177.36 126.368C1173.28 134.126 1167.56 140.25 1160.21 144.742C1152.86 149.233 1144.35 151.479 1134.69 151.479ZM1127.95 119.836C1131.9 119.836 1135.37 118.951 1138.37 117.182C1141.36 115.412 1143.67 113.031 1145.31 110.036C1146.94 106.906 1147.76 103.368 1147.76 99.4206C1147.76 95.4737 1146.94 92.0032 1145.31 89.009C1143.67 86.0148 1141.36 83.6331 1138.37 81.8638C1135.37 80.0945 1131.97 79.2099 1128.16 79.2099C1124.48 79.2099 1121.15 80.0945 1118.16 81.8638C1115.16 83.497 1112.85 85.8787 1111.21 89.009C1109.58 92.0032 1108.76 95.4737 1108.76 99.4206C1108.76 103.368 1109.58 106.906 1111.21 110.036C1112.85 113.031 1115.09 115.412 1117.95 117.182C1120.95 118.951 1124.28 119.836 1127.95 119.836ZM1075.28 191.696V49.6082H1110.81V74.7186L1104.89 98.8082L1109.99 123.102V191.696H1075.28Z" fill="url(#paint7_linear_2418_40168)"/>
</g>
<defs>
<linearGradient id="paint0_linear_2418_40168" x1="594.253" y1="-179.115" x2="594.253" y2="149.437" gradientUnits="userSpaceOnUse">
<stop stop-color="#151515"/>
<stop offset="1" stop-color="#151515" stop-opacity="0"/>
</linearGradient>
<linearGradient id="paint1_linear_2418_40168" x1="594.253" y1="-179.115" x2="594.253" y2="149.437" gradientUnits="userSpaceOnUse">
<stop stop-color="#151515"/>
<stop offset="1" stop-color="#151515" stop-opacity="0"/>
</linearGradient>
<linearGradient id="paint2_linear_2418_40168" x1="594.253" y1="-179.115" x2="594.253" y2="149.437" gradientUnits="userSpaceOnUse">
<stop stop-color="#151515"/>
<stop offset="1" stop-color="#151515" stop-opacity="0"/>
</linearGradient>
<linearGradient id="paint3_linear_2418_40168" x1="594.253" y1="-179.115" x2="594.253" y2="149.437" gradientUnits="userSpaceOnUse">
<stop stop-color="#151515"/>
<stop offset="1" stop-color="#151515" stop-opacity="0"/>
</linearGradient>
<linearGradient id="paint4_linear_2418_40168" x1="594.253" y1="-179.115" x2="594.253" y2="149.437" gradientUnits="userSpaceOnUse">
<stop stop-color="#151515"/>
<stop offset="1" stop-color="#151515" stop-opacity="0"/>
</linearGradient>
<linearGradient id="paint5_linear_2418_40168" x1="594.253" y1="-179.115" x2="594.253" y2="149.437" gradientUnits="userSpaceOnUse">
<stop stop-color="#151515"/>
<stop offset="1" stop-color="#151515" stop-opacity="0"/>
</linearGradient>
<linearGradient id="paint6_linear_2418_40168" x1="594.253" y1="-179.115" x2="594.253" y2="149.437" gradientUnits="userSpaceOnUse">
<stop stop-color="#151515"/>
<stop offset="1" stop-color="#151515" stop-opacity="0"/>
</linearGradient>
<linearGradient id="paint7_linear_2418_40168" x1="594.253" y1="-179.115" x2="594.253" y2="149.437" gradientUnits="userSpaceOnUse">
<stop stop-color="#151515"/>
<stop offset="1" stop-color="#151515" stop-opacity="0"/>
</linearGradient>
</defs>
</svg>
