<svg width="63" height="50" viewBox="0 0 63 50" fill="none" xmlns="http://www.w3.org/2000/svg">
<path d="M51.6734 0H12.0975C2.82362 0 -2.49399 10.5587 3.0259 18.0121L22.822 44.7368C23.8731 46.1536 25.2412 47.3046 26.817 48.0977C28.3927 48.8908 30.1323 49.3038 31.8964 49.3038C33.6605 49.3038 35.4001 48.8908 36.9758 48.0977C38.5516 47.3046 39.9198 46.1536 40.9708 44.7368L60.7451 18.0084C66.2613 10.5532 60.9419 0 51.6734 0ZM45.7326 26.8778C41.0965 29.0755 36.404 30.1872 31.7825 30.1872C27.161 30.1872 22.4886 29.0664 17.9855 26.8559C17.0148 26.3798 16.2729 25.5377 15.9231 24.5146C15.5734 23.4916 15.6443 22.3715 16.1204 21.4007C16.5964 20.43 17.4386 19.6881 18.4617 19.3383C19.4847 18.9885 20.6048 19.0595 21.5756 19.5355C25.0143 21.2285 28.3565 22.0467 31.7807 22.0467C35.2049 22.0467 38.6473 21.2194 42.2446 19.5137C42.7889 19.2529 43.385 19.1183 43.9886 19.1201C44.7601 19.1216 45.5152 19.3422 46.1663 19.7561C46.8169 20.1696 47.3385 20.7574 47.6715 21.4527C48.1331 22.4293 48.1881 23.5492 47.8246 24.5664C47.461 25.5836 46.7086 26.4149 45.7326 26.8778Z" fill="url(#paint0_linear_2455_7727)"/>
<defs>
<linearGradient id="paint0_linear_2455_7727" x1="0.786236" y1="24.6527" x2="62.9811" y2="24.6527" gradientUnits="userSpaceOnUse">
<stop stop-color="#00DAFF"/>
<stop offset="0.16" stop-color="#31BAFD"/>
<stop offset="0.38" stop-color="#7190FA"/>
<stop offset="0.59" stop-color="#A46EF7"/>
<stop offset="0.76" stop-color="#C856F5"/>
<stop offset="0.91" stop-color="#DF47F4"/>
<stop offset="1" stop-color="#E742F4"/>
</linearGradient>
</defs>
</svg>
