<svg width="188" height="50" viewBox="0 0 188 50" fill="none" xmlns="http://www.w3.org/2000/svg">
<path d="M35.8098 7.41821H7.95939C1.43314 7.41821 -2.30898 14.8486 1.57548 20.0937L15.5065 38.9004C16.2461 39.8975 17.2089 40.7075 18.3178 41.2656C19.4267 41.8237 20.6509 42.1144 21.8923 42.1144C23.1337 42.1144 24.3579 41.8237 25.4668 41.2656C26.5757 40.7075 27.5385 39.8975 28.2781 38.9004L42.1937 20.0911C46.0756 14.8447 42.3322 7.41821 35.8098 7.41821ZM31.6291 26.3327C28.3666 27.8793 25.0644 28.6616 21.8121 28.6616C18.5599 28.6616 15.2718 27.8729 12.1029 26.3173C11.4198 25.9823 10.8977 25.3896 10.6516 24.6697C10.4054 23.9497 10.4553 23.1615 10.7903 22.4784C11.1254 21.7952 11.718 21.2732 12.438 21.027C13.1579 20.7809 13.9462 20.8308 14.6293 21.1658C17.0492 22.3572 19.4012 22.933 21.8109 22.933C24.2205 22.933 26.643 22.3508 29.1745 21.1504C29.5576 20.9669 29.9771 20.8722 30.4018 20.8734C30.9447 20.8745 31.4762 21.0297 31.9343 21.321C32.3922 21.612 32.7592 22.0256 32.9936 22.5149C33.3184 23.2022 33.3571 23.9903 33.1013 24.7061C32.8454 25.4219 32.3159 26.007 31.6291 26.3327Z" fill="url(#paint0_linear_2543_46599)"/>
<path d="M66.8234 4.11032H75.5175V4.49607C74.1822 4.49607 72.5502 4.94116 69.9094 11.1131L64.3012 25H63.6187C56.0225 7.5227 55.6367 6.89957 55.6367 6.89957C54.6278 4.52574 53.8563 4.52574 53.0552 4.49607V4.11032H62.7285V4.49607C60.4734 4.49607 61.868 7.93812 61.868 7.93812L66.4376 18.7094L69.5236 11.0241C69.9687 9.9262 71.0369 4.49607 66.8234 4.49607V4.11032ZM76.7907 7.04793C76.7907 5.68298 77.8589 4.61476 79.2238 4.61476C80.5591 4.61476 81.657 5.68298 81.657 7.04793C81.657 8.38321 80.5591 9.45143 79.2238 9.45143C77.8589 9.45143 76.7907 8.38321 76.7907 7.04793ZM82.9329 24.6439V25H76.1675V24.6439C77.2951 24.2879 77.3545 23.0416 77.3545 21.5283V14.6145C77.3545 13.576 77.0281 13.1605 75.8115 12.6264V12.2407L81.7164 11.0241V21.5283C81.7164 23.1603 81.8647 24.3472 82.9329 24.6439ZM96.2778 18.4423C96.2778 14.3475 95.3283 12.0923 93.0435 12.0923C91.0257 12.0923 90.2839 14.1397 90.2839 16.3355V19.8073C90.2839 23.368 91.5302 24.8813 93.2809 24.8813C95.1799 24.8813 96.2778 23.1009 96.2778 18.4423ZM101.382 18.1159C101.382 23.457 97.8505 25.2671 93.8743 25.2671C91.8269 25.2671 90.3433 24.7329 89.4531 23.8724C88.4442 24.6439 85.922 25.3264 85.922 24.8516V6.30611C85.922 5.29724 85.6253 4.85214 84.4087 4.40705V4.05098L90.2839 2.86406V13.4276C91.1741 11.7956 93.0138 11.0241 95.1206 11.0241C98.8297 11.0241 101.382 13.932 101.382 18.1159ZM108.296 17.4928H113.103C113.103 13.754 112.302 11.4098 110.818 11.4098C109.246 11.4098 108.296 14.6442 108.296 17.4928ZM117.05 17.8785H108.296C108.415 21.5876 109.869 22.9229 111.857 23.368C113.4 23.7241 115.596 22.9822 116.248 21.0238L116.634 21.1722C116.219 23.0416 114.26 25.2671 110.403 25.2671C106.516 25.2671 103.608 21.9437 103.608 18.2049C103.608 13.576 106.961 11.0241 110.818 11.0241C114.557 11.0241 117.05 12.7748 117.05 17.8785ZM131.983 11.2911L124.773 24.6143C129.224 24.6143 130.559 21.6766 130.974 20.4897H131.36L131.093 25H119.135L126.82 11.6769C122.844 11.6769 121.093 13.2496 120.411 15.208H120.025L120.173 11.2911H131.983ZM143.976 23.6647C143.976 23.6647 142.849 25.2671 139.615 25.2671C136.024 25.2671 134.273 24.0801 134.273 24.0801V20.282H134.659C135.193 22.2404 136.885 24.8813 139.615 24.8813C141.721 24.8813 142.137 22.3294 139.882 20.8458L136.885 19.0358C134.036 17.2257 133.294 14.5552 135.015 12.4781C135.015 12.4781 136.113 11.0241 139.288 11.0241C142.701 11.0241 144.155 11.8846 144.155 11.8846V15.0596H143.769C143.324 13.2199 141.692 11.4098 139.288 11.4098C137.359 11.4098 136.499 13.5166 139.08 15.1486L142.077 17.018C144.748 18.65 145.519 21.6173 143.976 23.6647ZM156.417 25.2671C152.381 25.2671 148.761 22.8339 148.761 17.9972V7.10728C148.761 5.29724 148.286 4.49607 146.981 4.49607V4.11032H155.942V4.49607C154.666 4.49607 153.954 4.97084 153.954 7.10728V18.2049C153.954 21.7063 155.971 23.4867 158.79 23.4867C161.491 23.4867 163.627 21.4393 163.627 18.2049V9.9262C163.627 8.70961 163.271 4.49607 159.799 4.49607V4.11032H168.167L168.197 4.49607C164.28 4.49607 164.013 8.70961 164.013 9.9262V18.2049C164.013 23.3086 160.333 25.2671 156.417 25.2671ZM181.068 18.4423C181.068 14.3178 180.089 12.0923 177.833 12.0923C176.053 12.0923 175.252 13.665 175.074 15.5344V20.8161C175.282 23.6647 176.498 24.8813 178.041 24.8813C179.94 24.8813 181.068 23.0713 181.068 18.4423ZM186.171 18.0862C186.171 23.4273 182.64 25.2671 178.664 25.2671C177.181 25.2671 175.964 24.9703 175.074 24.4659V29.5103C175.074 31.1423 175.252 32.2105 176.29 32.4776V32.8633H169.555V32.4776C170.682 32.1512 170.712 31.0236 170.712 29.5103V14.4068C170.712 13.3682 170.415 13.0715 169.199 12.6264V12.2407L175.074 11.0241V13.3979C175.964 11.7956 177.804 11.0241 179.881 11.0241C183.59 11.0241 186.171 13.932 186.171 18.0862Z" fill="white"/>
<path d="M72.0219 46.2425C71.5867 46.2425 71.199 46.1515 70.8588 45.9695C70.5185 45.7796 70.2495 45.5224 70.0517 45.198C69.8618 44.8736 69.7668 44.5056 69.7668 44.0942V42.4562C69.7668 42.0448 69.8657 41.6768 70.0635 41.3524C70.2614 41.028 70.5304 40.7748 70.8706 40.5928C71.2109 40.4029 71.5947 40.3079 72.0219 40.3079C72.5363 40.3079 72.9992 40.4424 73.4106 40.7115C73.83 40.9726 74.1584 41.3286 74.3958 41.7797C74.6411 42.2228 74.7637 42.7253 74.7637 43.2871C74.7637 43.8409 74.6411 44.3434 74.3958 44.7944C74.1584 45.2376 73.83 45.5897 73.4106 45.8508C72.9992 46.1119 72.5363 46.2425 72.0219 46.2425ZM71.8083 45.0081C72.1248 45.0081 72.4018 44.9369 72.6391 44.7944C72.8844 44.6441 73.0743 44.4384 73.2089 44.1772C73.3513 43.9161 73.4225 43.6154 73.4225 43.2752C73.4225 42.9349 73.3513 42.6343 73.2089 42.3731C73.0743 42.112 72.8844 41.9102 72.6391 41.7678C72.4018 41.6175 72.1248 41.5423 71.8083 41.5423C71.4918 41.5423 71.2109 41.6175 70.9656 41.7678C70.7203 41.9102 70.5304 42.112 70.3959 42.3731C70.2614 42.6343 70.1941 42.9349 70.1941 43.2752C70.1941 43.6154 70.2614 43.9161 70.3959 44.1772C70.5304 44.4384 70.7203 44.6441 70.9656 44.7944C71.2109 44.9369 71.4918 45.0081 71.8083 45.0081ZM68.9716 46.1238V37.578H70.2772V41.8272L70.0517 43.204L70.2772 44.5927V46.1238H68.9716ZM77.4993 46.1831L75.0661 40.4266H76.5023L78.1639 44.652H77.7485L79.5052 40.4266H80.9532L78.3064 46.1831H77.4993ZM75.802 48.4976L77.5705 44.8538L78.3064 46.1831L77.25 48.4976H75.802ZM85.2946 46.1238V44.8775H87.4785C88.0482 44.8775 88.5467 44.7549 88.974 44.5096C89.4092 44.2643 89.7455 43.924 89.9829 43.4888C90.2282 43.0457 90.3509 42.5353 90.3509 41.9577C90.3509 41.388 90.2282 40.8855 89.9829 40.4503C89.7376 40.0151 89.3974 39.6749 88.9622 39.4296C88.5349 39.1843 88.0403 39.0616 87.4785 39.0616H85.2946V37.8154H87.5141C88.1155 37.8154 88.6733 37.9222 89.1877 38.1359C89.702 38.3416 90.1491 38.6344 90.5289 39.0142C90.9166 39.3861 91.2173 39.8252 91.4309 40.3316C91.6446 40.8301 91.7514 41.3761 91.7514 41.9696C91.7514 42.5551 91.6446 43.1011 91.4309 43.6075C91.2173 44.1139 90.9206 44.5571 90.5408 44.9369C90.1609 45.3088 89.7139 45.6015 89.1995 45.8152C88.6852 46.0209 88.1313 46.1238 87.5379 46.1238H85.2946ZM84.3569 46.1238V37.8154H85.7219V46.1238H84.3569ZM95.6117 46.2425C95.0419 46.2425 94.5276 46.1159 94.0687 45.8627C93.6176 45.6015 93.2576 45.2455 92.9886 44.7944C92.7275 44.3434 92.5969 43.837 92.5969 43.2752C92.5969 42.7134 92.7275 42.2109 92.9886 41.7678C93.2497 41.3168 93.6018 40.9607 94.0449 40.6996C94.496 40.4385 94.9945 40.3079 95.5404 40.3079C96.0706 40.3079 96.5375 40.4306 96.941 40.6758C97.3525 40.9211 97.6729 41.2574 97.9024 41.6847C98.1398 42.112 98.2585 42.5986 98.2585 43.1446C98.2585 43.2396 98.2506 43.3385 98.2347 43.4414C98.2268 43.5363 98.211 43.6431 98.1873 43.7618H93.5108V42.6936H97.5107L97.0241 43.1209C97.0083 42.7727 96.941 42.48 96.8223 42.2426C96.7036 42.0052 96.5335 41.8232 96.3119 41.6966C96.0983 41.57 95.8332 41.5067 95.5167 41.5067C95.1844 41.5067 94.8956 41.5779 94.6503 41.7203C94.405 41.8628 94.2151 42.0645 94.0805 42.3257C93.946 42.5789 93.8788 42.8835 93.8788 43.2396C93.8788 43.5957 93.95 43.9082 94.0924 44.1772C94.2348 44.4463 94.4366 44.656 94.6977 44.8063C94.9589 44.9487 95.2595 45.0199 95.5998 45.0199C95.8926 45.0199 96.1616 44.9685 96.4069 44.8657C96.6601 44.7628 96.8737 44.6124 97.0478 44.4146L97.8787 45.2573C97.6017 45.5818 97.2654 45.8271 96.8698 45.9932C96.4742 46.1594 96.0548 46.2425 95.6117 46.2425ZM101.928 46.2425C101.366 46.2425 100.856 46.1119 100.397 45.8508C99.946 45.5897 99.59 45.2336 99.3288 44.7826C99.0677 44.3315 98.9372 43.8291 98.9372 43.2752C98.9372 42.7134 99.0677 42.2109 99.3288 41.7678C99.59 41.3168 99.946 40.9607 100.397 40.6996C100.856 40.4385 101.366 40.3079 101.928 40.3079C102.371 40.3079 102.783 40.3949 103.163 40.569C103.55 40.7352 103.879 40.9765 104.148 41.293L103.293 42.1595C103.127 41.9617 102.925 41.8153 102.688 41.7203C102.458 41.6175 102.205 41.566 101.928 41.566C101.604 41.566 101.315 41.6412 101.062 41.7915C100.816 41.934 100.623 42.1318 100.48 42.385C100.346 42.6382 100.278 42.9349 100.278 43.2752C100.278 43.6075 100.346 43.9043 100.48 44.1654C100.623 44.4186 100.816 44.6204 101.062 44.7707C101.315 44.9131 101.604 44.9843 101.928 44.9843C102.205 44.9843 102.458 44.9369 102.688 44.8419C102.925 44.739 103.127 44.5887 103.293 44.3909L104.148 45.2573C103.879 45.5738 103.55 45.8191 103.163 45.9932C102.783 46.1594 102.371 46.2425 101.928 46.2425ZM108.709 46.1238L106.3 43.2158L108.697 40.4266H110.252L107.498 43.56L107.558 42.8123L110.371 46.1238H108.709ZM105.089 46.1238V37.578H106.395V46.1238H105.089ZM116.02 46.2425C115.363 46.2425 114.805 46.1238 114.346 45.8864C113.887 45.649 113.476 45.3009 113.112 44.8419L114.038 43.9161C114.267 44.2485 114.54 44.5096 114.857 44.6995C115.173 44.8815 115.577 44.9725 116.067 44.9725C116.526 44.9725 116.89 44.8775 117.159 44.6876C117.436 44.4977 117.575 44.2366 117.575 43.9043C117.575 43.6273 117.503 43.4018 117.361 43.2277C117.218 43.0536 117.029 42.9112 116.791 42.8004C116.562 42.6817 116.305 42.5789 116.02 42.4918C115.743 42.3969 115.462 42.294 115.177 42.1832C114.9 42.0645 114.643 41.9181 114.406 41.7441C114.176 41.57 113.99 41.3445 113.848 41.0675C113.705 40.7906 113.634 40.4385 113.634 40.0112C113.634 39.5206 113.753 39.1052 113.99 38.7649C114.235 38.4168 114.564 38.1517 114.975 37.9697C115.387 37.7877 115.846 37.6967 116.352 37.6967C116.898 37.6967 117.385 37.8035 117.812 38.0172C118.247 38.2308 118.599 38.5038 118.868 38.8361L117.943 39.7619C117.705 39.4929 117.456 39.2951 117.195 39.1685C116.942 39.0339 116.649 38.9667 116.316 38.9667C115.905 38.9667 115.581 39.0498 115.343 39.2159C115.114 39.3821 114.999 39.6155 114.999 39.9162C114.999 40.1694 115.07 40.3752 115.213 40.5334C115.355 40.6838 115.541 40.8143 115.77 40.9251C116.008 41.028 116.265 41.1269 116.542 41.2218C116.827 41.3168 117.108 41.4236 117.385 41.5423C117.67 41.661 117.927 41.8153 118.156 42.0052C118.394 42.1872 118.583 42.4246 118.726 42.7173C118.868 43.0101 118.94 43.3781 118.94 43.8212C118.94 44.565 118.674 45.1545 118.144 45.5897C117.622 46.0249 116.914 46.2425 116.02 46.2425ZM122.664 46.2425C122.11 46.2425 121.608 46.1119 121.157 45.8508C120.706 45.5818 120.346 45.2217 120.077 44.7707C119.816 44.3197 119.685 43.8172 119.685 43.2633C119.685 42.7094 119.816 42.2109 120.077 41.7678C120.346 41.3247 120.706 40.9726 121.157 40.7115C121.608 40.4424 122.11 40.3079 122.664 40.3079C123.226 40.3079 123.732 40.4385 124.183 40.6996C124.634 40.9607 124.99 41.3168 125.252 41.7678C125.521 42.2109 125.655 42.7094 125.655 43.2633C125.655 43.8172 125.521 44.3197 125.252 44.7707C124.99 45.2217 124.634 45.5818 124.183 45.8508C123.732 46.1119 123.226 46.2425 122.664 46.2425ZM122.664 44.9843C122.989 44.9843 123.273 44.9131 123.519 44.7707C123.772 44.6204 123.966 44.4146 124.1 44.1535C124.243 43.8924 124.314 43.5957 124.314 43.2633C124.314 42.931 124.243 42.6382 124.1 42.385C123.958 42.1318 123.764 41.934 123.519 41.7915C123.273 41.6412 122.989 41.566 122.664 41.566C122.348 41.566 122.063 41.6412 121.81 41.7915C121.564 41.934 121.37 42.1318 121.228 42.385C121.093 42.6382 121.026 42.931 121.026 43.2633C121.026 43.5957 121.093 43.8924 121.228 44.1535C121.37 44.4146 121.564 44.6204 121.81 44.7707C122.063 44.9131 122.348 44.9843 122.664 44.9843ZM129.364 46.2425C128.802 46.2425 128.292 46.1119 127.833 45.8508C127.382 45.5897 127.026 45.2336 126.765 44.7826C126.503 44.3315 126.373 43.8291 126.373 43.2752C126.373 42.7134 126.503 42.2109 126.765 41.7678C127.026 41.3168 127.382 40.9607 127.833 40.6996C128.292 40.4385 128.802 40.3079 129.364 40.3079C129.807 40.3079 130.219 40.3949 130.598 40.569C130.986 40.7352 131.314 40.9765 131.583 41.293L130.729 42.1595C130.563 41.9617 130.361 41.8153 130.124 41.7203C129.894 41.6175 129.641 41.566 129.364 41.566C129.04 41.566 128.751 41.6412 128.498 41.7915C128.252 41.934 128.058 42.1318 127.916 42.385C127.781 42.6382 127.714 42.9349 127.714 43.2752C127.714 43.6075 127.781 43.9043 127.916 44.1654C128.058 44.4186 128.252 44.6204 128.498 44.7707C128.751 44.9131 129.04 44.9843 129.364 44.9843C129.641 44.9843 129.894 44.9369 130.124 44.8419C130.361 44.739 130.563 44.5887 130.729 44.3909L131.583 45.2573C131.314 45.5738 130.986 45.8191 130.598 45.9932C130.219 46.1594 129.807 46.2425 129.364 46.2425ZM132.537 46.1238V40.4266H133.842V46.1238H132.537ZM133.189 39.3821C132.968 39.3821 132.782 39.3069 132.632 39.1566C132.489 39.0063 132.418 38.8203 132.418 38.5987C132.418 38.3772 132.489 38.1912 132.632 38.0409C132.782 37.8906 132.968 37.8154 133.189 37.8154C133.419 37.8154 133.605 37.8906 133.747 38.0409C133.89 38.1912 133.961 38.3772 133.961 38.5987C133.961 38.8203 133.89 39.0063 133.747 39.1566C133.605 39.3069 133.419 39.3821 133.189 39.3821ZM137.692 46.2425C137.178 46.2425 136.711 46.1119 136.292 45.8508C135.88 45.5897 135.552 45.2376 135.307 44.7944C135.069 44.3434 134.951 43.8409 134.951 43.2871C134.951 42.7253 135.069 42.2228 135.307 41.7797C135.552 41.3286 135.88 40.9726 136.292 40.7115C136.711 40.4424 137.178 40.3079 137.692 40.3079C138.127 40.3079 138.511 40.4029 138.844 40.5928C139.184 40.7748 139.453 41.028 139.651 41.3524C139.849 41.6768 139.947 42.0448 139.947 42.4562V44.0942C139.947 44.5056 139.849 44.8736 139.651 45.198C139.461 45.5224 139.196 45.7796 138.855 45.9695C138.515 46.1515 138.127 46.2425 137.692 46.2425ZM137.906 45.0081C138.389 45.0081 138.776 44.8459 139.069 44.5214C139.37 44.197 139.52 43.7816 139.52 43.2752C139.52 42.9349 139.453 42.6343 139.318 42.3731C139.184 42.112 138.994 41.9102 138.749 41.7678C138.511 41.6175 138.23 41.5423 137.906 41.5423C137.589 41.5423 137.309 41.6175 137.063 41.7678C136.826 41.9102 136.636 42.112 136.494 42.3731C136.359 42.6343 136.292 42.9349 136.292 43.2752C136.292 43.6154 136.359 43.9161 136.494 44.1772C136.636 44.4384 136.826 44.6441 137.063 44.7944C137.309 44.9369 137.589 45.0081 137.906 45.0081ZM139.437 46.1238V44.5927L139.663 43.204L139.437 41.8272V40.4266H140.743V46.1238H139.437ZM142.192 46.1238V37.578H143.497V46.1238H142.192ZM146.814 46.2425C146.497 46.2425 146.193 46.2029 145.9 46.1238C145.607 46.0367 145.338 45.918 145.093 45.7677C144.847 45.6095 144.634 45.4195 144.452 45.198L145.283 44.3671C145.48 44.5966 145.706 44.7707 145.959 44.8894C146.22 45.0002 146.513 45.0556 146.837 45.0556C147.13 45.0556 147.352 45.012 147.502 44.925C147.652 44.838 147.728 44.7114 147.728 44.5452C147.728 44.3711 147.656 44.2366 147.514 44.1416C147.372 44.0467 147.186 43.9676 146.956 43.9043C146.735 43.833 146.497 43.7618 146.244 43.6906C145.999 43.6194 145.761 43.5244 145.532 43.4057C145.31 43.2791 145.128 43.109 144.986 42.8954C144.843 42.6817 144.772 42.4048 144.772 42.0645C144.772 41.7005 144.855 41.388 145.021 41.1269C145.196 40.8658 145.437 40.664 145.745 40.5215C146.062 40.3791 146.438 40.3079 146.873 40.3079C147.332 40.3079 147.736 40.391 148.084 40.5572C148.44 40.7154 148.737 40.9567 148.974 41.2812L148.143 42.112C147.977 41.9063 147.787 41.752 147.573 41.6491C147.36 41.5462 147.114 41.4948 146.837 41.4948C146.576 41.4948 146.375 41.5344 146.232 41.6135C146.09 41.6926 146.018 41.8074 146.018 41.9577C146.018 42.116 146.09 42.2386 146.232 42.3257C146.375 42.4127 146.557 42.4879 146.778 42.5512C147.008 42.6145 147.245 42.6857 147.49 42.7648C147.743 42.836 147.981 42.9389 148.202 43.0734C148.432 43.2 148.618 43.3741 148.76 43.5957C148.903 43.8093 148.974 44.0902 148.974 44.4384C148.974 44.9923 148.78 45.4314 148.392 45.7558C148.005 46.0803 147.478 46.2425 146.814 46.2425ZM152.604 46.1238V37.8154H153.969V46.1238H152.604ZM153.542 46.1238V44.8775H157.886V46.1238H153.542ZM159.413 46.1238V38.0528H160.718V46.1238H159.413ZM158.048 41.6135V40.4266H162.083V41.6135H158.048ZM165.256 46.2425C164.741 46.2425 164.274 46.1119 163.855 45.8508C163.444 45.5897 163.115 45.2376 162.87 44.7944C162.632 44.3434 162.514 43.8409 162.514 43.2871C162.514 42.7253 162.632 42.2228 162.87 41.7797C163.115 41.3286 163.444 40.9726 163.855 40.7115C164.274 40.4424 164.741 40.3079 165.256 40.3079C165.691 40.3079 166.075 40.4029 166.407 40.5928C166.747 40.7748 167.016 41.028 167.214 41.3524C167.412 41.6768 167.511 42.0448 167.511 42.4562V44.0942C167.511 44.5056 167.412 44.8736 167.214 45.198C167.024 45.5224 166.759 45.7796 166.419 45.9695C166.078 46.1515 165.691 46.2425 165.256 46.2425ZM165.469 45.0081C165.794 45.0081 166.075 44.9369 166.312 44.7944C166.557 44.6441 166.747 44.4384 166.882 44.1772C167.016 43.9161 167.083 43.6154 167.083 43.2752C167.083 42.9349 167.016 42.6343 166.882 42.3731C166.747 42.112 166.557 41.9102 166.312 41.7678C166.075 41.6175 165.794 41.5423 165.469 41.5423C165.153 41.5423 164.872 41.6175 164.627 41.7678C164.389 41.9102 164.199 42.112 164.057 42.3731C163.922 42.6343 163.855 42.9349 163.855 43.2752C163.855 43.6154 163.922 43.9161 164.057 44.1772C164.199 44.4384 164.389 44.6441 164.627 44.7944C164.872 44.9369 165.153 45.0081 165.469 45.0081ZM168.306 46.1238H167V44.5927L167.226 43.204L167 41.8272V37.578H168.306V46.1238Z" fill="#F4F4F4"/>
<defs>
<linearGradient id="paint0_linear_2543_46599" x1="-0.000614756" y1="24.7669" x2="43.7672" y2="24.7669" gradientUnits="userSpaceOnUse">
<stop stop-color="#00DAFF"/>
<stop offset="0.16" stop-color="#31BAFD"/>
<stop offset="0.38" stop-color="#7190FA"/>
<stop offset="0.59" stop-color="#A46EF7"/>
<stop offset="0.76" stop-color="#C856F5"/>
<stop offset="0.91" stop-color="#DF47F4"/>
<stop offset="1" stop-color="#E742F4"/>
</linearGradient>
</defs>
</svg>
