<svg width="188" height="50" viewBox="0 0 188 50" fill="none" xmlns="http://www.w3.org/2000/svg">
<path d="M35.8098 7.83655H7.95939C1.43314 7.83655 -2.30898 15.2669 1.57548 20.512L15.5065 39.3188C16.2461 40.3158 17.2089 41.1258 18.3178 41.6839C19.4267 42.242 20.6509 42.5327 21.8923 42.5327C23.1337 42.5327 24.3579 42.242 25.4668 41.6839C26.5757 41.1258 27.5385 40.3158 28.2781 39.3188L42.1937 20.5095C46.0756 15.2631 42.3322 7.83655 35.8098 7.83655ZM31.6291 26.751C28.3666 28.2976 25.0644 29.0799 21.8121 29.0799C18.5599 29.0799 15.2718 28.2912 12.1029 26.7356C11.4198 26.4006 10.8977 25.8079 10.6516 25.088C10.4054 24.3681 10.4553 23.5798 10.7903 22.8967C11.1254 22.2136 11.718 21.6915 12.438 21.4453C13.1579 21.1992 13.9462 21.2491 14.6293 21.5841C17.0492 22.7755 19.4012 23.3513 21.8109 23.3513C24.2205 23.3513 26.643 22.7691 29.1745 21.5687C29.5576 21.3852 29.9771 21.2905 30.4018 21.2917C30.9447 21.2929 31.4762 21.4481 31.9343 21.7393C32.3922 22.0303 32.7592 22.444 32.9936 22.9332C33.3184 23.6205 33.3571 24.4086 33.1013 25.1245C32.8454 25.8403 32.3159 26.4253 31.6291 26.751Z" fill="url(#paint0_linear_2064_71515)"/>
<path d="M66.8232 4.52866H75.5173V4.9144C74.1821 4.9144 72.5501 5.3595 69.9092 11.5314L64.301 25.4183H63.6185C56.0223 7.94103 55.6365 7.3179 55.6365 7.3179C54.6277 4.94408 53.8562 4.94408 53.055 4.9144V4.52866H62.7283V4.9144C60.4732 4.9144 61.8678 8.35645 61.8678 8.35645L66.4374 19.1277L69.5234 11.4424C69.9685 10.3445 71.0367 4.9144 66.8232 4.9144V4.52866ZM76.7905 7.46627C76.7905 6.10132 77.8587 5.0331 79.2237 5.0331C80.5589 5.0331 81.6568 6.10132 81.6568 7.46627C81.6568 8.80155 80.5589 9.86977 79.2237 9.86977C77.8587 9.86977 76.7905 8.80155 76.7905 7.46627ZM82.9328 25.0623V25.4183H76.1674V25.0623C77.2949 24.7062 77.3543 23.4599 77.3543 21.9466V15.0328C77.3543 13.9943 77.0279 13.5789 75.8113 13.0448V12.659L81.7162 11.4424V21.9466C81.7162 23.5786 81.8645 24.7655 82.9328 25.0623ZM96.2777 18.8606C96.2777 14.7658 95.3281 12.5107 93.0433 12.5107C91.0256 12.5107 90.2837 14.5581 90.2837 16.7539V20.2256C90.2837 23.7863 91.53 25.2996 93.2807 25.2996C95.1798 25.2996 96.2777 23.5193 96.2777 18.8606ZM101.381 18.5342C101.381 23.8753 97.8503 25.6854 93.8742 25.6854C91.8267 25.6854 90.3431 25.1513 89.4529 24.2908C88.444 25.0623 85.9218 25.7447 85.9218 25.27V6.72445C85.9218 5.71557 85.6251 5.27048 84.4085 4.82539V4.46931L90.2837 3.2824V13.8459C91.1739 12.2139 93.0136 11.4424 95.1204 11.4424C98.8295 11.4424 101.381 14.3504 101.381 18.5342ZM108.296 17.9111H113.103C113.103 14.1723 112.302 11.8282 110.818 11.8282C109.245 11.8282 108.296 15.0625 108.296 17.9111ZM117.049 18.2969H108.296C108.415 22.006 109.869 23.3412 111.857 23.7863C113.4 24.1424 115.595 23.4006 116.248 21.4422L116.634 21.5905C116.219 23.4599 114.26 25.6854 110.403 25.6854C106.515 25.6854 103.608 22.362 103.608 18.6233C103.608 13.9943 106.961 11.4424 110.818 11.4424C114.557 11.4424 117.049 13.1931 117.049 18.2969ZM131.983 11.7095L124.772 25.0326C129.223 25.0326 130.559 22.095 130.974 20.9081H131.36L131.093 25.4183H119.135L126.82 12.0952C122.844 12.0952 121.093 13.6679 120.41 15.6263H120.025L120.173 11.7095H131.983ZM143.976 24.0831C143.976 24.0831 142.849 25.6854 139.614 25.6854C136.024 25.6854 134.273 24.4985 134.273 24.4985V20.7004H134.659C135.193 22.6588 136.884 25.2996 139.614 25.2996C141.721 25.2996 142.137 22.7478 139.881 21.2641L136.884 19.4541C134.036 17.6441 133.294 14.9735 135.015 12.8964C135.015 12.8964 136.113 11.4424 139.288 11.4424C142.7 11.4424 144.154 12.3029 144.154 12.3029V15.4779H143.769C143.323 13.6382 141.691 11.8282 139.288 11.8282C137.359 11.8282 136.499 13.9349 139.08 15.567L142.077 17.4363C144.748 19.0683 145.519 22.0356 143.976 24.0831ZM156.416 25.6854C152.381 25.6854 148.761 23.2522 148.761 18.4155V7.52561C148.761 5.71557 148.286 4.9144 146.98 4.9144V4.52866H155.942V4.9144C154.666 4.9144 153.954 5.38917 153.954 7.52561V18.6233C153.954 22.1246 155.971 23.905 158.79 23.905C161.49 23.905 163.627 21.8576 163.627 18.6233V10.3445C163.627 9.12795 163.271 4.9144 159.799 4.9144V4.52866H168.167L168.196 4.9144C164.28 4.9144 164.013 9.12795 164.013 10.3445V18.6233C164.013 23.727 160.333 25.6854 156.416 25.6854ZM181.068 18.8606C181.068 14.7361 180.088 12.5107 177.833 12.5107C176.053 12.5107 175.252 14.0833 175.074 15.9527V21.2345C175.281 24.0831 176.498 25.2996 178.041 25.2996C179.94 25.2996 181.068 23.4896 181.068 18.8606ZM186.171 18.5046C186.171 23.8457 182.64 25.6854 178.664 25.6854C177.18 25.6854 175.964 25.3887 175.074 24.8842V29.9286C175.074 31.5606 175.252 32.6288 176.29 32.8959V33.2816H169.554V32.8959C170.682 32.5695 170.712 31.4419 170.712 29.9286V14.8251C170.712 13.7866 170.415 13.4899 169.198 13.0448V12.659L175.074 11.4424V13.8163C175.964 12.2139 177.804 11.4424 179.881 11.4424C183.59 11.4424 186.171 14.3504 186.171 18.5046Z" fill="white"/>
<path d="M72.0219 46.6609C71.5867 46.6609 71.199 46.5699 70.8587 46.3879C70.5185 46.198 70.2494 45.9409 70.0516 45.6164C69.8617 45.292 69.7667 44.9241 69.7667 44.5126V42.8747C69.7667 42.4632 69.8657 42.0953 70.0635 41.7708C70.2613 41.4464 70.5303 41.1932 70.8706 41.0112C71.2108 40.8213 71.5946 40.7264 72.0219 40.7264C72.5362 40.7264 72.9991 40.8609 73.4106 41.1299C73.8299 41.391 74.1583 41.7471 74.3957 42.1981C74.641 42.6412 74.7637 43.1437 74.7637 43.7055C74.7637 44.2594 74.641 44.7619 74.3957 45.2129C74.1583 45.656 73.8299 46.0081 73.4106 46.2692C72.9991 46.5304 72.5362 46.6609 72.0219 46.6609ZM71.8082 45.4265C72.1247 45.4265 72.4017 45.3553 72.6391 45.2129C72.8844 45.0626 73.0743 44.8568 73.2088 44.5957C73.3512 44.3346 73.4224 44.0339 73.4224 43.6936C73.4224 43.3534 73.3512 43.0527 73.2088 42.7916C73.0743 42.5305 72.8844 42.3287 72.6391 42.1863C72.4017 42.0359 72.1247 41.9608 71.8082 41.9608C71.4917 41.9608 71.2108 42.0359 70.9655 42.1863C70.7202 42.3287 70.5303 42.5305 70.3958 42.7916C70.2613 43.0527 70.194 43.3534 70.194 43.6936C70.194 44.0339 70.2613 44.3346 70.3958 44.5957C70.5303 44.8568 70.7202 45.0626 70.9655 45.2129C71.2108 45.3553 71.4917 45.4265 71.8082 45.4265ZM68.9715 46.5422V37.9965H70.2771V42.2456L70.0516 43.6224L70.2771 45.0111V46.5422H68.9715ZM77.4992 46.6016L75.066 40.8451H76.5022L78.1639 45.0705H77.7485L79.5051 40.8451H80.9531L78.3063 46.6016H77.4992ZM75.8019 48.9161L77.5704 45.2722L78.3063 46.6016L77.25 48.9161H75.8019ZM85.2945 46.5422V45.296H87.4785C88.0482 45.296 88.5467 45.1733 88.974 44.928C89.4092 44.6827 89.7455 44.3425 89.9828 43.9073C90.2281 43.4642 90.3508 42.9538 90.3508 42.3762C90.3508 41.8065 90.2281 41.304 89.9828 40.8688C89.7376 40.4336 89.3973 40.0933 88.9621 39.848C88.5348 39.6027 88.0403 39.4801 87.4785 39.4801H85.2945V38.2338H87.5141C88.1154 38.2338 88.6733 38.3407 89.1876 38.5543C89.7019 38.76 90.149 39.0528 90.5288 39.4326C90.9166 39.8045 91.2172 40.2437 91.4309 40.7501C91.6445 41.2486 91.7514 41.7946 91.7514 42.388C91.7514 42.9736 91.6445 43.5196 91.4309 44.026C91.2172 44.5324 90.9205 44.9755 90.5407 45.3553C90.1609 45.7272 89.7138 46.02 89.1995 46.2336C88.6852 46.4394 88.1313 46.5422 87.5378 46.5422H85.2945ZM84.3569 46.5422V38.2338H85.7218V46.5422H84.3569ZM95.6116 46.6609C95.0419 46.6609 94.5276 46.5343 94.0686 46.2811C93.6176 46.02 93.2576 45.6639 92.9885 45.2129C92.7274 44.7619 92.5968 44.2554 92.5968 43.6936C92.5968 43.1318 92.7274 42.6294 92.9885 42.1863C93.2496 41.7352 93.6018 41.3792 94.0449 41.118C94.4959 40.8569 94.9944 40.7264 95.5404 40.7264C96.0705 40.7264 96.5374 40.849 96.9409 41.0943C97.3524 41.3396 97.6729 41.6759 97.9023 42.1032C98.1397 42.5305 98.2584 43.0171 98.2584 43.5631C98.2584 43.658 98.2505 43.7569 98.2347 43.8598C98.2268 43.9548 98.2109 44.0616 98.1872 44.1803H93.5108V43.1121H97.5107L97.024 43.5393C97.0082 43.1912 96.9409 42.8984 96.8223 42.661C96.7036 42.4236 96.5334 42.2417 96.3119 42.115C96.0982 41.9884 95.8332 41.9251 95.5166 41.9251C95.1843 41.9251 94.8955 41.9964 94.6502 42.1388C94.4049 42.2812 94.215 42.483 94.0805 42.7441C93.946 42.9973 93.8787 43.302 93.8787 43.658C93.8787 44.0141 93.9499 44.3267 94.0924 44.5957C94.2348 44.8647 94.4366 45.0744 94.6977 45.2248C94.9588 45.3672 95.2595 45.4384 95.5997 45.4384C95.8925 45.4384 96.1615 45.387 96.4068 45.2841C96.66 45.1812 96.8737 45.0309 97.0478 44.8331L97.8786 45.6758C97.6017 46.0002 97.2654 46.2455 96.8697 46.4117C96.4741 46.5778 96.0547 46.6609 95.6116 46.6609ZM101.928 46.6609C101.366 46.6609 100.856 46.5304 100.397 46.2692C99.946 46.0081 99.5899 45.6521 99.3288 45.201C99.0677 44.75 98.9371 44.2475 98.9371 43.6936C98.9371 43.1318 99.0677 42.6294 99.3288 42.1863C99.5899 41.7352 99.946 41.3792 100.397 41.118C100.856 40.8569 101.366 40.7264 101.928 40.7264C102.371 40.7264 102.783 40.8134 103.163 40.9875C103.55 41.1536 103.879 41.395 104.148 41.7115L103.293 42.5779C103.127 42.3801 102.925 42.2337 102.688 42.1388C102.458 42.0359 102.205 41.9845 101.928 41.9845C101.604 41.9845 101.315 42.0597 101.062 42.21C100.816 42.3524 100.623 42.5503 100.48 42.8035C100.346 43.0567 100.278 43.3534 100.278 43.6936C100.278 44.026 100.346 44.3227 100.48 44.5838C100.623 44.837 100.816 45.0388 101.062 45.1892C101.315 45.3316 101.604 45.4028 101.928 45.4028C102.205 45.4028 102.458 45.3553 102.688 45.2604C102.925 45.1575 103.127 45.0072 103.293 44.8093L104.148 45.6758C103.879 45.9923 103.55 46.2376 103.163 46.4117C102.783 46.5778 102.371 46.6609 101.928 46.6609ZM108.709 46.5422L106.3 43.6343L108.697 40.8451H110.252L107.498 43.9785L107.558 43.2307L110.371 46.5422H108.709ZM105.089 46.5422V37.9965H106.395V46.5422H105.089ZM110.502 44.1328V42.8984H114.526V44.1328H110.502ZM117.089 46.5422V45.3553H119.474C119.894 45.3553 120.218 45.2248 120.447 44.9636C120.677 44.7025 120.792 44.4018 120.792 44.0616C120.792 43.8321 120.74 43.6185 120.637 43.4207C120.535 43.2228 120.384 43.0646 120.186 42.9459C119.989 42.8272 119.751 42.7679 119.474 42.7679H117.089V41.5809H119.272C119.629 41.5809 119.913 41.4899 120.127 41.3079C120.341 41.126 120.447 40.8569 120.447 40.5008C120.447 40.1448 120.341 39.8757 120.127 39.6937C119.913 39.5118 119.629 39.4208 119.272 39.4208H117.089V38.2338H119.308C119.87 38.2338 120.337 38.3367 120.709 38.5424C121.081 38.7482 121.357 39.0132 121.539 39.3377C121.721 39.6621 121.812 40.0103 121.812 40.3822C121.812 40.8174 121.69 41.2011 121.444 41.5335C121.207 41.8658 120.855 42.1348 120.388 42.3406L120.495 41.9133C121.017 42.1269 121.425 42.4276 121.717 42.8153C122.01 43.2031 122.157 43.658 122.157 44.1803C122.157 44.6076 122.05 44.9992 121.836 45.3553C121.63 45.7114 121.322 46.0002 120.91 46.2218C120.507 46.4354 120.008 46.5422 119.415 46.5422H117.089ZM116.151 46.5422V38.2338H117.516V46.5422H116.151ZM125.967 46.6609C125.414 46.6609 124.911 46.5304 124.46 46.2692C124.009 46.0002 123.649 45.6402 123.38 45.1892C123.119 44.7381 122.988 44.2357 122.988 43.6818C122.988 43.1279 123.119 42.6294 123.38 42.1863C123.649 41.7431 124.009 41.391 124.46 41.1299C124.911 40.8609 125.414 40.7264 125.967 40.7264C126.529 40.7264 127.036 40.8569 127.487 41.118C127.938 41.3792 128.294 41.7352 128.555 42.1863C128.824 42.6294 128.958 43.1279 128.958 43.6818C128.958 44.2357 128.824 44.7381 128.555 45.1892C128.294 45.6402 127.938 46.0002 127.487 46.2692C127.036 46.5304 126.529 46.6609 125.967 46.6609ZM125.967 45.4028C126.292 45.4028 126.577 45.3316 126.822 45.1892C127.075 45.0388 127.269 44.8331 127.404 44.572C127.546 44.3108 127.617 44.0141 127.617 43.6818C127.617 43.3494 127.546 43.0567 127.404 42.8035C127.261 42.5503 127.067 42.3524 126.822 42.21C126.577 42.0597 126.292 41.9845 125.967 41.9845C125.651 41.9845 125.366 42.0597 125.113 42.21C124.868 42.3524 124.674 42.5503 124.531 42.8035C124.397 43.0567 124.33 43.3494 124.33 43.6818C124.33 44.0141 124.397 44.3108 124.531 44.572C124.674 44.8331 124.868 45.0388 125.113 45.1892C125.366 45.3316 125.651 45.4028 125.967 45.4028ZM133.49 46.5422L131.852 44.1328L131.615 43.9192L129.407 40.8451H130.986L132.446 42.9578L132.671 43.1595L135.057 46.5422H133.49ZM129.3 46.5422L131.603 43.3494L132.363 44.2871L130.82 46.5422H129.3ZM132.79 43.8954L132.018 42.9696L133.443 40.8451H134.95L132.79 43.8954ZM140.79 46.6609C140.133 46.6609 139.575 46.5422 139.116 46.3049C138.657 46.0675 138.246 45.7193 137.882 45.2604L138.807 44.3346C139.037 44.6669 139.31 44.928 139.626 45.1179C139.943 45.2999 140.346 45.3909 140.837 45.3909C141.296 45.3909 141.66 45.296 141.929 45.1061C142.206 44.9162 142.344 44.655 142.344 44.3227C142.344 44.0458 142.273 43.8202 142.131 43.6462C141.988 43.4721 141.798 43.3297 141.561 43.2189C141.332 43.1002 141.074 42.9973 140.79 42.9103C140.513 42.8153 140.232 42.7125 139.947 42.6017C139.67 42.483 139.413 42.3366 139.175 42.1625C138.946 41.9884 138.76 41.7629 138.617 41.486C138.475 41.209 138.404 40.8569 138.404 40.4296C138.404 39.939 138.523 39.5236 138.76 39.1834C139.005 38.8352 139.334 38.5701 139.745 38.3881C140.156 38.2061 140.615 38.1152 141.122 38.1152C141.668 38.1152 142.154 38.222 142.582 38.4356C143.017 38.6493 143.369 38.9223 143.638 39.2546L142.712 40.1804C142.475 39.9113 142.226 39.7135 141.965 39.5869C141.711 39.4524 141.419 39.3851 141.086 39.3851C140.675 39.3851 140.35 39.4682 140.113 39.6344C139.883 39.8006 139.769 40.034 139.769 40.3347C139.769 40.5879 139.84 40.7936 139.982 40.9519C140.125 41.1022 140.311 41.2328 140.54 41.3436C140.778 41.4464 141.035 41.5453 141.312 41.6403C141.597 41.7352 141.878 41.8421 142.154 41.9608C142.439 42.0794 142.696 42.2337 142.926 42.4236C143.163 42.6056 143.353 42.843 143.496 43.1358C143.638 43.4286 143.709 43.7965 143.709 44.2396C143.709 44.9834 143.444 45.5729 142.914 46.0081C142.392 46.4433 141.684 46.6609 140.79 46.6609ZM147.434 46.6609C146.88 46.6609 146.378 46.5304 145.927 46.2692C145.475 46.0002 145.115 45.6402 144.846 45.1892C144.585 44.7381 144.455 44.2357 144.455 43.6818C144.455 43.1279 144.585 42.6294 144.846 42.1863C145.115 41.7431 145.475 41.391 145.927 41.1299C146.378 40.8609 146.88 40.7264 147.434 40.7264C147.996 40.7264 148.502 40.8569 148.953 41.118C149.404 41.3792 149.76 41.7352 150.021 42.1863C150.29 42.6294 150.425 43.1279 150.425 43.6818C150.425 44.2357 150.29 44.7381 150.021 45.1892C149.76 45.6402 149.404 46.0002 148.953 46.2692C148.502 46.5304 147.996 46.6609 147.434 46.6609ZM147.434 45.4028C147.758 45.4028 148.043 45.3316 148.288 45.1892C148.542 45.0388 148.736 44.8331 148.87 44.572C149.013 44.3108 149.084 44.0141 149.084 43.6818C149.084 43.3494 149.013 43.0567 148.87 42.8035C148.728 42.5503 148.534 42.3524 148.288 42.21C148.043 42.0597 147.758 41.9845 147.434 41.9845C147.117 41.9845 146.833 42.0597 146.579 42.21C146.334 42.3524 146.14 42.5503 145.998 42.8035C145.863 43.0567 145.796 43.3494 145.796 43.6818C145.796 44.0141 145.863 44.3108 145.998 44.572C146.14 44.8331 146.334 45.0388 146.579 45.1892C146.833 45.3316 147.117 45.4028 147.434 45.4028ZM154.134 46.6609C153.572 46.6609 153.062 46.5304 152.603 46.2692C152.152 46.0081 151.796 45.6521 151.534 45.201C151.273 44.75 151.143 44.2475 151.143 43.6936C151.143 43.1318 151.273 42.6294 151.534 42.1863C151.796 41.7352 152.152 41.3792 152.603 41.118C153.062 40.8569 153.572 40.7264 154.134 40.7264C154.577 40.7264 154.988 40.8134 155.368 40.9875C155.756 41.1536 156.084 41.395 156.353 41.7115L155.499 42.5779C155.333 42.3801 155.131 42.2337 154.893 42.1388C154.664 42.0359 154.411 41.9845 154.134 41.9845C153.809 41.9845 153.521 42.0597 153.267 42.21C153.022 42.3524 152.828 42.5503 152.686 42.8035C152.551 43.0567 152.484 43.3534 152.484 43.6936C152.484 44.026 152.551 44.3227 152.686 44.5838C152.828 44.837 153.022 45.0388 153.267 45.1892C153.521 45.3316 153.809 45.4028 154.134 45.4028C154.411 45.4028 154.664 45.3553 154.893 45.2604C155.131 45.1575 155.333 45.0072 155.499 44.8093L156.353 45.6758C156.084 45.9923 155.756 46.2376 155.368 46.4117C154.988 46.5778 154.577 46.6609 154.134 46.6609ZM157.306 46.5422V40.8451H158.612V46.5422H157.306ZM157.959 39.8006C157.738 39.8006 157.552 39.7254 157.401 39.5751C157.259 39.4247 157.188 39.2388 157.188 39.0172C157.188 38.7956 157.259 38.6097 157.401 38.4594C157.552 38.309 157.738 38.2338 157.959 38.2338C158.189 38.2338 158.375 38.309 158.517 38.4594C158.66 38.6097 158.731 38.7956 158.731 39.0172C158.731 39.2388 158.66 39.4247 158.517 39.5751C158.375 39.7254 158.189 39.8006 157.959 39.8006ZM162.462 46.6609C161.948 46.6609 161.481 46.5304 161.062 46.2692C160.65 46.0081 160.322 45.656 160.076 45.2129C159.839 44.7619 159.72 44.2594 159.72 43.7055C159.72 43.1437 159.839 42.6412 160.076 42.1981C160.322 41.7471 160.65 41.391 161.062 41.1299C161.481 40.8609 161.948 40.7264 162.462 40.7264C162.897 40.7264 163.281 40.8213 163.613 41.0112C163.954 41.1932 164.223 41.4464 164.42 41.7708C164.618 42.0953 164.717 42.4632 164.717 42.8747V44.5126C164.717 44.9241 164.618 45.292 164.42 45.6164C164.231 45.9409 163.966 46.198 163.625 46.3879C163.285 46.5699 162.897 46.6609 162.462 46.6609ZM162.676 45.4265C163.158 45.4265 163.546 45.2643 163.839 44.9399C164.14 44.6155 164.29 44.2001 164.29 43.6936C164.29 43.3534 164.223 43.0527 164.088 42.7916C163.954 42.5305 163.764 42.3287 163.518 42.1863C163.281 42.0359 163 41.9608 162.676 41.9608C162.359 41.9608 162.078 42.0359 161.833 42.1863C161.596 42.3287 161.406 42.5305 161.263 42.7916C161.129 43.0527 161.062 43.3534 161.062 43.6936C161.062 44.0339 161.129 44.3346 161.263 44.5957C161.406 44.8568 161.596 45.0626 161.833 45.2129C162.078 45.3553 162.359 45.4265 162.676 45.4265ZM164.207 46.5422V45.0111L164.432 43.6224L164.207 42.2456V40.8451H165.512V46.5422H164.207ZM166.961 46.5422V37.9965H168.267V46.5422H166.961Z" fill="#F4F4F4"/>
<defs>
<linearGradient id="paint0_linear_2064_71515" x1="-0.000614756" y1="25.1852" x2="43.7672" y2="25.1852" gradientUnits="userSpaceOnUse">
<stop stop-color="#00DAFF"/>
<stop offset="0.16" stop-color="#31BAFD"/>
<stop offset="0.38" stop-color="#7190FA"/>
<stop offset="0.59" stop-color="#A46EF7"/>
<stop offset="0.76" stop-color="#C856F5"/>
<stop offset="0.91" stop-color="#DF47F4"/>
<stop offset="1" stop-color="#E742F4"/>
</linearGradient>
</defs>
</svg>
